<svg width="360px" height="360px" viewBox="0 0 360 360" version="1.1" xmlns="http://www.w3.org/2000/svg" xmlns:xlink="http://www.w3.org/1999/xlink">
    <title>favicon</title>
    <defs>
        <polygon id="path-1" points="0 0 606.413 0 606.413 359.96189 0 359.96189"></polygon>
    </defs>
    <g id="favicon" stroke="none" stroke-width="1" fill="none" fill-rule="evenodd">
        <g id="Group-3" transform="translate(-303.000000, 0.490110)">
            <mask id="mask-2" fill="white">
                <use xlink:href="#path-1"></use>
            </mask>
            <g id="Clip-2"></g>
            <path d="M148.481,229.64389 C148.492,230.61089 147.718,231.40489 146.751,231.41689 L145.583,231.43189 C145.577,231.43189 145.569,231.43189 145.561,231.43189 C144.604,231.43189 143.823,230.66189 143.811,229.70189 C143.798,228.73589 144.572,227.94189 145.539,227.92889 L146.707,227.91389 C147.634,227.90589 148.468,228.67689 148.481,229.64389 Z M189.339,229.12889 C189.352,230.09589 188.578,230.88889 187.611,230.90189 L186.443,230.91589 C186.436,230.91589 186.428,230.91589 186.421,230.91589 C185.464,230.91589 184.682,230.14689 184.669,229.18789 C184.658,228.21989 185.432,227.42589 186.399,227.41389 L187.566,227.39889 C188.491,227.38789 189.327,228.16189 189.339,229.12889 Z M195.177,229.05489 C195.188,230.02189 194.414,230.81489 193.447,230.82689 L192.28,230.84189 C192.273,230.84189 192.265,230.84189 192.257,230.84189 C191.3,230.84189 190.52,230.07289 190.507,229.11389 C190.494,228.14589 191.269,227.35289 192.235,227.33989 L193.403,227.32489 C194.349,227.31389 195.164,228.08789 195.177,229.05489 Z M201.013,228.98189 C201.026,229.94789 200.251,230.74189 199.285,230.75389 L198.117,230.76989 C198.109,230.76989 198.101,230.76989 198.094,230.76989 C197.138,230.76989 196.355,229.99989 196.343,229.04089 C196.332,228.07289 197.106,227.27989 198.073,227.26689 L199.24,227.25189 C200.207,227.23889 201,228.01489 201.013,228.98189 Z M206.851,228.90689 C206.862,229.87389 206.088,230.66789 205.121,230.68089 L203.954,230.69589 C203.947,230.69589 203.938,230.69589 203.931,230.69589 C202.974,230.69589 202.193,229.92589 202.181,228.96689 C202.168,227.99889 202.942,227.20489 203.909,227.19289 L205.077,227.17789 C205.991,227.16489 206.837,227.94089 206.851,228.90689 Z M154.317,229.56889 C154.33,230.53589 153.556,231.32989 152.588,231.34289 L151.421,231.35789 C151.414,231.35789 151.406,231.35789 151.398,231.35789 C150.442,231.35789 149.661,230.58789 149.648,229.62889 C149.636,228.66089 150.41,227.86689 151.376,227.85589 L152.544,227.83989 C153.492,227.83189 154.305,228.60289 154.317,229.56889 Z M160.154,229.49589 C160.167,230.46389 159.393,231.25689 158.426,231.26989 L157.259,231.28389 C157.25,231.28389 157.243,231.28389 157.236,231.28389 C156.279,231.28389 155.497,230.51489 155.484,229.55489 C155.473,228.58789 156.247,227.79489 157.214,227.78189 L158.382,227.76789 C159.35,227.75789 160.142,228.53089 160.154,229.49589 Z M212.687,228.83389 C212.699,229.80089 211.925,230.59489 210.958,230.60789 L209.791,230.62189 C209.783,230.62189 209.775,230.62189 209.768,230.62189 C208.812,230.62189 208.029,229.85289 208.017,228.89389 C208.005,227.92589 208.78,227.13189 209.747,227.11889 L210.914,227.10489 C211.849,227.09089 212.674,227.86589 212.687,228.83389 Z M177.666,229.27489 C177.677,230.24189 176.903,231.03589 175.936,231.04889 L174.769,231.06389 C174.762,231.06389 174.754,231.06389 174.746,231.06389 C173.789,231.06389 173.008,230.29389 172.996,229.33389 C172.983,228.36689 173.757,227.57289 174.724,227.56089 L175.892,227.54589 C176.849,227.53589 177.653,228.30889 177.666,229.27489 Z M171.828,229.34889 C171.841,230.31689 171.066,231.11089 170.1,231.12289 L168.932,231.13789 C168.924,231.13789 168.917,231.13789 168.91,231.13789 C167.953,231.13789 167.171,230.36789 167.158,229.40789 C167.147,228.44189 167.921,227.64789 168.888,227.63489 L170.055,227.61989 C170.991,227.60989 171.815,228.38289 171.828,229.34889 Z M165.992,229.42189 C166.003,230.38989 165.229,231.18289 164.262,231.19589 L163.095,231.20989 C163.088,231.20989 163.08,231.20989 163.072,231.20989 C162.116,231.20989 161.334,230.44089 161.322,229.48089 C161.31,228.51389 162.083,227.72089 163.05,227.70789 L164.218,227.69389 C165.133,227.68389 165.978,228.45589 165.992,229.42189 Z M183.502,229.20089 C183.515,230.16789 182.74,230.96189 181.773,230.97489 L180.606,230.98889 C180.598,230.98889 180.59,230.98889 180.583,230.98889 C179.626,230.98889 178.845,230.21989 178.832,229.26089 C178.821,228.29289 179.595,227.49889 180.562,227.48689 L181.729,227.47189 C182.708,227.46189 183.489,228.23489 183.502,229.20089 Z M218.524,228.75889 C218.536,229.72689 217.762,230.52089 216.795,230.53289 L215.628,230.54789 C215.621,230.54789 215.612,230.54789 215.605,230.54789 C214.649,230.54789 213.867,229.77889 213.854,228.81989 C213.843,227.85189 214.616,227.05789 215.584,227.04589 L216.75,227.03089 C217.707,227.01689 218.512,227.79289 218.524,228.75889 Z M139.535,295.33789 C139.625,294.37389 140.479,293.67889 141.44,293.75389 L142.595,293.85989 C143.559,293.94389 144.272,294.79189 144.188,295.75489 C144.108,296.66689 143.343,297.35489 142.446,297.35489 C142.395,297.35489 142.343,297.35289 142.291,297.34789 L141.119,297.24289 C140.156,297.15489 139.446,296.30089 139.535,295.33789 Z M133.709,294.78089 C133.804,293.81889 134.657,293.11389 135.624,293.20889 L136.776,293.32189 C137.74,293.40989 138.448,294.26289 138.359,295.22689 C138.274,296.13389 137.512,296.81589 136.618,296.81589 C136.563,296.81589 136.508,296.81389 136.454,296.80789 L135.279,296.69589 C134.317,296.59989 133.613,295.74189 133.709,294.78089 Z M127.883,294.16289 C127.988,293.20189 128.863,292.50789 129.813,292.61389 L130.971,292.73889 C131.933,292.83989 132.629,293.70189 132.528,294.66289 C132.434,295.56289 131.673,296.23089 130.79,296.23089 C130.728,296.23089 130.665,296.22789 130.603,296.22089 L129.434,296.09489 C128.473,295.98989 127.778,295.12589 127.883,294.16289 Z M161.674,297.22889 C161.603,298.14489 160.835,298.84189 159.931,298.84189 C159.884,298.84189 159.837,298.83889 159.791,298.83589 L158.62,298.74089 C157.656,298.66089 156.939,297.81589 157.019,296.85189 C157.099,295.88789 157.934,295.17689 158.908,295.24989 L160.067,295.34489 C161.031,295.42089 161.75,296.26389 161.674,297.22889 Z M184.99,299.05589 C184.92,299.97489 184.153,300.67389 183.246,300.67389 C183.201,300.67389 183.156,300.67289 183.111,300.66889 L181.946,300.57989 C180.981,300.50589 180.259,299.66489 180.333,298.69989 C180.407,297.73589 181.25,297.01989 182.212,297.08689 L183.378,297.17589 C184.341,297.24989 185.064,298.09089 184.99,299.05589 Z M179.16,298.61289 C179.088,299.53089 178.321,300.22589 177.417,300.22589 C177.37,300.22589 177.324,300.22389 177.277,300.21989 L176.162,300.13489 L176.31,297.80289 L176.429,296.64089 L177.553,296.72889 C178.518,296.80489 179.237,297.64889 179.16,298.61289 Z M173.332,298.15489 C173.263,299.07289 172.495,299.77189 171.588,299.77189 C171.543,299.77189 171.499,299.77089 171.453,299.76789 L170.282,299.67489 C169.319,299.59889 168.6,298.75489 168.676,297.78989 C168.753,296.82689 169.589,296.11889 170.561,296.18389 L171.719,296.27389 C172.683,296.34789 173.406,297.18989 173.332,298.15489 Z M196.637,299.93189 C196.57,300.85289 195.802,301.55489 194.893,301.55489 C194.85,301.55489 194.806,301.55389 194.763,301.55089 L193.591,301.46289 C192.627,301.38889 191.905,300.54689 191.979,299.58189 C192.052,298.61889 192.888,297.89789 193.858,297.96889 L195.02,298.05689 C195.984,298.12789 196.708,298.96689 196.637,299.93189 Z M145.362,295.86389 C145.447,294.90189 146.296,294.18789 147.257,294.27089 L148.425,294.37089 C149.388,294.45489 150.101,295.30489 150.017,296.26889 C149.937,297.17889 149.172,297.86589 148.274,297.86589 C148.223,297.86589 148.17,297.86389 148.119,297.85989 L146.958,297.75989 C145.994,297.67789 145.28,296.82889 145.362,295.86389 Z M190.816,299.49489 C190.749,300.41489 189.98,301.11689 189.071,301.11689 C189.028,301.11689 188.985,301.11589 188.94,301.11289 L187.775,301.02489 C186.811,300.94989 186.089,300.10889 186.163,299.14489 C186.237,298.17989 187.076,297.45689 188.043,297.53089 L189.198,297.61889 C190.163,297.68989 190.887,298.53089 190.816,299.49489 Z M176.384,296.63789 L176.31,297.80289 L176.251,298.38389 L176.384,296.63789 Z M254.963,304.16289 C254.898,305.08589 254.129,305.78989 253.218,305.78989 C253.176,305.78989 253.134,305.78889 253.092,305.78589 L251.923,305.70289 C250.958,305.63189 250.233,304.79389 250.304,303.82889 C250.374,302.86389 251.212,302.13189 252.177,302.20889 L253.34,302.29289 C254.305,302.36189 255.032,303.19889 254.963,304.16289 Z M249.127,303.74589 C249.062,304.66889 248.293,305.37289 247.382,305.37289 C247.341,305.37289 247.299,305.37189 247.257,305.36889 L246.088,305.28489 C245.124,305.21489 244.398,304.37589 244.469,303.41089 C244.54,302.44689 245.38,301.71489 246.342,301.79189 L247.505,301.87489 C248.47,301.94389 249.196,302.78089 249.127,303.74589 Z M243.293,303.32789 C243.229,304.25089 242.459,304.95589 241.548,304.95589 C241.507,304.95589 241.465,304.95489 241.422,304.95089 L240.254,304.86789 C239.29,304.79789 238.564,303.95789 238.635,302.99389 C238.705,302.02989 239.542,301.29589 240.509,301.37489 L241.67,301.45789 C242.635,301.52689 243.362,302.36389 243.293,303.32789 Z M234.676,300.95589 L235.751,301.03389 L235.714,302.78589 L235.59,304.53289 L234.421,304.44889 C233.457,304.37889 232.731,303.53989 232.802,302.57489 C232.873,301.61089 233.715,300.87689 234.676,300.95589 Z M395.974,35.4598904 C395.974,29.6568904 400.678,24.9528904 406.48,24.9528904 C409.733,24.9528904 412.64,26.4318904 414.566,28.7518904 L475.131,23.2468904 C476.618,23.0228904 489.434,20.8338904 495.032,11.3538904 C492.686,9.56289041 489.928,8.10889041 486.601,7.14889041 C490.609,6.38689041 494.03,6.26089041 496.973,6.64489041 C497.26,5.53889041 497.47,4.36889041 497.565,3.11489041 L511.534,4.17689041 C511.264,7.73389041 510.505,10.9478904 509.372,13.8468904 C518.733,26.5068904 515.772,51.4278904 527.899,56.6208904 C511.075,57.7158904 511.154,38.0998904 503.921,22.9238904 C499.806,27.7568904 494.545,31.1838904 489.409,33.4858904 C492.979,39.2578904 494.414,46.4748904 493.161,54.0508904 C490.749,68.6308904 478.023,85.7218904 449.542,89.9638904 L447.479,76.1068904 C468.519,72.9728904 477.731,61.4778904 479.338,51.7648904 C480.342,45.7018904 478.426,40.3648904 474.3,37.3898904 L418.714,42.4438904 L426.913,61.2418904 L412.061,62.6718904 L404.939,45.8418904 C399.869,45.0948904 395.974,40.7388904 395.974,35.4598904 Z M142.532,1.79789041 C142.532,1.79789041 255.583,-7.34710959 261.128,15.6128904 C220.267,9.77589041 207.132,23.2008904 207.132,23.2008904 C207.132,23.2008904 202.521,23.3518904 196.477,23.4418904 C196.668,24.0578904 196.771,24.7118904 196.771,25.3908904 C196.771,29.0178904 193.832,31.9578904 190.204,31.9578904 C186.577,31.9578904 183.637,29.0178904 183.637,25.3908904 C183.637,24.7268904 183.737,24.0858904 183.92,23.4818904 C180.684,23.4448904 177.59,23.3598904 175.026,23.2008904 C159.265,22.2288904 142.532,1.79789041 142.532,1.79789041 Z M213.729,180.28689 C214.792,179.65589 216.285,180.04189 216.927,181.09289 C217.967,182.85589 218.936,184.58289 219.834,186.31089 C220.01,186.63789 220.104,186.99989 220.104,187.37289 C220.115,188.24889 219.636,189.05489 218.854,189.46289 C218.515,189.63889 218.141,189.73189 217.769,189.73189 C216.904,189.73189 216.111,189.25289 215.701,188.48289 C214.826,186.80189 213.892,185.13189 212.912,183.48589 C212.689,183.12389 212.584,182.70289 212.584,182.27189 C212.596,181.45389 213.017,180.70689 213.729,180.28689 Z M206.992,170.74889 C207.997,169.98989 209.514,170.19889 210.261,171.20389 C211.463,172.79189 212.631,174.42589 213.729,176.05989 C213.997,176.44589 214.125,176.90089 214.125,177.36789 C214.125,178.13889 213.74,178.86289 213.099,179.29389 C212.713,179.56289 212.257,179.69189 211.791,179.69189 C211.02,179.69189 210.285,179.30589 209.853,178.66389 C208.79,177.08789 207.681,175.52389 206.537,174.01689 C206.234,173.60889 206.069,173.12989 206.069,172.61589 C206.069,171.89289 206.408,171.18089 206.992,170.74889 Z M56.176,153.72689 C55.86,153.30589 55.686,152.80389 55.697,152.27889 C55.697,151.55489 56.036,150.88889 56.608,150.45789 C58.161,149.25489 59.784,148.07589 61.43,146.94389 C62.457,146.23089 63.975,146.51089 64.676,147.53889 C64.944,147.92389 65.084,148.37889 65.084,148.84589 C65.095,149.61689 64.71,150.34089 64.068,150.78389 C62.493,151.88189 60.939,153.01389 59.456,154.14689 C59.048,154.47389 58.546,154.63689 58.032,154.63689 C57.297,154.63689 56.631,154.30989 56.176,153.72689 Z M198.539,163.67389 C198.539,163.03089 198.808,162.43589 199.275,161.99189 C200.174,161.13989 201.727,161.18689 202.579,162.08589 C203.945,163.54489 205.265,165.01589 206.548,166.54589 C206.887,166.95389 207.085,167.47889 207.097,168.01689 C207.097,168.71689 206.793,169.38289 206.268,169.82589 C205.849,170.18789 205.312,170.37489 204.762,170.37489 C204.073,170.37489 203.42,170.08289 202.977,169.54589 C201.762,168.10989 200.477,166.67389 199.182,165.29689 C198.761,164.85189 198.539,164.28089 198.539,163.67389 Z M190.099,155.66489 C190.087,155.10389 190.286,154.55489 190.647,154.12289 C191.453,153.18989 192.994,153.06089 193.94,153.86689 C195.446,155.15089 196.928,156.49289 198.365,157.85989 C198.831,158.30289 199.1,158.90989 199.1,159.55189 C199.1,160.15989 198.866,160.73189 198.458,161.16289 C198.002,161.63089 197.407,161.88689 196.765,161.88689 C196.157,161.88689 195.586,161.65389 195.154,161.24489 C193.764,159.92589 192.363,158.66489 190.916,157.41589 C190.402,156.98389 190.099,156.34189 190.099,155.66489 Z M219.368,190.51389 C220.512,189.99989 221.948,190.53689 222.461,191.66989 C223.29,193.50289 224.072,195.34689 224.785,197.18089 C224.901,197.44889 224.948,197.74089 224.948,198.03289 C224.948,199.00189 224.364,199.85389 223.466,200.20389 C223.197,200.30989 222.905,200.35689 222.613,200.35689 C221.644,200.35689 220.792,199.77289 220.442,198.87289 C219.765,197.15689 219.029,195.40589 218.247,193.68989 L218.306,193.57289 L218.212,193.60789 C218.072,193.30389 218.002,192.97789 218.002,192.65089 C218.002,191.73989 218.539,190.89889 219.368,190.51389 Z M224.645,270.10189 C225.591,270.43989 226.209,271.33889 226.197,272.34289 C226.197,272.58789 226.15,272.84589 226.068,273.07889 C225.391,274.99289 224.68,276.86189 223.932,278.63589 C223.57,279.52389 222.73,280.08389 221.784,280.08389 C221.469,280.08389 221.166,280.02489 220.886,279.89789 C220.021,279.54589 219.449,278.70589 219.449,277.76089 C219.449,277.44489 219.507,277.14189 219.625,276.84989 C220.337,275.12189 221.026,273.33589 221.667,271.53789 C222.076,270.34689 223.442,269.68189 224.645,270.10189 Z M226.816,202.79589 C227.423,204.65289 227.995,206.57789 228.51,208.51689 C228.568,208.70289 228.59,208.90189 228.59,209.09989 C228.602,210.16189 227.891,211.09689 226.863,211.37689 C226.665,211.43489 226.466,211.45889 226.255,211.45889 C225.206,211.45889 224.283,210.74589 224.002,209.73089 C223.512,207.90889 222.964,206.06489 222.38,204.25589 C222.298,204.01089 222.251,203.76589 222.263,203.50789 C222.263,202.50489 222.917,201.61589 223.862,201.31289 C225.065,200.91589 226.42,201.60489 226.816,202.79589 Z M232.222,238.00789 C232.21,240.00389 232.128,242.01189 232,243.96189 C231.93,245.18789 230.903,246.14489 229.677,246.14489 L229.524,246.14489 C228.31,246.06289 227.354,245.04689 227.342,243.84589 C227.342,243.78589 227.342,243.71689 227.342,243.65789 C227.47,241.77889 227.541,239.86389 227.552,237.96089 C227.575,236.67589 228.614,235.64889 229.887,235.64889 C231.206,235.65989 232.233,236.71189 232.222,238.00789 Z M231.708,226.09989 C231.906,228.04889 232.046,230.05689 232.128,232.04089 L232.128,232.16989 C232.117,233.40689 231.136,234.42289 229.898,234.48189 L229.793,234.48189 C228.544,234.48189 227.517,233.50089 227.458,232.25089 C227.376,230.32489 227.249,228.40989 227.062,226.55389 C227.05,226.47189 227.05,226.39089 227.05,226.30889 C227.05,225.11889 227.96,224.11389 229.163,223.99789 C230.459,223.86889 231.58,224.81489 231.708,226.09989 Z M229.898,214.31989 C230.306,216.23389 230.658,218.20689 230.961,220.17989 C230.983,220.29589 230.996,220.42489 230.996,220.54189 C230.996,221.67489 230.144,222.66589 229.011,222.84189 C228.894,222.86389 228.777,222.86389 228.648,222.86389 C227.517,222.86389 226.524,222.02489 226.349,220.89289 C226.057,219.00089 225.719,217.12089 225.333,215.27689 C225.299,215.11389 225.275,214.96089 225.275,214.80989 C225.275,213.69989 226.057,212.73189 227.131,212.50889 C228.369,212.25189 229.642,213.08089 229.898,214.31989 Z M109.204,131.00689 C109.192,130.92589 109.192,130.84289 109.192,130.76189 C109.18,129.55889 110.079,128.55489 111.27,128.43889 C113.22,128.21689 115.216,128.05389 117.213,127.94789 L117.34,127.94789 C118.579,127.94789 119.606,128.91689 119.664,130.15489 L119.675,130.27189 C119.675,131.52089 118.707,132.54789 117.469,132.60689 C115.555,132.71189 113.64,132.87489 111.772,133.07389 C111.69,133.08489 111.608,133.08489 111.515,133.08489 C110.324,133.08489 109.332,132.18589 109.204,131.00689 Z M149.225,133.96089 C149.225,133.75089 149.248,133.52889 149.306,133.31889 C149.633,132.11589 150.953,131.35689 152.178,131.69589 C154.07,132.20989 155.985,132.79289 157.876,133.43589 C158.833,133.75089 159.475,134.63789 159.475,135.64189 C159.475,135.88689 159.428,136.14389 159.347,136.38889 C159.031,137.33489 158.145,137.97689 157.14,137.97689 C156.883,137.97689 156.638,137.94189 156.393,137.86089 C154.572,137.25389 152.739,136.69289 150.941,136.19089 C149.937,135.91089 149.225,134.99989 149.225,133.96089 Z M137.818,131.45089 C137.818,131.33389 137.83,131.21789 137.854,131.10089 C138.052,129.83989 139.231,128.95189 140.527,129.16189 C142.465,129.47789 144.438,129.83989 146.388,130.27189 C147.461,130.50489 148.245,131.47389 148.232,132.57189 C148.221,132.72389 148.209,132.88689 148.174,133.03789 C147.94,134.11289 146.984,134.88289 145.897,134.88289 C145.734,134.88289 145.559,134.87189 145.396,134.83589 C143.551,134.42789 141.659,134.07689 139.792,133.77389 C138.659,133.59889 137.818,132.59489 137.818,131.45089 Z M47.514,161.53689 C47.093,161.10489 46.859,160.53289 46.859,159.93689 C46.859,159.28389 47.105,158.68789 47.572,158.24489 C48.996,156.87889 50.479,155.52489 51.985,154.22889 C52.93,153.41089 54.472,153.52789 55.277,154.47389 C55.639,154.89389 55.837,155.43089 55.837,155.99089 C55.837,156.66889 55.546,157.32289 55.032,157.76589 C53.619,158.97989 52.195,160.27589 50.805,161.60689 C50.374,162.02689 49.802,162.26089 49.194,162.26089 C48.552,162.26089 47.957,162.00389 47.514,161.53689 Z M160.281,137.63889 C160.281,137.34689 160.339,137.06689 160.444,136.78589 C160.912,135.61889 162.3,135.01189 163.48,135.47889 C165.301,136.20289 167.146,136.99589 168.944,137.83689 C169.784,138.22189 170.31,139.06289 170.298,139.97389 C170.298,140.31189 170.228,140.62689 170.088,140.93089 C169.703,141.75989 168.874,142.28489 167.963,142.28489 C167.625,142.28489 167.297,142.21489 166.983,142.07489 C165.266,141.28089 163.503,140.52189 161.752,139.82189 C160.854,139.45989 160.281,138.60689 160.281,137.63889 Z M126.226,130.25989 L126.226,130.14289 C126.284,128.89389 127.311,127.92489 128.549,127.92489 L128.677,127.92489 C130.626,128.01789 132.635,128.18189 134.619,128.38089 C135.811,128.50889 136.709,129.51289 136.709,130.70289 C136.709,130.78489 136.698,130.86689 136.698,130.94889 C136.57,132.13989 135.577,133.03789 134.374,133.03789 C134.293,133.03789 134.211,133.03789 134.129,133.02689 C132.261,132.82889 130.347,132.68789 128.443,132.59489 C127.195,132.52489 126.226,131.50989 126.226,130.25989 Z M86.566,136.54089 C86.484,136.29589 86.438,136.03889 86.438,135.79389 C86.438,134.78989 87.079,133.90289 88.025,133.57589 C89.87,132.94589 91.796,132.34989 93.723,131.81289 C93.921,131.75489 94.131,131.71889 94.353,131.71889 C95.392,131.71889 96.314,132.43189 96.606,133.43589 C96.665,133.64589 96.689,133.85589 96.689,134.06589 C96.689,135.10489 95.976,136.02689 94.984,136.30789 C93.104,136.83289 91.283,137.40489 89.532,137.99989 C89.287,138.08189 89.029,138.12889 88.784,138.12889 C87.78,138.12889 86.893,137.48689 86.566,136.54089 Z M65.656,146.89689 C65.434,146.53389 65.318,146.11389 65.318,145.69489 C65.318,144.86489 65.726,144.11789 66.427,143.69789 L66.438,143.68589 C68.178,142.63489 69.894,141.64289 71.61,140.71989 C72.708,140.13689 74.179,140.58089 74.774,141.67789 C74.961,142.01689 75.054,142.40189 75.054,142.78689 C75.054,143.65089 74.576,144.43289 73.817,144.82989 C72.183,145.71789 70.536,146.66289 68.937,147.63189 C68.493,147.90089 68.072,148.01689 67.653,148.01689 C66.824,148.01689 66.088,147.59689 65.656,146.89689 Z M75.825,141.14089 C75.673,140.82589 75.603,140.48789 75.603,140.13689 C75.614,139.23789 76.14,138.42089 76.946,138.04689 C78.767,137.19489 80.611,136.38889 82.421,135.65389 C83.588,135.18689 84.989,135.78189 85.457,136.94889 C85.573,137.22989 85.631,137.50989 85.631,137.80189 C85.644,138.77089 85.072,139.62289 84.172,139.98489 C82.456,140.67389 80.693,141.44489 78.931,142.27389 C78.615,142.41389 78.276,142.49489 77.938,142.49489 C77.04,142.49489 76.21,141.95789 75.825,141.14089 Z M221.737,283.06089 C221.737,283.41089 221.656,283.74989 221.504,284.07689 C220.652,285.85089 219.729,287.63789 218.771,289.36389 C218.364,290.11289 217.582,290.57889 216.729,290.57889 C216.343,290.57889 215.946,290.47389 215.608,290.28689 C214.85,289.87889 214.394,289.08489 214.394,288.22089 C214.394,287.84789 214.5,287.46189 214.686,287.11189 C215.608,285.42989 216.496,283.72589 217.301,282.04489 C217.838,280.92489 219.286,280.40989 220.418,280.95989 C221.213,281.34389 221.737,282.17289 221.737,283.06089 Z M97.738,133.14389 C97.691,132.96889 97.68,132.79289 97.68,132.61789 C97.691,131.53289 98.439,130.59789 99.514,130.36489 C101.439,129.93289 103.413,129.55889 105.362,129.23289 C106.659,129.02189 107.837,129.90989 108.047,131.15889 C108.071,131.28689 108.071,131.40389 108.071,131.52089 C108.083,132.67689 107.265,133.65689 106.122,133.84389 C104.242,134.15989 102.35,134.52089 100.517,134.91889 C100.342,134.96489 100.178,134.97689 100.015,134.97689 C98.919,134.97689 97.96,134.20589 97.738,133.14389 Z M120.832,130.11989 C120.832,128.83589 121.883,127.78489 123.167,127.78489 C124.463,127.78489 125.501,128.83589 125.501,130.11989 C125.501,131.41589 124.463,132.45489 123.167,132.45489 L123.167,132.46689 C121.883,132.46689 120.832,131.41589 120.832,130.11989 Z M21.221,198.46489 C21.221,198.17289 21.28,197.88089 21.385,197.61189 C22.097,195.74489 22.868,193.89989 23.673,192.11389 C24.186,190.98089 25.612,190.43189 26.767,190.94589 C27.596,191.31989 28.133,192.15989 28.145,193.07089 C28.145,193.40989 28.074,193.72489 27.934,194.03989 C27.152,195.76789 26.417,197.54189 25.739,199.29389 C25.39,200.18089 24.514,200.78689 23.556,200.78689 C23.264,200.78689 22.985,200.72889 22.716,200.62389 C21.817,200.28589 21.234,199.43389 21.221,198.46489 Z M20.813,269.51789 C19.786,269.51789 18.863,268.82889 18.571,267.84889 C18.011,265.92189 17.498,263.99589 17.042,262.07989 C16.995,261.89489 16.983,261.71889 16.983,261.55589 C16.972,260.45789 17.707,259.52489 18.77,259.26789 C20.031,258.97589 21.292,259.76989 21.583,261.00689 C22.027,262.87489 22.529,264.73189 23.055,266.51789 C23.113,266.72789 23.148,266.93789 23.148,267.15889 C23.159,268.19789 22.471,269.12089 21.479,269.41189 C21.256,269.48389 21.034,269.51789 20.813,269.51789 Z M25.646,280.32889 C25.354,280.44589 25.051,280.51489 24.736,280.51489 C23.801,280.51489 22.95,279.95489 22.587,279.07989 C21.817,277.24589 21.093,275.37889 20.428,273.50989 C20.334,273.25389 20.288,272.98589 20.288,272.70489 C20.299,271.73689 20.918,270.86089 21.84,270.53289 C23.032,270.10189 24.397,270.76689 24.817,271.94689 C25.494,273.81489 26.183,275.57689 26.896,277.27089 C27.012,277.56289 27.071,277.86489 27.071,278.17989 C27.071,279.12589 26.51,279.96689 25.646,280.32889 Z M18.128,258.15789 C16.995,258.15789 16.027,257.35289 15.827,256.24289 C15.489,254.33989 15.186,252.35689 14.94,250.34789 C14.929,250.25389 14.918,250.14989 14.918,250.05589 C14.918,248.87689 15.804,247.88489 16.972,247.74389 C18.256,247.57989 19.412,248.51589 19.563,249.77589 C19.809,251.67889 20.089,253.56989 20.428,255.41389 C20.45,255.55489 20.463,255.69489 20.463,255.82289 C20.463,256.95489 19.657,257.92489 18.536,258.12289 C18.396,258.14689 18.256,258.15789 18.128,258.15789 Z M45.68,307.71889 C45.669,308.37189 45.388,309.00189 44.898,309.43489 C44.466,309.81989 43.918,310.02989 43.345,310.02989 C42.679,310.02989 42.038,309.73789 41.594,309.24689 C40.275,307.75289 38.978,306.21189 37.764,304.68289 C37.426,304.26289 37.251,303.75989 37.251,303.23489 C37.251,302.51189 37.566,301.84589 38.138,301.39089 C39.107,300.61989 40.649,300.79489 41.419,301.77589 C42.599,303.25789 43.835,304.72989 45.085,306.14189 C45.482,306.57389 45.68,307.13489 45.68,307.71889 Z M37.426,300.45589 C37.042,300.74789 36.574,300.88789 36.084,300.88789 C35.325,300.88789 34.613,300.52689 34.181,299.90689 C33.048,298.31989 31.927,296.65089 30.853,294.95689 C30.62,294.57189 30.492,294.13989 30.492,293.68489 C30.503,292.89089 30.912,292.15589 31.588,291.73589 C32.64,291.05789 34.146,291.40789 34.811,292.45889 C35.815,294.04689 36.866,295.62289 37.94,297.15189 C38.267,297.60789 38.419,298.07389 38.419,298.55289 C38.419,299.31289 38.045,300.02389 37.426,300.45589 Z M30.982,290.71889 C30.643,290.91789 30.247,291.02289 29.85,291.02289 C29.008,291.02289 28.226,290.55689 27.807,289.82089 C26.837,288.06989 25.915,286.28289 25.051,284.52089 C24.899,284.20389 24.817,283.85489 24.817,283.50489 C24.817,282.61689 25.331,281.78889 26.125,281.40389 C27.27,280.84189 28.705,281.34389 29.253,282.47789 C30.071,284.16989 30.958,285.86289 31.893,287.54389 C32.08,287.88289 32.185,288.26789 32.185,288.65389 C32.196,289.51689 31.741,290.31089 30.982,290.71889 Z M53.888,315.97189 C53.888,316.55589 53.678,317.11589 53.28,317.54889 C52.837,318.03889 52.206,318.31989 51.553,318.31989 C50.969,318.31989 50.421,318.09689 49.989,317.71189 C48.517,316.38089 47.07,315.00289 45.68,313.58989 C45.237,313.14689 45.003,312.56289 45.003,311.94389 C45.003,311.31489 45.248,310.73089 45.691,310.28589 C46.58,309.40989 48.12,309.42289 48.996,310.30989 C50.339,311.66389 51.728,312.98389 53.117,314.25589 C53.607,314.68889 53.888,315.31889 53.888,315.97189 Z M14.368,244.40589 C14.228,242.43289 14.146,240.42389 14.123,238.46289 C14.135,237.11889 15.139,236.10389 16.423,236.09289 C17.719,236.09289 18.77,237.11889 18.793,238.39189 C18.816,240.31889 18.899,242.24589 19.026,244.09089 C19.026,244.14889 19.026,244.21789 19.026,244.27689 C19.026,245.48989 18.07,246.49489 16.855,246.57689 L16.691,246.58789 C15.466,246.58789 14.45,245.63089 14.368,244.40589 Z M39.738,170.24589 C39.201,169.80289 38.897,169.13689 38.897,168.43689 C38.909,167.89989 39.096,167.37389 39.446,166.95389 C40.73,165.42489 42.061,163.91889 43.392,162.49489 C44.232,161.58389 45.785,161.52589 46.696,162.37789 C47.164,162.80889 47.432,163.40489 47.432,164.05889 C47.443,164.65389 47.222,165.22589 46.801,165.66989 C45.506,167.07089 44.232,168.50689 43.031,169.95389 C42.587,170.47989 41.933,170.78289 41.232,170.78289 C40.696,170.78289 40.159,170.59689 39.738,170.24589 Z M26.008,187.81789 C26.008,187.45489 26.102,187.08089 26.265,186.75489 C27.199,184.95689 28.157,183.22889 29.148,181.54789 C29.779,180.48489 31.273,180.08889 32.348,180.71889 C33.072,181.13889 33.504,181.92089 33.504,182.76189 C33.492,183.17089 33.386,183.56789 33.176,183.91789 C32.231,185.52889 31.296,187.19789 30.409,188.90289 C30.013,189.68489 29.219,190.16389 28.343,190.16389 C27.97,190.16389 27.596,190.08189 27.27,189.90689 C26.487,189.49789 25.996,188.70389 26.008,187.81789 Z M31.927,177.81189 C31.915,177.34489 32.056,176.88889 32.313,176.50489 C33.41,174.85789 34.566,173.22389 35.756,171.63489 C36.492,170.64389 38.022,170.40989 39.014,171.15689 C39.609,171.60089 39.96,172.30189 39.96,173.02489 C39.96,173.53889 39.796,174.01689 39.493,174.42589 C38.337,175.96689 37.228,177.53189 36.2,179.08489 C35.768,179.73789 35.044,180.12289 34.262,180.12289 C33.795,180.12289 33.352,179.99489 32.967,179.73789 C32.313,179.30589 31.927,178.58189 31.927,177.81189 Z M14.193,232.61389 L14.193,232.49589 C14.275,230.49989 14.403,228.49189 14.59,226.54289 C14.707,225.27089 15.827,224.32389 17.135,224.44189 C18.326,224.55789 19.237,225.53789 19.249,226.74089 C19.249,226.82289 19.249,226.90489 19.237,226.98689 C19.061,228.85389 18.933,230.76989 18.863,232.68389 C18.805,233.93289 17.79,234.92489 16.528,234.92489 L16.435,234.91289 C15.197,234.86689 14.205,233.86289 14.193,232.61389 Z M17.638,209.53189 C17.638,209.34489 17.661,209.14689 17.707,208.94789 C18.222,207.02289 18.781,205.09589 19.389,203.22889 C19.774,202.03689 21.116,201.33689 22.331,201.72189 C23.311,202.04889 23.953,202.94789 23.941,203.97489 C23.941,204.20889 23.907,204.44289 23.836,204.66389 C23.241,206.48589 22.705,208.32889 22.226,210.13989 C21.956,211.16689 21.023,211.87789 19.973,211.87789 C19.774,211.87789 19.563,211.85589 19.376,211.80889 C18.338,211.52889 17.625,210.59489 17.638,209.53189 Z M15.279,220.98589 C15.279,220.86789 15.29,220.75189 15.303,220.63489 C15.595,218.66189 15.945,216.68889 16.353,214.74989 C16.598,213.52489 17.859,212.68489 19.108,212.94189 C20.183,213.16289 20.976,214.12089 20.965,215.22989 C20.965,215.38089 20.953,215.54489 20.918,215.69689 C20.544,217.56489 20.205,219.44489 19.926,221.31189 C19.75,222.45589 18.758,223.30889 17.614,223.30889 C17.498,223.30889 17.38,223.29689 17.264,223.28489 C16.143,223.10989 15.279,222.12889 15.279,220.98589 Z M105.42,341.65589 C105.42,341.80889 105.409,341.97289 105.374,342.12389 C105.164,343.22089 104.206,344.02789 103.085,344.02789 C102.945,344.02789 102.793,344.01589 102.642,343.98089 C100.728,343.61889 98.766,343.18689 96.829,342.70789 C95.789,342.45089 95.053,341.52989 95.053,340.46589 C95.042,340.26789 95.065,340.06989 95.111,339.88289 C95.416,338.64489 96.711,337.86289 97.949,338.17789 C99.747,338.62089 101.626,339.02989 103.518,339.40389 C104.603,339.60189 105.409,340.54689 105.42,341.65589 Z M151.641,339.76489 C151.688,339.95189 151.712,340.15089 151.712,340.34889 C151.712,341.41089 150.988,342.33389 149.949,342.60289 C148.034,343.08189 146.073,343.52589 144.135,343.89889 C143.983,343.93389 143.832,343.94489 143.691,343.94489 L143.68,343.94489 C142.57,343.94489 141.613,343.15189 141.392,342.05389 C141.368,341.90189 141.356,341.73889 141.356,341.58689 C141.368,340.47789 142.161,339.53189 143.236,339.32189 C145.034,338.97189 146.866,338.56389 148.711,338.09589 L148.816,338.10789 L148.805,338.07289 C150.042,337.75789 151.338,338.53889 151.641,339.76489 Z M162.721,336.04089 C162.814,336.29789 162.861,336.56789 162.861,336.83489 C162.873,337.81589 162.266,338.70289 161.344,339.04189 C159.463,339.74189 157.561,340.39589 155.693,340.97989 C155.471,341.04989 155.237,341.08489 154.992,341.08489 C153.965,341.08489 153.078,340.43089 152.774,339.44989 C152.704,339.21689 152.657,338.98389 152.657,338.74989 C152.657,337.72189 153.323,336.83489 154.303,336.52089 C156.09,335.95889 157.911,335.33989 159.708,334.66389 C160.888,334.23289 162.277,334.87389 162.721,336.04089 Z M173.322,331.11489 C173.485,331.44189 173.567,331.81589 173.567,332.17689 C173.567,333.06489 173.077,333.85889 172.283,334.25489 C170.438,335.18889 168.641,336.03089 166.878,336.79989 C166.586,336.92889 166.27,336.99889 165.943,336.99889 C165.021,336.99889 164.18,336.44889 163.806,335.59789 C163.667,335.28189 163.608,334.96789 163.608,334.62889 C163.621,333.71789 164.169,332.88889 165.009,332.52789 L165.009,332.51489 C166.784,331.74489 168.465,330.95089 170.1,330.12189 C170.508,329.92389 170.871,329.82989 171.232,329.82989 C172.119,329.82989 172.914,330.32089 173.322,331.11489 Z M140.247,342.23989 C140.258,342.34489 140.271104,342.43889 140.271104,342.54489 C140.282,343.71189 139.418,344.71589 138.25,344.87989 C136.278,345.14789 134.28,345.36989 132.319,345.53289 C132.261,345.54389 132.192,345.54389 132.121,345.54389 C130.931,345.54389 129.902,344.59989 129.796905,343.39689 L129.796905,343.22089 C129.786,342.00689 130.732,340.97989 131.934,340.87389 C133.803,340.72289 135.717,340.51289 137.608,340.25489 C138.881,340.08089 140.072,340.99189 140.247,342.23989 Z M192.574,317.96789 C192.913,318.37789 193.111,318.91389 193.1,319.45089 C193.1,320.15189 192.795,320.80589 192.247,321.24889 C190.694,322.52189 189.107,323.74689 187.53,324.90389 C187.133,325.19589 186.654,325.35889 186.153,325.35889 C185.417,325.34689 184.705,324.99689 184.272,324.40289 C183.969,323.99189 183.818,323.50189 183.818,323.00089 C183.829,322.26589 184.179,321.56489 184.774,321.131888 C186.28,320.03489 187.775,318.87889 189.234,317.68889 L189.305,317.65389 L189.292,317.64289 C190.25,316.84789 191.792,316.99889 192.574,317.96789 Z M183.304,325.06689 C183.549,325.44089 183.689,325.87289 183.689,326.31689 C183.689,327.12089 183.292,327.85789 182.626,328.30089 C180.935,329.39789 179.229,330.44889 177.537,331.41789 C177.186,331.61589 176.777,331.72189 176.369,331.72189 C175.541,331.72189 174.77,331.27889 174.349,330.55389 C174.151,330.20389 174.034,329.80789 174.034,329.39789 C174.034,328.55789 174.478,327.78689 175.202,327.36689 C176.848,326.42089 178.482,325.41689 180.082,324.37789 C181.12,323.70089 182.626,324.01689 183.304,325.06689 Z M83.169,334.86289 C83.157,335.17689 83.098,335.48089 82.97,335.77289 C82.608,336.63689 81.756,337.18489 80.822,337.18489 C80.506,337.18489 80.203,337.11489 79.9,336.98689 C78.089,336.20389 76.28,335.36389 74.506,334.47789 C73.711,334.07989 73.221,333.28589 73.209,332.40989 C73.209,332.04889 73.292,331.67489 73.455,331.34789 C74.016,330.22689 75.462,329.73689 76.596,330.29789 C78.323,331.16189 80.063,331.97889 81.756,332.70189 C82.619,333.07589 83.169,333.92789 83.169,334.86289 Z M94.096,338.87789 C94.096,339.11189 94.062,339.34589 93.991,339.56689 C93.688,340.55989 92.789,341.21289 91.761,341.21289 C91.528,341.21289 91.294,341.17789 91.072,341.11889 C89.181,340.53589 87.289,339.89389 85.421,339.20489 C84.511,338.86589 83.893,337.97989 83.893,337.01089 C83.893,336.73089 83.951,336.46089 84.044,336.20389 C84.477,335.03689 85.854,334.38389 87.044,334.82689 C88.784,335.46889 90.605,336.07689 92.45,336.64889 C93.431,336.95189 94.096,337.83989 94.096,338.87789 Z M201.014,309.90089 C201.458,310.33289 201.703,310.91589 201.715,311.54689 C201.727,312.16589 201.482,312.76189 201.05,313.20489 C199.672,314.60589 198.236,315.99589 196.753,317.35089 C196.321,317.73589 195.773,317.95689 195.189,317.95689 C194.535,317.95689 193.904,317.67689 193.461,317.19789 C193.064,316.76689 192.854,316.20489 192.842,315.63289 C192.842,314.96889 193.123,314.34989 193.601,313.90589 L193.601,313.89489 C195.025,312.59889 196.391,311.27989 197.71,309.93589 C198.586,309.03689 200.127,309.02589 201.014,309.90089 Z M128.643,343.46589 C128.643,344.79789 127.649,345.82489 126.377,345.87089 C125.314,345.89489 124.241,345.90689 123.167,345.91789 C122.244,345.90689 121.333,345.90689 120.411,345.88289 C119.163,345.84789 118.135,344.79789 118.135,343.54789 C118.169,342.22889 119.209,341.21289 120.47,341.21289 C120.551,341.21289 120.598,341.21289 120.645,341.21289 C122.478,341.25989 124.369,341.24789 126.237,341.20089 C127.58,341.20089 128.607,342.19389 128.643,343.46589 Z M116.979,343.24489 C116.979,343.30289 116.979,343.36189 116.968,343.41989 C116.874,344.63389 115.858,345.57989 114.644,345.57989 L114.469,345.56889 C112.519,345.41689 110.522,345.20589 108.526,344.93789 C107.37,344.78589 106.495,343.78089 106.507,342.61389 C106.507,342.50989 106.519,342.41589 106.53,342.31089 C106.693,341.06189 107.86,340.13889 109.157,340.31489 C111.037,340.55989 112.939,340.76989 114.831,340.90989 C116.033,341.01489 116.979,342.03089 116.979,343.24489 Z M72.742,329.63189 C72.742,330.03989 72.637,330.44889 72.439,330.79889 C72.02,331.52389 71.248,331.97889 70.407,331.97889 C69.999,331.97889 69.602,331.87289 69.252,331.67489 C67.559,330.70589 65.843,329.66689 64.162,328.57989 C63.484,328.14989 63.088,327.41289 63.088,326.60889 C63.088,326.16389 63.216,325.73289 63.461,325.35889 C64.139,324.30889 65.632,323.98189 66.684,324.65789 C68.272,325.67389 69.906,326.67789 71.564,327.61289 C72.287,328.03189 72.742,328.80289 72.742,329.63189 Z M62.947,323.35089 C62.936,323.84089 62.784,324.30889 62.504,324.69389 C62.061,325.30089 61.359,325.66189 60.612,325.66189 C60.111,325.66189 59.644,325.50989 59.247,325.21789 C57.647,324.06389 56.059,322.84889 54.507,321.58789 C53.97,321.15589 53.654,320.50189 53.643,319.80189 C53.643,319.25289 53.83,318.72789 54.168,318.30689 C54.951,317.35089 56.491,317.18589 57.449,317.96789 C58.908,319.14889 60.425,320.31589 61.979,321.43689 C62.586,321.87989 62.947,322.59189 62.947,323.35089 Z M387.754,281.97489 C387.451,282.10389 387.135,282.17289 386.808,282.17289 C385.886,282.17289 385.045,281.63589 384.671,280.79589 L384.671,280.78389 C383.819,278.89289 383.073,277.05989 382.396,275.27389 C382.278,274.99289 382.231,274.70089 382.231,274.40989 C382.244,273.44089 382.839,272.60089 383.737,272.26189 C384.905,271.80589 386.307,272.43689 386.75,273.60389 C387.427,275.36689 388.151,277.12989 388.91,278.82289 L388.793,278.95089 L388.933,278.88089 C389.073,279.19689 389.143,279.51189 389.143,279.85089 C389.132,280.75989 388.595,281.60189 387.754,281.97489 Z M393.335,292.23689 C392.973,292.44789 392.564,292.56389 392.155,292.56389 C391.326,292.56389 390.556,292.11989 390.136,291.40789 C389.132,289.68089 388.162,287.92989 387.264,286.17789 C387.089,285.83989 386.995,285.47689 386.995,285.11489 C386.995,284.22889 387.485,283.43389 388.268,283.02589 C389.377,282.45289 390.836,282.93189 391.408,284.04089 C392.284,285.73489 393.195,287.39289 394.164,289.04989 C394.374,289.40089 394.479,289.79689 394.49,290.20589 C394.49,291.03489 394.047,291.81789 393.335,292.23689 Z M400.013,301.82189 C399.604,302.12589 399.113,302.28889 398.611,302.28889 C397.865,302.28889 397.188,301.93989 396.744,301.34389 C395.541,299.74389 394.385,298.10989 393.3,296.47489 C393.043,296.07789 392.903,295.63389 392.914,295.15589 C392.914,294.38589 393.312,293.66189 393.953,293.22989 C394.993,292.54089 396.511,292.84489 397.188,293.88289 C398.25,295.48289 399.358,297.04689 400.479,298.55289 C400.783,298.96189 400.946,299.44089 400.946,299.95389 C400.946,300.70089 400.608,301.37789 400.013,301.82189 Z M408.431,308.91989 C408.431,309.57389 408.161,310.16989 407.695,310.61389 C407.263,311.00989 406.69,311.23289 406.096,311.23289 C405.453,311.23289 404.834,310.96289 404.391,310.49689 C403.025,309.03689 401.693,307.53089 400.445,306.02589 C400.095,305.61589 399.896,305.07889 399.896,304.54189 C399.884,303.84189 400.2,303.18789 400.737,302.73289 C401.682,301.93989 403.224,302.07889 404.017,303.03589 C405.242,304.48489 406.504,305.92089 407.8,307.30989 C408.208,307.75289 408.441,308.32489 408.431,308.91989 Z M382.641,271.25689 C381.625,271.25689 380.726,270.60389 380.422,269.62189 C379.815,267.75489 379.266,265.82789 378.765,263.89089 C378.718,263.70389 378.694,263.50589 378.694,263.30789 C378.694,262.24389 379.406,261.32289 380.446,261.05289 C381.672,260.73889 382.967,261.50889 383.282,262.72389 C383.772,264.57889 384.287,266.36589 384.836,268.12889 L384.777,268.23389 L384.858,268.20989 C384.94,268.43189 384.976,268.66589 384.976,268.89989 C384.987,269.92689 384.334,270.82489 383.353,271.14089 C383.119,271.21089 382.886,271.25689 382.641,271.25689 Z M585.993,226.88089 C585.807,224.98989 585.573,223.08689 585.293,221.21889 C585.27,221.10189 585.27,220.97389 585.27,220.85689 C585.27,219.71189 586.122,218.73189 587.255,218.55789 C588.526,218.36989 589.718,219.26889 589.904,220.51889 C590.208,222.49189 590.454,224.48889 590.641,226.43789 C590.652,226.51889 590.652,226.60089 590.652,226.67189 C590.641,227.87289 589.729,228.86589 588.538,228.98289 C588.457,228.99389 588.387,228.99389 588.317,228.99389 C587.103,228.99389 586.109,228.08389 585.993,226.88089 Z M386.54,189.52189 C386.54,189.14789 386.622,188.78589 386.785,188.45889 C387.672,186.69689 388.618,184.93289 389.61,183.20589 C390.217,182.13189 391.712,181.72289 392.798,182.34189 C393.521,182.76189 393.966,183.53189 393.966,184.37289 C393.966,184.78189 393.859,185.17789 393.661,185.52889 C392.739,187.13989 391.841,188.79789 391,190.46789 C390.556,191.34289 389.762,191.83389 388.875,191.83389 C388.501,191.83389 388.151,191.75089 387.824,191.58789 C387.03,191.19089 386.54,190.39789 386.54,189.52189 Z M407.765,163.01989 C407.332,162.57589 407.087,161.98089 407.1,161.36189 C407.111,160.73189 407.356,160.14789 407.8,159.71589 C409.201,158.33789 410.672,156.98389 412.178,155.66489 C413.111,154.84689 414.653,154.95189 415.471,155.88589 C415.844,156.30689 416.042,156.84289 416.055,157.40389 C416.055,158.08089 415.763,158.72289 415.26,159.17789 C413.824,160.42789 412.423,161.73589 411.068,163.05489 C410.625,163.48689 410.053,163.71989 409.435,163.71989 C408.805,163.71989 408.208,163.47489 407.765,163.01989 Z M425.803,148.23889 C425.568,147.87789 425.452,147.45689 425.452,147.03689 C425.441,146.20789 425.86,145.46089 426.562,145.02889 C428.289,143.96689 430.029,142.94989 431.722,142.02889 C432.83,141.43289 434.29,141.87689 434.886,142.96189 C435.073,143.30089 435.165,143.68589 435.165,144.07189 C435.178,144.93589 434.71,145.71789 433.952,146.13789 C432.271,147.04789 430.612,148.01689 429.013,148.99789 C428.639,149.23189 428.22,149.34789 427.787,149.34789 C426.97,149.34789 426.224,148.93989 425.803,148.23889 Z M392.342,179.37689 C392.342,178.93189 392.471,178.50089 392.716,178.12689 C393.802,176.44589 394.946,174.79989 396.101,173.22389 C396.825,172.21889 398.355,171.97389 399.358,172.70989 C399.966,173.15389 400.316,173.83089 400.316,174.57789 C400.327,175.07989 400.164,175.56989 399.873,175.97889 C398.752,177.50889 397.666,179.08489 396.627,180.67189 C396.194,181.33789 395.459,181.73489 394.666,181.73489 C394.222,181.73489 393.778,181.60589 393.404,181.34889 C392.728,180.91689 392.331,180.18189 392.342,179.37689 Z M379.722,259.95589 C378.612,259.95589 377.655,259.17389 377.434,258.07589 C377.049,256.15089 376.71,254.16589 376.43,252.20289 C376.418,252.08689 376.406,251.95789 376.406,251.84189 C376.418,250.70989 377.282,249.71689 378.414,249.56589 C379.687,249.36689 380.877,250.28889 381.053,251.53889 C381.321,253.41789 381.647,255.32089 382.021,257.16489 C382.045,257.31889 382.068,257.48189 382.068,257.63289 C382.057,258.74189 381.263,259.69789 380.188,259.90889 C380.025,259.94589 379.874,259.95589 379.722,259.95589 Z M416.369,155.13889 C416.055,154.71889 415.879,154.21689 415.879,153.69189 C415.879,152.96789 416.206,152.30189 416.777,151.85889 C418.318,150.65589 419.93,149.45289 421.564,148.30889 C422.592,147.59689 424.109,147.86589 424.822,148.89289 C425.103,149.28989 425.241,149.75689 425.241,150.24689 C425.23,150.99489 424.857,151.70689 424.238,152.13889 C422.686,153.22389 421.144,154.36789 419.65,155.53589 C419.241,155.86289 418.739,156.02689 418.214,156.02689 C417.49,156.02689 416.824,155.69889 416.369,155.13889 Z M375.752,246.27289 C375.589,244.32289 375.472,242.32589 375.402,240.31889 C375.391,238.98889 376.383,237.96089 377.666,237.91389 C379.01,237.91389 380.037,238.90589 380.072,240.17889 C380.13,242.08089 380.248,244.00789 380.411,245.87589 L380.411,246.05189 C380.422,247.26589 379.488,248.29289 378.285,248.39789 C378.216,248.40889 378.146,248.40889 378.075,248.40889 C376.873,248.40889 375.857,247.47589 375.752,246.27289 Z M375.378,234.42289 C375.425,232.37989 375.519,230.37189 375.67,228.40989 C375.764,227.13789 376.884,226.15689 378.181,226.26189 C379.395,226.35589 380.34,227.37089 380.34,228.58589 L380.328,228.75989 C380.177,230.68789 380.083,232.60189 380.048,234.46989 C380.014,235.73089 378.974,236.74689 377.713,236.74689 L377.666,236.74689 C376.383,236.72289 375.378,235.69589 375.378,234.42289 Z M378.449,211.35389 C378.449,211.15589 378.473,210.95589 378.52,210.77089 L378.52,210.75789 L378.555,210.62989 C379.021,208.76189 379.547,206.85889 380.119,205.01389 C380.493,203.81289 381.823,203.09989 383.037,203.47389 C384.018,203.77689 384.684,204.67489 384.684,205.70189 C384.684,205.93689 384.648,206.16989 384.579,206.39289 C384.018,208.24789 383.517,210.05789 383.061,211.85589 L382.874,211.84389 L383.061,211.89089 C382.792,212.92989 381.87,213.66489 380.796,213.66489 C380.598,213.66489 380.411,213.64289 380.224,213.59589 C379.196,213.33789 378.461,212.41489 378.449,211.35389 Z M376.277,222.77189 C376.277,222.67789 376.289,222.58489 376.301,222.47989 C376.559,220.49489 376.884,218.52189 377.247,216.59489 L377.247,216.58389 C377.492,215.34689 378.683,214.48289 379.979,214.72789 C381.088,214.93789 381.893,215.91789 381.882,217.05089 C381.87,217.19189 381.858,217.31989 381.835,217.45889 C381.474,219.35089 381.169,221.24189 380.924,223.07489 C380.772,224.25489 379.78,225.11889 378.612,225.11889 C378.508,225.11889 378.403,225.11889 378.297,225.10689 C377.142,224.94389 376.267,223.95089 376.277,222.77189 Z M381.893,200.16989 C381.893,199.90089 381.939,199.61989 382.033,199.36389 L382.091,199.23589 C382.757,197.43689 383.492,195.61589 384.263,193.85289 C384.753,192.69689 386.178,192.13689 387.333,192.63889 C388.197,193.01189 388.746,193.86389 388.734,194.79889 C388.734,195.11389 388.665,195.41789 388.536,195.70889 C387.801,197.42589 387.1,199.16489 386.458,200.89389 L386.33,200.95089 L386.411,200.98689 C386.072,201.89689 385.197,202.51589 384.228,202.51589 C383.948,202.51589 383.68,202.46889 383.411,202.36389 C382.501,202.02589 381.882,201.14989 381.893,200.16989 Z M400.071,171.78789 C399.534,171.34389 399.22,170.68989 399.22,169.98989 C399.22,169.45289 399.405,168.92689 399.756,168.50689 C400.993,166.98889 402.313,165.47089 403.655,163.99989 C404.496,163.08989 406.037,163.01989 406.947,163.86089 C407.438,164.30389 407.718,164.93489 407.706,165.58889 C407.706,166.17189 407.497,166.71989 407.1,167.15289 C405.861,168.50689 404.612,169.94289 403.41,171.41389 C402.92,172.00989 402.254,172.32489 401.555,172.32489 C401.017,172.32489 400.491,172.13789 400.071,171.78789 Z M555.242,314.07989 C555.627,314.51289 555.837,315.07289 555.837,315.65689 C555.826,316.31089 555.545,316.94189 555.055,317.37289 C553.584,318.69289 552.043,319.98889 550.49,321.22589 C550.082,321.55289 549.567,321.73889 549.042,321.73889 C548.319,321.73889 547.653,321.41189 547.222,320.85289 C546.894,320.45489 546.707,319.94189 546.707,319.41589 C546.695,318.69289 547.022,318.02789 547.583,317.57189 C549.055,316.40489 550.501,315.17889 551.892,313.94189 C552.942,313.00589 554.413,313.15789 555.242,314.07989 Z M589.461,255.71889 C589.461,255.85889 589.438,255.99789 589.414,256.12689 L589.391,256.24289 C589.053,258.14689 588.645,260.08389 588.199,261.97589 C587.943,263.02689 587.009,263.76189 585.924,263.76189 C585.748,263.76189 585.562,263.73889 585.387,263.70389 C584.324,263.44789 583.576,262.50089 583.589,261.41589 C583.589,261.23989 583.611,261.06589 583.658,260.88989 C584.102,259.02289 584.487,257.16489 584.826,255.29789 C585.048,254.04789 586.25,253.18589 587.535,253.41789 C588.645,253.61589 589.461,254.58489 589.461,255.71889 Z M416.859,316.96489 C416.859,317.52489 416.661,318.07289 416.287,318.49389 C415.844,319.01989 415.201,319.31189 414.513,319.31189 C413.965,319.31189 413.415,319.11389 412.995,318.74989 C411.489,317.45489 410.006,316.10089 408.582,314.74589 C408.127,314.30289 407.858,313.68389 407.858,313.05289 C407.869,312.44689 408.092,311.87389 408.513,311.44289 C409.376,310.54389 410.917,310.50889 411.815,311.37289 C413.183,312.69189 414.606,313.97589 416.042,315.20089 C416.556,315.64589 416.848,316.28789 416.859,316.96489 Z M591.143,236.85189 L591.131,238.34689 C591.106,239.61889 590.057,240.64689 588.796,240.64689 L588.761,240.64689 C587.5,240.62189 586.473,239.59489 586.461,238.33389 C586.461,237.80889 586.473,237.32989 586.473,236.85189 C586.473,235.41489 586.437,233.97989 586.379,232.56789 L586.379,232.44889 C586.391,231.20089 587.371,230.19789 588.62,230.15089 C589.975,230.15089 590.99,231.13089 591.049,232.37989 C591.106,233.83989 591.131,235.34589 591.143,236.85189 Z M586.565,217.45889 C585.468,217.45889 584.499,216.67689 584.277,215.60389 C583.893,213.73589 583.437,211.86689 582.958,210.04589 C582.899,209.85989 582.876,209.67189 582.876,209.47389 C582.865,208.39989 583.576,207.46589 584.604,207.19789 C585.83,206.85889 587.138,207.62889 587.464,208.84389 C587.979,210.75789 588.444,212.71989 588.854,214.64589 C588.877,214.79689 588.9,214.96089 588.9,215.11389 C588.9,216.22289 588.118,217.17889 587.045,217.41189 C586.881,217.43689 586.718,217.45889 586.565,217.45889 Z M571.411,298.31989 C571.399,298.80989 571.26,299.27789 570.968,299.67389 L570.979,299.67389 C569.777,301.33089 568.574,302.91989 567.36,304.42589 C566.917,304.97489 566.251,305.28989 565.54,305.28989 C565.014,305.28989 564.488,305.11389 564.08,304.77589 C563.52,304.32189 563.205,303.64389 563.205,302.93089 C563.216,302.40589 563.391,301.90489 563.729,301.49589 C564.896,300.03589 566.053,298.50589 567.174,296.95289 C567.897,295.93789 569.427,295.69289 570.431,296.41589 C571.05,296.86089 571.411,297.57289 571.411,298.31989 Z M577.669,288.46689 C577.669,288.86389 577.564,289.27189 577.366,289.62189 C576.397,291.36189 575.357,293.07789 574.308,294.73689 C573.875,295.41289 573.14,295.82189 572.334,295.82189 C571.89,295.82189 571.458,295.69289 571.085,295.44789 C570.408,295.02789 569.999,294.29189 569.999,293.48689 C569.999,293.04289 570.128,292.61089 570.372,292.22589 C571.436,290.54489 572.416,288.92089 573.291,287.34589 C573.897,286.25889 575.381,285.82789 576.478,286.44689 C577.202,286.85589 577.658,287.62589 577.669,288.46689 Z M586.753,267.03089 C586.753,267.27689 586.718,267.50989 586.646,267.73289 C586.099,269.59989 585.468,271.50189 584.791,273.39389 C584.452,274.32689 583.576,274.94689 582.596,274.94689 C582.328,274.94689 582.059,274.90089 581.803,274.80689 C580.88,274.46789 580.261,273.59189 580.261,272.62289 C580.261,272.34289 580.308,272.07389 580.401,271.81889 C581.056,269.99589 581.65,268.17589 582.177,266.40089 C582.526,265.19789 583.868,264.46189 585.082,264.82389 C586.063,265.11589 586.74,266.00389 586.753,267.03089 Z M563.321,305.66289 C563.812,306.10689 564.092,306.72589 564.103,307.39189 C564.103,307.96389 563.894,308.52389 563.496,308.96689 C562.176,310.42589 560.799,311.88589 559.397,313.28689 C558.954,313.71889 558.37,313.96389 557.74,313.96389 C557.122,313.96389 556.525,313.71889 556.094,313.27589 C555.65,312.83189 555.405,312.24789 555.405,311.62889 C555.405,310.99889 555.65,310.41489 556.094,309.97189 C557.448,308.62789 558.768,307.23889 560.028,305.83789 C560.857,304.91589 562.398,304.83389 563.321,305.66289 Z M582.807,278.02889 C582.807,278.34489 582.736,278.64789 582.62,278.93989 C581.849,280.75989 581.009,282.58189 580.145,284.35689 C579.748,285.16189 578.941,285.66389 578.043,285.66389 C577.681,285.66389 577.342,285.58289 577.015,285.41889 C576.222,285.03289 575.708,284.19389 575.708,283.30589 C575.708,282.95589 575.789,282.61689 575.953,282.30189 C576.782,280.59689 577.576,278.85789 578.322,277.11789 C578.802,275.96289 580.214,275.39089 581.382,275.88089 C582.246,276.24289 582.807,277.09489 582.807,278.02889 Z M590.886,244.12489 L590.886,244.29989 C590.745,246.28489 590.559,248.28089 590.313,250.23189 C590.173,251.39889 589.169,252.28489 588.001,252.28489 C587.907,252.28489 587.803,252.27489 587.709,252.26289 C586.542,252.12189 585.666,251.12989 585.666,249.96189 C585.666,249.85789 585.666,249.76389 585.679,249.65889 C585.911,247.79089 586.099,245.87589 586.228,243.98489 C586.31,242.75889 587.324,241.80189 588.551,241.80189 L588.714,241.81389 C589.917,241.89489 590.873,242.90989 590.886,244.12489 Z M457.71,338.66789 C457.71,338.88989 457.687,339.10089 457.628,339.31089 C457.348,340.32589 456.426,341.02689 455.375,341.02689 C455.165,341.02689 454.954,341.00289 454.756,340.94589 C452.854,340.41989 450.927,339.84789 449.047,339.21689 C448.101,338.90289 447.459,338.01389 447.459,337.01089 C447.448,336.75289 447.494,336.50789 447.576,336.26289 C447.974,335.07289 449.328,334.38389 450.529,334.78089 C452.316,335.38689 454.149,335.93689 455.981,336.43889 C456.986,336.71889 457.698,337.62889 457.71,338.66789 Z M469.116,341.14389 C469.116,341.25989 469.104,341.37689 469.093,341.49289 C468.906,342.63689 467.937,343.46589 466.781,343.46589 C466.665,343.46589 466.536,343.45389 466.419,343.44389 C464.446,343.12889 462.474,342.76589 460.558,342.35789 L460.547,342.35789 C459.473,342.12389 458.702,341.15589 458.702,340.05689 C458.715,339.89389 458.726,339.74189 458.761,339.57889 C459.018,338.35289 460.29,337.52389 461.527,337.79289 C463.466,338.20089 465.321,338.53889 467.144,338.83089 C468.265,339.00689 469.116,339.99889 469.116,341.14389 Z M446.642,335.00189 C446.642,335.29389 446.583,335.58489 446.479,335.85489 C446.129,336.75289 445.275,337.33689 444.307,337.33689 C444.015,337.33689 443.723,337.27889 443.443,337.17389 C441.622,336.44889 439.789,335.65589 437.979,334.81589 C437.15,334.43089 436.613,333.58889 436.624,332.67989 C436.624,332.34089 436.695,332.02489 436.835,331.72189 C437.361,330.58989 438.797,330.05289 439.941,330.57789 C441.622,331.36089 443.385,332.11789 445.171,332.83089 C446.07,333.18089 446.642,334.03289 446.642,335.00189 Z M426.105,324.08589 C426.105,324.55389 425.966,325.00889 425.697,325.39389 C425.254,326.02489 424.541,326.40989 423.771,326.40989 C423.292,326.40989 422.837,326.26989 422.451,325.99989 C420.841,324.90389 419.218,323.72489 417.63,322.51089 C417.035,322.05489 416.708,321.36589 416.708,320.61889 C416.719,320.11589 416.883,319.63889 417.198,319.22989 C417.957,318.23789 419.475,318.03889 420.467,318.79689 C421.95,319.93089 423.479,321.03789 425.021,322.10189 C425.733,322.57989 426.105,323.31589 426.105,324.08589 Z M436.076,330.08689 C436.076,330.47189 435.982,330.85789 435.796,331.20689 C435.398,331.96689 434.605,332.44589 433.741,332.44589 C433.355,332.44589 432.983,332.34089 432.645,332.16489 C430.916,331.24189 429.165,330.26189 427.46,329.22389 C426.76,328.80289 426.34,328.05589 426.34,327.22789 C426.34,326.80689 426.456,326.38589 426.678,326.01289 C427.32,324.94989 428.804,324.57589 429.877,325.23089 C431.5,326.21089 433.169,327.15589 434.839,328.04289 C435.586,328.45289 436.064,329.23589 436.076,330.08689 Z M515.231,337.50089 C515.291,337.71089 515.325,337.93289 515.325,338.14289 C515.338,339.18189 514.647,340.10389 513.645,340.39589 C511.729,340.95589 509.792,341.46989 507.877,341.91389 C507.714,341.96089 507.526,341.98389 507.351,341.98389 C506.254,341.98389 505.32,341.23789 505.075,340.17489 C505.04,340.00989 505.016,339.83589 505.016,339.64889 C505.016,338.55089 505.753,337.61689 506.814,337.37189 C508.694,336.92889 510.55,336.44889 512.337,335.91189 C513.54,335.56289 514.882,336.29789 515.231,337.50089 Z M526.148,333.35689 C526.276,333.64889 526.335,333.95089 526.335,334.26689 C526.335,335.20089 525.763,336.04089 524.898,336.40389 C523.054,337.18489 521.175,337.90889 519.33,338.56389 C519.072,338.65689 518.816,338.70289 518.548,338.70289 C517.556,338.70289 516.668,338.07289 516.341,337.13889 C516.247,336.88189 516.2,336.61389 516.213,336.34489 C516.213,335.36389 516.844,334.48889 517.765,334.16089 C519.563,333.51989 521.361,332.83089 523.089,332.10689 C524.257,331.61589 525.669,332.19989 526.148,333.35689 Z M536.538,328.00889 C536.736,328.34789 536.83,328.73389 536.843,329.11789 C536.843,329.98189 536.387,330.77689 535.64,331.19689 C533.911,332.15389 532.138,333.07589 530.339,333.95089 C530.023,334.10389 529.674,334.18589 529.323,334.18589 C528.437,334.18589 527.607,333.67089 527.223,332.86589 C527.07,332.55089 526.988,332.21189 526.988,331.86189 C526.988,330.96189 527.503,330.13289 528.296,329.74789 C530.012,328.91889 531.717,328.03189 533.363,327.10989 C534.461,326.50289 535.943,326.92289 536.538,328.00889 Z M503.931,340.40789 C503.954,340.54689 503.966,340.68789 503.966,340.82789 C503.966,341.94789 503.148,342.91789 502.039,343.11589 C500.078,343.45389 498.093,343.74589 496.132,343.98089 C496.05,343.99089 495.957,344.00389 495.863,344.00389 C494.673,344.00389 493.68,343.11589 493.54,341.93789 C493.528,341.84389 493.528,341.73889 493.528,341.64589 C493.528,340.47789 494.415,339.48589 495.583,339.34589 C497.486,339.12289 499.39,338.83089 501.234,338.51689 C502.519,338.29389 503.71,339.15789 503.931,340.40789 Z M492.385094,342.04189 L492.385094,342.17089 C492.396,343.40789 491.438,344.44789 490.201,344.52889 C488.252,344.64589 486.255,344.72689 484.246,344.73889 L484.224,344.73889 C482.939,344.73889 481.9,343.69889 481.889,342.42789 C481.877,341.80889 482.122,341.21289 482.555,340.76989 C482.998,340.32589 483.582,340.08089 484.199,340.06989 C486.091,340.05689 488.018,339.98789 489.898,339.87089 L490.05,339.85889 C491.275,339.85889 492.303,340.81689 492.385094,342.04189 Z M546.276,321.56489 C546.556,321.96089 546.707,322.42889 546.707,322.90689 C546.707,323.66489 546.346,324.37789 545.727,324.82189 C544.127,325.95289 542.458,327.07489 540.777,328.13689 C540.403,328.38189 539.971,328.49989 539.527,328.49989 C538.722,328.49989 537.986,328.08989 537.554,327.41289 C537.309,327.03989 537.192,326.59689 537.192,326.15389 C537.192,325.35889 537.601,324.62289 538.278,324.19189 C539.889,323.17489 541.488,322.10189 543.019,321.01589 C544.033,320.29189 545.563,320.54789 546.276,321.56489 Z M480.721,342.28689 L480.721,342.40489 C480.663,343.65389 479.636,344.63389 478.386,344.63389 L478.27,344.63389 C476.285,344.54089 474.276,344.40089 472.339,344.20189 C471.136,344.08489 470.236,343.08189 470.236,341.87889 C470.236,341.80889 470.236,341.72789 470.249,341.64589 C470.365,340.37289 471.51,339.42689 472.806,339.55589 C474.708,339.74189 476.624,339.88289 478.491,339.96389 C479.729,340.02289 480.71,341.03889 480.721,342.28689 Z M501.083,132.40789 C501.083,132.52489 501.07,132.64189 501.059,132.76989 C500.883,133.90289 499.892,134.75489 498.748,134.75489 C498.63,134.75489 498.525,134.75489 498.409,134.73189 C496.54,134.46289 494.638,134.22889 492.746,134.06589 C491.543,133.94889 490.634,132.95689 490.621,131.76589 C490.621,131.68389 490.621,131.60189 490.621,131.52089 C490.738,130.23689 491.835,129.30289 493.167,129.40689 C495.14,129.58289 497.136,129.82789 499.085,130.10789 C500.219,130.28289 501.07,131.26389 501.083,132.40789 Z M523.603,138.33889 C523.615,138.63089 523.557,138.92289 523.451,139.19089 C523.101,140.10189 522.249,140.68589 521.268,140.68589 C520.988,140.68589 520.696,140.62689 520.427,140.53389 C518.676,139.84489 516.866,139.20289 515.058,138.61889 C514.077,138.30389 513.422,137.40489 513.434,136.37789 C513.434,136.14389 513.48,135.91089 513.551,135.67689 C513.937,134.48689 515.291,133.78589 516.492,134.18289 C518.337,134.77789 520.229,135.44389 522.108,136.16689 C523.019,136.51789 523.603,137.36989 523.603,138.33889 Z M489.466,131.38089 C489.419,132.71189 488.392,133.69189 487.131,133.69189 L487.061,133.69189 C485.846,133.65689 484.645,133.63389 483.441,133.63389 L483.243,133.63389 C481.958,133.63389 480.908,132.58289 480.908,131.28689 C480.908,130.00289 481.958,128.95189 483.243,128.95189 C484.573,128.95189 485.893,128.97589 487.212,129.03389 C488.485,129.06889 489.478,130.10789 489.466,131.38089 Z M583.542,206.19389 C582.526,206.19389 581.64,205.55089 581.323,204.58189 C580.751,202.83089 580.109,201.04489 579.421,199.29389 C579.28,198.93089 579.223,198.63889 579.233,198.34789 C579.233,197.38989 579.806,196.53789 580.704,196.17589 C581.896,195.72089 583.273,196.32789 583.74,197.50789 C584.476,199.38689 585.142,201.25489 585.76,203.12189 C585.842,203.36689 585.877,203.62489 585.877,203.88189 C585.864,204.87289 585.223,205.76189 584.277,206.07589 C584.032,206.15789 583.787,206.19389 583.542,206.19389 Z M479.74,131.32289 L479.74,131.43889 C479.752,132.68789 478.783,133.71589 477.533,133.78589 C475.654,133.87889 473.739,134.04289 471.849,134.25289 C471.767,134.26489 471.685,134.26489 471.591,134.26489 C470.4,134.26489 469.407,133.36489 469.269,132.18589 C469.269,132.10489 469.256,132.02289 469.256,131.94089 C469.256,130.73889 470.145,129.73489 471.346,129.60589 C473.272,129.39589 475.269,129.23289 477.288,129.11589 L477.417,129.11589 C478.654,129.11589 479.67,130.08489 479.74,131.32289 Z M468.124,132.33789 C468.136,132.47789 468.146,132.61789 468.146,132.75889 C468.136,133.89089 467.317,134.84789 466.197,135.02289 C464.329,135.33889 462.449,135.69989 460.594,136.12089 C460.431,136.15589 460.255,136.17889 460.092,136.17889 C459.007,136.17889 458.049,135.40889 457.804,134.34589 C457.769,134.17089 457.757,133.99589 457.757,133.82089 C457.757,132.72389 458.504,131.80189 459.577,131.55589 C461.493,131.13489 463.466,130.74989 465.428,130.42389 C466.723,130.20189 467.901,131.08889 468.124,132.33789 Z M512.511,134.76689 C512.511,134.96489 512.478,135.16389 512.431,135.35089 C512.161,136.37789 511.239,137.08989 510.177,137.08989 C509.978,137.08989 509.779,137.06689 509.581,137.01989 C507.725,136.52989 505.857,136.09689 504.024,135.72389 C502.938,135.50189 502.156,134.53289 502.156,133.43589 C502.156,133.27189 502.168,133.11989 502.203,132.96889 C502.46,131.73089 503.71,130.88989 504.958,131.14789 C506.885,131.53289 508.834,131.98789 510.772,132.50089 C511.8,132.76989 512.511,133.70389 512.511,134.76689 Z M568.703,174.83489 C568.294,175.14989 567.804,175.31389 567.291,175.31389 C566.555,175.31389 565.878,174.97489 565.434,174.39089 C564.313,172.91989 563.111,171.41389 561.851,169.94289 C561.487,169.52289 561.289,168.97389 561.289,168.41389 C561.289,167.73689 561.593,167.09389 562.106,166.65089 C563.052,165.84489 564.594,165.97389 565.399,166.90689 C566.707,168.43689 567.955,170.00089 569.147,171.56589 C569.45,171.96289 569.613,172.44089 569.626,172.95489 C569.626,173.70189 569.299,174.37889 568.703,174.83489 Z M575.043,184.64189 C574.669,184.86389 574.261,184.97989 573.84,184.97989 C573.022,184.97989 572.253,184.53689 571.832,183.83589 C570.852,182.21289 569.836,180.61389 568.809,179.09589 C568.505,178.63989 568.365,178.18589 568.365,177.71789 C568.365,176.94789 568.737,176.22389 569.381,175.78089 C570.419,175.07989 571.926,175.38289 572.626,176.41089 L572.637,176.41089 C573.771,178.10389 574.833,179.77289 575.836,181.44289 C576.059,181.80389 576.175,182.22489 576.175,182.65589 C576.163,183.47389 575.742,184.22089 575.043,184.64189 Z M561.324,165.78689 C560.893,166.19589 560.32,166.42889 559.725,166.42889 C559.071,166.42889 558.476,166.17189 558.032,165.70489 C556.701,164.30389 555.335,162.94889 553.981,161.67689 C553.514,161.23389 553.257,160.63789 553.245,159.99589 C553.245,159.38889 553.467,158.81689 553.888,158.37289 C554.728,157.47389 556.28,157.42689 557.181,158.27989 C558.627,159.63389 560.052,161.04689 561.406,162.48289 C561.826,162.91489 562.06,163.48689 562.06,164.09389 C562.049,164.73589 561.792,165.34289 561.324,165.78689 Z M579.28,195.31289 C578.369,195.31289 577.54,194.77589 577.155,193.94689 C576.386,192.26589 575.556,190.56089 574.68,188.89089 C574.459,188.47089 574.365,188.08589 574.365,187.69989 C574.377,186.84789 574.855,186.06589 575.615,185.66889 C576.723,185.08489 578.183,185.54089 578.767,186.63789 L578.767,186.64989 C579.724,188.47089 580.6,190.24489 581.405,191.99589 L581.405,192.00889 C581.533,192.31189 581.615,192.62689 581.615,192.96589 C581.615,193.87689 581.078,194.71689 580.249,195.10189 C579.946,195.24189 579.619,195.31289 579.28,195.31289 Z M544.244,149.07989 C544.244,149.54689 544.115,150.00189 543.848,150.38789 C543.415,151.02989 542.691,151.41489 541.909,151.41489 C541.453,151.41489 540.998,151.28689 540.624,151.02989 L540.613,151.02989 C539.037,149.96689 537.427,148.95189 535.791,147.98289 C535.079,147.56289 534.647,146.82589 534.647,145.99789 C534.636,145.56589 534.753,145.14489 534.974,144.78289 C535.604,143.72089 537.1,143.32389 538.173,143.96689 C539.854,144.96989 541.56,146.03289 543.204,147.14189 C543.859,147.57389 544.244,148.29789 544.244,149.07989 Z M553.561,156.11989 C553.561,156.65689 553.362,157.19389 553.012,157.60189 C552.568,158.12789 551.914,158.43089 551.226,158.43089 C550.677,158.43089 550.14,158.23289 549.72,157.88289 C548.248,156.64489 546.754,155.44289 545.26,154.32289 C544.664,153.87789 544.325,153.20089 544.325,152.45389 C544.325,151.94089 544.489,151.46189 544.804,151.05289 C545.552,150.05989 547.069,149.83889 548.074,150.59689 C549.685,151.81189 551.226,153.03789 552.731,154.30989 C553.269,154.76589 553.573,155.41989 553.561,156.11989 Z M534.228,143.16089 C534.216,143.52289 534.134,143.89589 533.958,144.22289 C533.55,144.99389 532.757,145.48389 531.881,145.48389 C531.519,145.48389 531.146,145.38989 530.807,145.21589 C529.114,144.32789 527.386,143.49989 525.681,142.72889 C524.852,142.35589 524.315,141.51489 524.315,140.60389 C524.304,140.26589 524.373,139.94989 524.514,139.63489 C525.027,138.50289 526.451,137.95389 527.597,138.46789 L527.607,138.46789 L527.724,138.52589 C529.464,139.30789 531.227,140.17189 532.966,141.07089 C533.748,141.47989 534.228,142.27389 534.228,143.16089 Z M475.222,229.26289 C474.565,229.96889 473.988,230.74589 473.514,231.59389 L399.717,188.98389 C409.333,172.26789 423.821,158.69989 441.223,150.21689 L475.222,229.26289 Z M503.175,188.15289 C495.632,204.79589 491.066,215.02889 488.337,221.34589 L455.355,144.66489 C464.188,141.98589 473.546,140.53389 483.243,140.53389 C496.763,140.53389 509.635,143.34689 521.322,148.39789 C518.394,154.77589 510.713,171.52089 503.175,188.15289 Z M490.576,226.55389 L488.974,222.82689 C495.658,207.36989 510.856,173.95789 522.385,148.87889 C525.156,150.11689 527.857,151.47889 530.484,152.96389 C514.822,181.60689 496.894,214.51189 490.576,226.55389 Z M494.619,231.41889 C493.767,229.95889 492.619,228.69589 491.258,227.70289 C497.729,215.42889 519.105,176.20689 531.495,153.54689 C550.294,164.47689 565.066,181.57489 573.032,202.06089 L494.619,231.41889 Z M496.034,235.09589 C495.847,234.17389 495.545,233.29589 495.161,232.46189 L573.461,203.14589 C574.383,205.60589 575.192,208.11689 575.913,210.66489 L496.034,235.09589 Z M495.675,241.30789 C496.063,240.11789 496.279,238.85189 496.279,237.53289 C496.279,237.10489 496.255,236.68089 496.212,236.26389 L576.232,211.78889 C578.392,219.78589 579.561,228.18389 579.561,236.85189 C579.561,250.38589 576.741,263.27089 571.681,274.96889 L495.675,241.30789 Z M493.91,244.72289 C494.44,244.00389 494.897,243.22789 495.26,242.39889 L571.199,276.03089 C570.069,278.55689 568.846,281.02889 567.511,283.43289 L493.91,244.72289 Z M490.27,248.01189 C491.353,247.37389 492.324,246.57589 493.159,245.64689 L566.929,284.44489 C556.341,302.98789 539.786,317.69189 519.882,325.90989 L490.27,248.01189 Z M485.925,249.54589 C487.088,249.37089 488.196,249.03589 489.228,248.55889 L518.795,326.33989 C515.938,327.47989 513.016,328.48489 510.032,329.34989 L485.925,249.54589 Z M480.032,237.53289 C480.032,235.27789 481.862,233.44789 484.119,233.44789 C486.375,233.44789 488.205,235.27789 488.205,237.53289 C488.205,239.78989 486.375,241.61989 484.119,241.61989 C481.862,241.61989 480.032,239.78989 480.032,237.53289 Z M480.258,249.05789 C481.473,249.46489 482.768,249.69489 484.119,249.69489 C484.328,249.69489 484.534,249.67389 484.741,249.66189 L508.909,329.66889 C500.732,331.93389 492.132,333.16989 483.243,333.16989 C469.856,333.16989 457.104,330.41789 445.509,325.46189 L480.258,249.05789 Z M476.683,247.14189 C477.444,247.73189 478.276,248.23689 479.167,248.63389 L444.446,324.97989 C441.763,323.79389 439.142,322.49689 436.594,321.07889 L476.683,247.14189 Z M473.674,243.73889 C474.252,244.71089 474.959,245.59289 475.775,246.36489 L435.581,320.49789 C416.794,309.74989 401.964,292.86789 393.829,272.59089 L473.674,243.73889 Z M472.181,239.82189 C472.373,240.83189 472.696,241.79289 473.121,242.69789 L393.399,271.50389 C392.375,268.85789 391.468,266.15589 390.677,263.40389 L472.181,239.82189 Z M394.697,198.97289 C396.021,195.89289 397.508,192.90089 399.134,189.99589 L472.991,232.63889 C472.827,233.01089 472.681,233.39189 472.555,233.78189 L394.697,198.97289 Z M472.247,234.92389 C472.062,235.76589 471.958,236.63589 471.958,237.53289 C471.958,237.91189 471.981,238.28489 472.015,238.65489 L390.357,262.28089 C388.135,254.17389 386.926,245.65389 386.926,236.85189 C386.926,223.82289 389.538,211.39689 394.248,200.04989 L472.247,234.92389 Z M483.243,346.59589 C422.634,346.59589 373.499,297.46089 373.499,236.85189 C373.499,193.19889 398.988,155.50189 435.893,137.82289 L436.649,139.58289 C436.078,140.01789 435.712,140.68489 435.703,141.42089 C435.703,141.77189 435.784,142.10989 435.936,142.42489 C436.321,143.24189 437.15,143.76789 438.05,143.76789 C438.178,143.76789 438.304,143.74589 438.431,143.72389 L438.906,144.82889 C404.722,161.36589 381.088,196.40089 381.088,236.85189 C381.088,293.18089 426.914,339.00689 483.243,339.00689 C539.572,339.00689 585.398,293.18089 585.398,236.85189 C585.398,180.52389 539.572,134.69689 483.243,134.69689 C472.729,134.69689 462.582,136.29489 453.03,139.25789 L452.598,138.25389 C453.423,137.99789 454.251,137.75089 455.071,137.52189 C456.063,137.22989 456.764,136.30789 456.764,135.28089 C456.764,135.05889 456.741,134.84789 456.683,134.63789 C456.333,133.42389 455.013,132.67689 453.8,133.02689 C452.79,133.31089 451.771,133.61889 450.744,133.94289 L450.01,132.23689 C460.494,128.90889 471.657,127.10789 483.243,127.10789 C543.853,127.10789 592.987,176.24189 592.987,236.85189 C592.987,297.46089 543.853,346.59589 483.243,346.59589 Z M126.121,219.41089 C124.779,219.09189 123.387,218.90589 121.947,218.90589 C120.559,218.90589 119.215,219.07689 117.917,219.37389 L84.056,147.79889 C96.034,142.51689 109.26,139.56189 123.17,139.56189 C141.198,139.56189 158.091,144.49589 172.582,153.07589 L126.121,219.41089 Z M145.791,217.78289 L185,161.80289 C192.226,167.76789 198.587,174.74589 203.845,182.52989 L145.791,217.78289 Z M140.046,225.98689 L144.125,220.15989 L204.477,183.51289 C206.097,185.97389 207.613,188.50889 209.01,191.11789 C182.982,204.18289 154.019,218.77389 140.046,225.98689 Z M216.663,263.79789 L189.333,255.10089 L217.027,259.52389 L217.614,255.84589 L218.542,256.07989 C218.016,258.69089 217.394,261.26689 216.663,263.79789 Z M155.839,296.78089 C155.839,296.77289 155.845,296.76589 155.845,296.75689 C155.905,296.04889 155.534,295.40689 154.951,295.08089 L132.24,251.65789 C133.131,251.03489 133.968,250.33989 134.732,249.56889 L163.386,296.21089 C163.087,296.49589 162.883,296.88189 162.848,297.32689 C162.771,298.29189 163.49,299.13589 164.454,299.21189 L165.269,299.27889 L176.766,317.99289 C174.344,319.59789 171.854,321.10789 169.288,322.49389 L155.839,296.78089 Z M118.009,265.07389 C118.109,269.04189 120.837,272.34989 124.528,273.31589 L123.598,276.11889 C118.857,276.22989 115.046,280.09789 115.046,284.86389 C115.046,289.10789 118.063,292.64289 122.067,293.44789 C121.976,294.36489 122.609,295.20489 123.531,295.35089 C123.889,295.40689 124.289,295.46589 124.726,295.52689 C124.807,295.53589 124.887,295.54189 124.966,295.54189 C125.828,295.54189 126.579,294.90589 126.699,294.02789 C126.741,293.72289 126.694,293.42789 126.589,293.15989 C130.058,291.99589 132.559,288.72489 132.559,284.86389 C132.559,282.04189 131.218,279.53789 129.144,277.93789 L130.933,272.54489 C133.655,271.05889 135.501,268.17189 135.501,264.85389 C135.501,260.01689 131.582,256.09689 126.746,256.09689 C124.245,256.09689 121.996,257.15089 120.4,258.83089 L119.671,258.61389 L120.642,254.83689 C121.076,254.86789 121.506,254.90389 121.947,254.90389 C125.357,254.90389 128.534,253.93789 131.252,252.28989 L153.487,294.80089 L153.08,294.76689 C152.122,294.70489 151.271,295.40489 151.191,296.36689 C151.111,297.33189 151.828,298.17789 152.792,298.25789 L153.952,298.35489 C154.002,298.35889 154.053,298.36089 154.102,298.36089 C154.497,298.36089 154.855,298.20989 155.151,297.98289 L168.25,323.02789 C154.763,330.11089 139.433,334.14189 123.17,334.14189 C115.507,334.14189 108.06,333.22489 100.903,331.54089 L118.009,265.07389 Z M124.611,264.85389 C124.611,263.67389 125.566,262.71889 126.746,262.71889 C127.924,262.71889 128.88,263.67389 128.88,264.85389 C128.88,266.03189 127.924,266.98789 126.746,266.98789 C125.566,266.98789 124.611,266.03189 124.611,264.85389 Z M123.803,286.99889 C122.624,286.99889 121.668,286.04389 121.668,284.86389 C121.668,283.68589 122.624,282.73089 123.803,282.73089 C124.981,282.73089 125.937,283.68589 125.937,284.86389 C125.937,286.04389 124.981,286.99889 123.803,286.99889 Z M113.584,262.89489 L117.094,263.93889 L99.764,331.27789 C97.431,330.69889 95.133,330.02989 92.868,329.28489 L113.584,262.89489 Z M106.281,245.74989 C106.958,246.94389 107.769,248.04389 108.689,249.04789 L102.529,259.60689 L112.464,262.56189 L91.762,328.90989 C69.481,321.28689 50.831,305.80289 39.126,285.76889 L106.281,245.74989 Z M104.511,241.30089 C104.81,242.48889 105.225,243.62889 105.748,244.71089 L38.543,284.75589 C37.043,282.11689 35.664,279.40189 34.411,276.61589 L104.511,241.30089 Z M105.133,230.52089 C104.378,232.50789 103.947,234.65389 103.947,236.90489 C103.947,238.00589 104.062,239.07689 104.251,240.12389 L33.93,275.55189 C28.763,263.68389 25.88,250.60089 25.88,236.85189 C25.88,227.74889 27.164,218.94689 29.512,210.58389 L105.133,230.52089 Z M107.409,226.32189 C106.703,227.29089 106.091,228.32889 105.587,229.43189 L29.831,209.46089 C30.661,206.63889 31.618,203.87189 32.691,201.16089 L107.409,226.32189 Z M114.156,220.69789 C111.84,221.81289 109.795,223.39489 108.159,225.34389 L33.121,200.07489 C41.142,180.50589 55.352,164.11189 73.317,153.34589 L114.156,220.69789 Z M115.228,220.21389 L74.329,152.76289 C77.132,151.12889 80.022,149.63389 82.992,148.28089 L116.765,219.66989 C116.241,219.82689 115.73,220.01189 115.228,220.21389 Z M116.356,254.00689 C117.357,254.33389 118.398,254.56489 119.468,254.71289 L118.55,258.28089 L115.322,257.32089 L116.356,254.00689 Z M113.317,252.69989 C113.94,253.04089 114.592,253.33789 115.259,253.60489 L114.203,256.98789 L111.316,256.12889 L113.317,252.69989 Z M128.7,236.90489 C128.7,240.63389 125.676,243.65689 121.947,243.65689 C118.217,243.65689 115.194,240.63389 115.194,236.90489 C115.194,233.17489 118.217,230.15189 121.947,230.15189 C125.676,230.15189 128.7,233.17489 128.7,236.90489 Z M177.743,317.35189 L166.535,299.10589 C167.06,298.83989 167.451,298.33289 167.504,297.70189 C167.583,296.73889 166.865,295.89289 165.901,295.81489 L164.732,295.72089 C164.64,295.71389 164.55,295.72089 164.459,295.72889 L135.549,248.66889 C136.076,248.06089 136.565,247.42089 137.008,246.74589 L181.143,253.79289 L216.289,265.02889 C209.759,286.56289 195.957,304.96389 177.743,317.35189 Z M220.208,229.96389 C220.369,232.23989 220.46,234.53489 220.46,236.85189 C220.46,243.03089 219.877,249.07389 218.771,254.93589 L217.799,254.69089 L219.42,244.53489 L139.182,231.72389 C139.146,231.60789 139.11,231.49189 139.074,231.37689 C139.275,231.45789 139.494,231.50489 139.725,231.50489 C139.731,231.50489 139.738,231.50489 139.745,231.50489 L140.913,231.49089 C141.88,231.47989 142.655,230.68589 142.643,229.71889 C142.632,228.75189 141.802,227.93589 140.872,227.98889 L139.704,228.00189 C138.995,228.00989 138.392,228.44189 138.124,229.05089 C138.093,228.98889 138.063,228.92289 138.033,228.86089 L138.628,228.01089 C152.732,220.73589 187.659,203.14289 209.542,192.15589 C215.169,202.98489 218.831,214.98789 220.028,227.69989 C219.815,227.99389 219.686,228.35389 219.692,228.74389 C219.697,229.22189 219.895,229.65189 220.208,229.96389 Z M232.914,236.85189 C232.914,240.64189 232.722,244.38689 232.347,248.07689 C231.994,248.90089 231.671,249.73889 231.37,250.58789 C231.4,250.35689 231.435,250.12489 231.462,249.89289 C231.474,249.79889 231.474,249.69489 231.474,249.60089 C231.462,248.43289 230.587,247.44089 229.419,247.30089 C228.112,247.13689 226.968,248.08289 226.828,249.34389 C226.594,251.23489 226.313,253.12589 225.999,254.98389 C225.964,255.12189 225.952,255.26289 225.952,255.40289 C225.964,256.53489 226.77,257.49189 227.891,257.69089 C228.018,257.71489 228.158,257.72689 228.299,257.72689 C228.789,257.72689 229.244,257.56789 229.622,257.30589 C229.464,258.22689 229.325,259.15589 229.229,260.09589 C228.929,259.47389 228.366,258.99989 227.657,258.83589 C226.407,258.54389 225.135,259.34889 224.854,260.58689 C224.423,262.43189 223.932,264.28789 223.407,266.09689 C223.348,266.30689 223.314,266.52989 223.314,266.73889 C223.301,267.77889 224.002,268.70089 224.995,268.99289 C225.206,269.06289 225.427,269.08489 225.649,269.08489 C226.688,269.08489 227.61,268.39689 227.891,267.40489 C228.308,265.97889 228.684,264.54089 229.041,263.10689 C229.028,263.52789 229.009,263.94789 229.009,264.37089 C229.009,264.85189 229.029,265.32789 229.045,265.80689 C225.706,278.04389 220.303,289.42989 213.23,299.56689 C213.025,299.45389 212.796,299.37989 212.549,299.35689 C213.664,297.77089 214.746,296.14289 215.76,294.50189 C215.993,294.13989 216.111,293.71989 216.122,293.29889 C216.122,292.47089 215.713,291.72389 215.013,291.29189 C213.95,290.62589 212.457,290.97589 211.802,292.03789 C210.798,293.63789 209.748,295.23789 208.65,296.78989 C208.37,297.18789 208.23,297.65489 208.23,298.14489 C208.23,298.89189 208.603,299.60489 209.222,300.03589 C209.354,300.12989 209.502,300.18689 209.647,300.25089 C209.555,300.44489 209.493,300.65689 209.476,300.88489 C209.41,301.79689 210.058,302.58889 210.944,302.73289 C190.919,329.36689 159.058,346.59589 123.17,346.59589 C62.561,346.59589 13.426,297.46089 13.426,236.85189 C13.426,176.24189 62.561,127.10789 123.17,127.10789 C143.877,127.10789 163.243,132.84589 179.769,142.81489 L179.38,143.36989 C177.702,142.37089 175.991,141.39489 174.279,140.48789 C173.182,139.89189 171.711,140.34689 171.127,141.45589 C170.94,141.79489 170.847,142.17989 170.847,142.56489 C170.858,143.41789 171.337,144.21189 172.085,144.60889 C173.633,145.43089 175.178,146.30789 176.688,147.21289 L175.94,148.28189 C160.492,139.04289 142.441,133.72389 123.17,133.72389 C66.305,133.72389 20.042,179.98689 20.042,236.85189 C20.042,293.71689 66.305,339.97989 123.17,339.97989 C155.738,339.97989 184.822,324.80089 203.736,301.15089 C203.884,301.58289 204.199,301.94289 204.608,302.14789 C203.631,303.36389 202.626,304.57289 201.598,305.74489 C201.225,306.17689 201.014,306.71389 201.014,307.27389 C201.014,307.95089 201.295,308.59389 201.809,309.04889 C202.241,309.42289 202.778,309.62089 203.349,309.62089 C204.015,309.62089 204.657,309.34089 205.101,308.83889 C206.432,307.32089 207.716,305.78089 208.919,304.24989 C209.246,303.84189 209.42,303.34089 209.42,302.81489 C209.42,302.09089 209.093,301.42489 208.522,300.96989 C208.451,300.91389 208.373,300.87389 208.296,300.82889 C208.297,300.81789 208.304,300.80889 208.305,300.79689 C208.376,299.83189 207.651,298.99289 206.687,298.92289 L205.536,298.83789 C218.563,281.57189 226.298,260.09889 226.298,236.85189 C226.298,204.69489 211.501,175.93189 188.361,157.00489 L192.192,151.53489 C217.031,171.65489 232.914,202.39589 232.914,236.85189 Z M263.216,240.49189 L262.071,257.97189 L245.549,262.16689 C246.453,251.86389 253.613,243.36489 263.216,240.49189 Z M273.983,276.84889 L287.667,282.30789 C283.182,286.63189 277.094,289.30489 270.372,289.30489 C268.265,289.30489 266.229,289.01489 264.274,288.52289 L273.983,276.84889 Z M270.372,239.43789 C279.044,239.43789 286.675,243.86889 291.142,250.58689 L275.443,254.57589 L266.134,239.82389 C267.514,239.58689 268.923,239.43789 270.372,239.43789 Z M295.306,264.37089 C295.306,269.73989 293.592,274.69789 290.707,278.76789 L282.803,266.24289 L293.011,253.96889 C294.469,257.13789 295.306,260.65389 295.306,264.37089 Z M260.163,287.10289 C251.81,283.34489 245.92,275.13289 245.494,265.48289 L261.169,271.73789 L260.163,287.10289 Z M325.691,240.48189 C327.358,239.63789 329.396,240.30689 330.24,241.97489 C331.085,243.64189 330.417,245.67889 328.75,246.52389 C327.082,247.36789 325.044,246.69989 324.2,245.03289 C323.355,243.36489 324.023,241.32689 325.691,240.48189 Z M483.243,113.68189 C469.773,113.68189 456.813,115.85189 444.682,119.84789 L421.478,65.8988904 L226.928,84.7738904 L209.077,27.3688904 L208.787,27.4588904 L209.029,27.3428904 C209.029,27.3428904 205.381,24.8548904 199.155,24.4668904 C199.702,27.8118904 198.235,30.4248904 196,31.4358904 L194.818,31.8028904 C194.739,31.8178904 194.662,31.8378904 194.582,31.8478904 L194.667,31.8498904 L194.584,31.8758904 L213.919,94.0558904 L187.488,131.79489 C168.767,120.30789 146.743,113.68189 123.17,113.68189 C55.146,113.68189 0,168.82689 0,236.85189 C0,304.87589 55.146,360.02189 123.17,360.02189 C166.885,360.02189 205.276,337.24589 227.137,302.91589 C227.385,303.52889 227.974,303.98489 228.67,304.03589 L229.758,304.11389 C229.8,304.11789 229.841,304.11889 229.883,304.11889 C230.794,304.11889 231.563,303.41389 231.628,302.49089 C231.696,301.52689 230.97,300.68989 230.004,300.62089 L228.927,300.54289 L228.844,300.53689 C228.765,300.53089 228.688,300.53889 228.612,300.54389 C231.253,296.18189 233.627,291.64089 235.72,286.94589 C240.622,294.45489 247.895,300.27489 256.481,303.33589 C256.291,303.59389 256.167,303.90389 256.142,304.24689 C256.072,305.21089 256.797,306.05089 257.762,306.11989 L258.929,306.20289 C258.971,306.20689 259.014,306.20789 259.056,306.20789 C259.957,306.20789 260.715,305.51489 260.793,304.60589 C261.191,304.69989 261.586,304.79989 261.988,304.88189 C262.033,305.75189 262.712,306.47489 263.603,306.53789 L264.769,306.62289 C264.813,306.62589 264.854,306.62689 264.896,306.62689 C265.614,306.62689 266.229,306.18389 266.495,305.54689 C266.957,305.58989 267.42,305.62489 267.886,305.65289 C268.069,306.35989 268.678,306.90589 269.448,306.96289 L270.607,307.04789 C270.653,307.05289 270.699,307.05389 270.743,307.05389 C271.563,307.05389 272.241,306.47089 272.421,305.68289 C294.313,304.61389 311.734,286.52789 311.734,264.37089 C311.734,261.36389 311.404,258.43589 310.796,255.61089 L331.427,247.55489 C331.595,247.48889 331.761,247.41489 331.92,247.33489 C334.436,246.06089 335.618,243.05989 334.572,240.37889 C333.459,237.52789 330.246,236.11989 327.397,237.23289 L307.017,245.19089 C300.102,232.00689 286.291,223.00789 270.372,223.00789 C261.342,223.00789 252.994,225.91089 246.192,230.82189 C244.429,194.27589 226.738,161.91189 199.911,140.51389 L219.618,112.37789 L253.882,222.56489 C258.244,220.11289 263.177,218.81089 268.375,218.05889 L231.531,99.5758904 L411.915,82.0748904 L414.07,87.0868904 L294.417,224.67189 C299.327,226.90189 302.996,230.36989 305.868,234.63189 L420.726,102.56089 L430.584,125.48189 C388.904,145.22489 360.073,187.66889 360.073,236.85189 C360.073,304.87589 415.219,360.02189 483.243,360.02189 C551.268,360.02189 606.413,304.87589 606.413,236.85189 C606.413,168.82689 551.268,113.68189 483.243,113.68189 L483.243,113.68189 Z" id="Fill-1" fill="#000105" mask="url(#mask-2)"></path>
        </g>
    </g>
</svg>