<svg width="606" height="360" xmlns="http://www.w3.org/2000/svg" xmlns:xlink="http://www.w3.org/1999/xlink"><title>logo</title><defs><path id="a" d="M0 0h606.413v359.962H0z"/></defs><g fill="none" fill-rule="evenodd"><g transform="translate(0 .49)"><mask id="b" fill="#fff"><use xlink:href="#a"/></mask><path d="M148.481 229.644a1.753 1.753 0 0 1-1.73 1.773l-1.168.015h-.022a1.751 1.751 0 0 1-.022-3.503l1.168-.015c.927-.008 1.761.763 1.774 1.73Zm40.858-.515a1.75 1.75 0 0 1-1.728 1.773l-1.168.014h-.022a1.752 1.752 0 0 1-.022-3.502l1.167-.015c.925-.011 1.761.763 1.773 1.73Zm5.838-.074a1.752 1.752 0 0 1-1.73 1.772l-1.167.015h-.023a1.75 1.75 0 0 1-.022-3.502l1.168-.015a1.768 1.768 0 0 1 1.774 1.73Zm5.836-.073a1.75 1.75 0 0 1-1.728 1.772l-1.168.016h-.023a1.752 1.752 0 0 1-.021-3.503l1.167-.015a1.752 1.752 0 0 1 1.773 1.73Zm5.838-.075a1.754 1.754 0 0 1-1.73 1.774l-1.167.015h-.023a1.75 1.75 0 0 1-.022-3.503l1.168-.015c.914-.013 1.76.763 1.774 1.729Zm-52.534.662a1.751 1.751 0 0 1-1.729 1.774l-1.167.015h-.023a1.752 1.752 0 0 1-.022-3.502l1.168-.016a1.767 1.767 0 0 1 1.773 1.729Zm5.837-.073a1.75 1.75 0 0 1-1.728 1.774l-1.167.014h-.023a1.753 1.753 0 0 1-1.752-1.73 1.753 1.753 0 0 1 1.73-1.772l1.168-.014c.968-.01 1.76.763 1.772 1.728Zm52.533-.662a1.753 1.753 0 0 1-1.729 1.774l-1.167.014h-.023a1.751 1.751 0 0 1-.021-3.503l1.167-.014a1.77 1.77 0 0 1 1.773 1.729Zm-35.021.44a1.754 1.754 0 0 1-1.73 1.775l-1.167.015h-.023a1.751 1.751 0 0 1-.022-3.503l1.168-.015a1.761 1.761 0 0 1 1.774 1.729Zm-5.838.075a1.75 1.75 0 0 1-1.728 1.774l-1.168.015h-.022c-.957 0-1.739-.77-1.752-1.73a1.754 1.754 0 0 1 1.73-1.773l1.167-.015c.936-.01 1.76.763 1.773 1.729Zm-5.836.073a1.754 1.754 0 0 1-1.73 1.774l-1.167.014h-.023a1.75 1.75 0 0 1-.022-3.502l1.168-.014c.915-.01 1.76.762 1.774 1.728Zm17.51-.221a1.752 1.752 0 0 1-1.729 1.774l-1.167.014h-.023a1.751 1.751 0 0 1-.021-3.502l1.167-.015c.979-.01 1.76.763 1.773 1.729Zm35.022-.442a1.751 1.751 0 0 1-1.729 1.774l-1.167.015h-.023a1.752 1.752 0 0 1-.021-3.502l1.166-.015a1.757 1.757 0 0 1 1.774 1.728Zm-78.989 66.579a1.763 1.763 0 0 1 1.905-1.584l1.155.106a1.75 1.75 0 1 1-.304 3.488l-1.172-.105a1.752 1.752 0 0 1-1.584-1.905Zm-5.826-.557a1.75 1.75 0 0 1 1.915-1.572l1.152.113a1.75 1.75 0 1 1-.322 3.486l-1.175-.112a1.752 1.752 0 0 1-1.57-1.915Zm-5.826-.618a1.755 1.755 0 0 1 1.93-1.55l1.158.126a1.75 1.75 0 1 1-.368 3.482l-1.169-.126a1.752 1.752 0 0 1-1.551-1.932Zm33.791 3.066a1.75 1.75 0 0 1-1.883 1.607l-1.171-.095a1.75 1.75 0 1 1 .288-3.491l1.159.095a1.75 1.75 0 0 1 1.607 1.884Zm23.316 1.827a1.75 1.75 0 0 1-1.879 1.613l-1.165-.09a1.751 1.751 0 1 1 .266-3.492l1.166.089a1.752 1.752 0 0 1 1.612 1.88Zm-5.83-.443a1.75 1.75 0 0 1-1.883 1.607l-1.115-.085.148-2.332.119-1.162 1.124.088a1.75 1.75 0 0 1 1.607 1.884Zm-5.828-.458a1.75 1.75 0 0 1-1.879 1.613l-1.171-.093a1.751 1.751 0 0 1-1.606-1.885 1.755 1.755 0 0 1 1.885-1.606l1.158.09a1.753 1.753 0 0 1 1.613 1.88Zm23.305 1.777a1.75 1.75 0 0 1-1.874 1.619l-1.172-.088a1.752 1.752 0 0 1 .267-3.494l1.162.088a1.75 1.75 0 0 1 1.617 1.875Zm-51.275-4.068a1.754 1.754 0 0 1 1.895-1.593l1.168.1a1.752 1.752 0 0 1-.306 3.489l-1.161-.1a1.752 1.752 0 0 1-1.596-1.896Zm45.454 3.63a1.75 1.75 0 0 1-1.876 1.619l-1.165-.088a1.752 1.752 0 0 1 .268-3.494l1.155.088a1.752 1.752 0 0 1 1.618 1.876Zm-14.432-2.856-.074 1.165-.059.58.133-1.745Zm78.579 7.525a1.75 1.75 0 0 1-1.871 1.623l-1.169-.083a1.75 1.75 0 0 1-1.619-1.874 1.746 1.746 0 0 1 1.873-1.62l1.163.084a1.75 1.75 0 0 1 1.623 1.87Zm-5.836-.417a1.75 1.75 0 0 1-1.87 1.623l-1.169-.084a1.75 1.75 0 0 1-1.619-1.874 1.748 1.748 0 0 1 1.873-1.62l1.163.084a1.75 1.75 0 0 1 1.622 1.87Zm-5.834-.418a1.75 1.75 0 0 1-1.871 1.623l-1.168-.083a1.751 1.751 0 0 1-1.619-1.874 1.744 1.744 0 0 1 1.874-1.62l1.161.084a1.75 1.75 0 0 1 1.623 1.87Zm-8.617-2.372 1.075.078-.037 1.752-.124 1.747-1.169-.084a1.75 1.75 0 0 1-1.619-1.874 1.748 1.748 0 0 1 1.874-1.62ZM395.974 35.46c0-5.803 4.704-10.507 10.506-10.507 3.253 0 6.16 1.479 8.086 3.799l60.565-5.505c1.487-.224 14.303-2.413 19.901-11.893-2.346-1.791-5.104-3.245-8.431-4.205 4.008-.762 7.429-.888 10.372-.504a20 20 0 0 0 .592-3.53l13.969 1.062c-.27 3.557-1.029 6.77-2.162 9.67 9.361 12.66 6.4 37.58 18.527 42.774-16.824 1.095-16.745-18.521-23.978-33.697-4.115 4.833-9.376 8.26-14.512 10.562 3.57 5.772 5.005 12.989 3.752 20.565-2.412 14.58-15.138 31.67-43.619 35.913l-2.063-13.857c21.04-3.134 30.252-14.63 31.859-24.342 1.004-6.063-.912-11.4-5.038-14.375l-55.586 5.054 8.199 18.798-14.852 1.43-7.122-16.83c-5.07-.747-8.965-5.103-8.965-10.382ZM142.532 1.798s113.051-9.145 118.596 13.815c-40.861-5.837-53.996 7.588-53.996 7.588s-4.611.15-10.655.24a6.566 6.566 0 0 1-6.273 8.516 6.567 6.567 0 0 1-6.284-8.475c-3.236-.037-6.33-.122-8.894-.281-15.761-.972-32.494-21.403-32.494-21.403Zm71.197 178.489c1.063-.631 2.556-.245 3.198.806 1.04 1.763 2.009 3.49 2.907 5.218.176.327.27.689.27 1.062a2.32 2.32 0 0 1-1.25 2.09 2.363 2.363 0 0 1-1.085.269 2.343 2.343 0 0 1-2.068-1.25 100.404 100.404 0 0 0-2.789-4.996 2.303 2.303 0 0 1-.328-1.214 2.325 2.325 0 0 1 1.145-1.985Zm-6.737-9.538c1.005-.76 2.522-.55 3.269.455a106.598 106.598 0 0 1 3.468 4.856c.268.386.396.84.396 1.308 0 .77-.385 1.495-1.026 1.926a2.273 2.273 0 0 1-1.308.398 2.346 2.346 0 0 1-1.938-1.028 102.492 102.492 0 0 0-3.316-4.647 2.338 2.338 0 0 1 .455-3.268ZM56.176 153.727a2.324 2.324 0 0 1-.479-1.448c0-.724.339-1.39.911-1.821a105.827 105.827 0 0 1 4.822-3.514c1.027-.713 2.545-.433 3.246.595.268.385.408.84.408 1.307a2.321 2.321 0 0 1-1.016 1.938 131.67 131.67 0 0 0-4.612 3.363c-.408.327-.91.49-1.424.49a2.324 2.324 0 0 1-1.856-.91Zm142.363 9.947c0-.643.269-1.238.736-1.682.899-.852 2.452-.805 3.304.094a108.822 108.822 0 0 1 3.969 4.46c.339.408.537.933.549 1.47 0 .7-.304 1.367-.829 1.81a2.297 2.297 0 0 1-1.506.549 2.297 2.297 0 0 1-1.785-.83 109.333 109.333 0 0 0-3.795-4.248 2.337 2.337 0 0 1-.643-1.623Zm-8.44-8.01a2.336 2.336 0 0 1 .548-1.541c.806-.933 2.347-1.062 3.293-.256a109.82 109.82 0 0 1 4.425 3.993c.466.443.735 1.05.735 1.692 0 .608-.234 1.18-.642 1.61a2.34 2.34 0 0 1-3.304.083 120.634 120.634 0 0 0-4.238-3.83 2.292 2.292 0 0 1-.817-1.75Zm29.269 34.85c1.144-.514 2.58.023 3.093 1.156a111.172 111.172 0 0 1 2.324 5.51c.116.269.163.56.163.853 0 .969-.584 1.82-1.482 2.17a2.33 2.33 0 0 1-.853.154 2.315 2.315 0 0 1-2.171-1.484 109.239 109.239 0 0 0-2.195-5.183l.059-.117-.094.035c-.14-.304-.21-.63-.21-.957 0-.911.537-1.752 1.366-2.137Zm5.277 79.588a2.342 2.342 0 0 1 1.423 2.977 101.411 101.411 0 0 1-2.136 5.557 2.304 2.304 0 0 1-2.148 1.448c-.315 0-.618-.06-.898-.186a2.305 2.305 0 0 1-1.437-2.137c0-.316.058-.62.176-.911a118.143 118.143 0 0 0 2.042-5.312c.409-1.191 1.775-1.856 2.978-1.436Zm2.171-67.306a106.447 106.447 0 0 1 1.694 5.72c.058.187.08.386.08.584a2.336 2.336 0 0 1-1.727 2.277 2.13 2.13 0 0 1-.608.082 2.35 2.35 0 0 1-2.253-1.728 115.864 115.864 0 0 0-1.622-5.475 2.032 2.032 0 0 1-.117-.748 2.31 2.31 0 0 1 1.599-2.195c1.203-.397 2.558.292 2.954 1.483Zm5.406 35.212a100.613 100.613 0 0 1-.222 5.954 2.326 2.326 0 0 1-2.323 2.183h-.153a2.347 2.347 0 0 1-2.182-2.3v-.187c.128-1.88.199-3.794.21-5.697a2.344 2.344 0 0 1 2.335-2.312 2.333 2.333 0 0 1 2.335 2.359Zm-.514-11.908c.198 1.949.338 3.957.42 5.94v.13a2.341 2.341 0 0 1-2.23 2.312h-.105a2.338 2.338 0 0 1-2.335-2.231 99.2 99.2 0 0 0-.396-5.697c-.012-.082-.012-.163-.012-.245 0-1.19.91-2.195 2.113-2.311a2.324 2.324 0 0 1 2.545 2.102Zm-1.81-11.78c.408 1.914.76 3.887 1.063 5.86.022.116.035.245.035.362 0 1.133-.852 2.124-1.985 2.3-.117.022-.234.022-.363.022a2.34 2.34 0 0 1-2.299-1.971c-.292-1.892-.63-3.772-1.016-5.616a2.293 2.293 0 0 1-.058-.467c0-1.11.782-2.078 1.856-2.301 1.238-.257 2.511.572 2.767 1.81Zm-120.694-83.313c-.012-.081-.012-.164-.012-.245a2.301 2.301 0 0 1 2.078-2.323 99.232 99.232 0 0 1 5.943-.491h.127c1.239 0 2.266.969 2.324 2.207l.011.117a2.325 2.325 0 0 1-2.206 2.335c-1.914.105-3.829.268-5.697.467-.082.01-.164.01-.257.01a2.326 2.326 0 0 1-2.311-2.077Zm40.021 2.954c0-.21.023-.432.081-.642.327-1.203 1.647-1.962 2.872-1.623a95.694 95.694 0 0 1 5.698 1.74 2.32 2.32 0 0 1 1.599 2.206c0 .245-.047.502-.128.747a2.325 2.325 0 0 1-2.207 1.588c-.257 0-.502-.035-.747-.116a115.726 115.726 0 0 0-5.452-1.67c-1.004-.28-1.716-1.191-1.716-2.23Zm-11.407-2.51c0-.117.012-.233.036-.35a2.324 2.324 0 0 1 2.673-1.94c1.938.317 3.911.679 5.861 1.11a2.347 2.347 0 0 1 1.844 2.3 3.075 3.075 0 0 1-.058.467 2.344 2.344 0 0 1-2.277 1.845c-.163 0-.338-.011-.501-.047a101.122 101.122 0 0 0-5.604-1.062c-1.133-.175-1.974-1.18-1.974-2.323Zm-90.304 30.086a2.29 2.29 0 0 1-.655-1.6c0-.653.246-1.25.713-1.692a110.971 110.971 0 0 1 4.413-4.016c.945-.818 2.487-.701 3.292.245a2.346 2.346 0 0 1-.245 3.292 106.555 106.555 0 0 0-4.227 3.84 2.297 2.297 0 0 1-1.611.655 2.293 2.293 0 0 1-1.68-.724Zm112.767-23.898c0-.292.058-.572.163-.853.468-1.167 1.856-1.774 3.036-1.307a101.32 101.32 0 0 1 5.464 2.358 2.318 2.318 0 0 1 1.354 2.137c0 .338-.07.653-.21.957a2.34 2.34 0 0 1-2.125 1.354c-.338 0-.666-.07-.98-.21a108.386 108.386 0 0 0-5.231-2.253 2.335 2.335 0 0 1-1.471-2.183Zm-34.055-7.38v-.116a2.323 2.323 0 0 1 2.323-2.218h.128c1.949.093 3.958.257 5.942.456a2.337 2.337 0 0 1 2.09 2.322c0 .082-.011.164-.011.246a2.33 2.33 0 0 1-2.324 2.089c-.081 0-.163 0-.245-.011a100.917 100.917 0 0 0-5.686-.432 2.334 2.334 0 0 1-2.217-2.335Zm-39.66 6.282a2.384 2.384 0 0 1-.128-.747 2.35 2.35 0 0 1 1.587-2.218c1.845-.63 3.771-1.226 5.698-1.763.198-.058.408-.094.63-.094 1.039 0 1.961.713 2.253 1.717a2.352 2.352 0 0 1-1.622 2.872c-1.88.525-3.701 1.097-5.452 1.692a2.391 2.391 0 0 1-.748.129 2.35 2.35 0 0 1-2.218-1.588Zm-20.91 10.356a2.314 2.314 0 0 1-.338-1.202c0-.83.408-1.577 1.109-1.997l.011-.012a119.573 119.573 0 0 1 5.172-2.966c1.098-.583 2.569-.14 3.164.958a2.3 2.3 0 0 1 .28 1.109 2.3 2.3 0 0 1-1.237 2.043 120.41 120.41 0 0 0-4.88 2.802c-.444.269-.865.385-1.284.385-.829 0-1.565-.42-1.997-1.12Zm10.169-5.756a2.286 2.286 0 0 1-.222-1.004 2.338 2.338 0 0 1 1.343-2.09 115.777 115.777 0 0 1 5.475-2.393c1.167-.467 2.568.128 3.036 1.295.116.28.174.56.174.853a2.302 2.302 0 0 1-1.459 2.183 99.22 99.22 0 0 0-5.241 2.289c-.316.14-.655.22-.993.22a2.357 2.357 0 0 1-2.113-1.353Zm145.912 141.92c0 .35-.081.689-.233 1.016a101.629 101.629 0 0 1-2.733 5.287 2.322 2.322 0 0 1-2.042 1.215c-.386 0-.783-.105-1.121-.292a2.33 2.33 0 0 1-1.214-2.066c0-.373.106-.76.292-1.11.922-1.681 1.81-3.385 2.615-5.066.537-1.12 1.985-1.635 3.117-1.085a2.356 2.356 0 0 1 1.319 2.1ZM97.738 133.144a2.32 2.32 0 0 1 1.776-2.779c1.925-.432 3.899-.806 5.848-1.132a2.341 2.341 0 0 1 2.685 1.926c.024.128.024.245.024.362a2.316 2.316 0 0 1-1.949 2.323c-1.88.316-3.772.677-5.605 1.075a1.928 1.928 0 0 1-.502.058 2.329 2.329 0 0 1-2.277-1.833Zm23.094-3.024a2.334 2.334 0 1 1 4.669 0 2.326 2.326 0 0 1-2.334 2.335v.012a2.345 2.345 0 0 1-2.335-2.347Zm-99.611 68.345c0-.292.059-.584.164-.853a101.068 101.068 0 0 1 2.288-5.498c.513-1.133 1.939-1.682 3.094-1.168a2.37 2.37 0 0 1 1.378 2.125c0 .339-.071.654-.211.969a102.739 102.739 0 0 0-2.195 5.254 2.369 2.369 0 0 1-2.183 1.493c-.292 0-.571-.058-.84-.163a2.317 2.317 0 0 1-1.495-2.16Zm-.408 71.053a2.355 2.355 0 0 1-2.242-1.67 121.528 121.528 0 0 1-1.529-5.768 2.1 2.1 0 0 1-.059-.524 2.315 2.315 0 0 1 1.787-2.288 2.353 2.353 0 0 1 2.813 1.739c.444 1.868.946 3.725 1.472 5.51.058.21.093.42.093.642a2.329 2.329 0 0 1-1.669 2.253 2.154 2.154 0 0 1-.666.106Zm4.833 10.81a2.434 2.434 0 0 1-.91.187c-.935 0-1.786-.56-2.149-1.435a107.62 107.62 0 0 1-2.159-5.57 2.315 2.315 0 0 1-.14-.805 2.342 2.342 0 0 1 1.552-2.172c1.192-.431 2.557.234 2.977 1.414.677 1.868 1.366 3.63 2.079 5.324.116.292.175.594.175.909a2.32 2.32 0 0 1-1.425 2.149Zm-7.518-22.17a2.332 2.332 0 0 1-2.301-1.915 110.977 110.977 0 0 1-.887-5.895 2.608 2.608 0 0 1-.022-.292c0-1.18.886-2.171 2.054-2.312 1.284-.164 2.44.772 2.591 2.032.246 1.903.526 3.794.865 5.638a2.33 2.33 0 0 1-2.3 2.744Zm27.552 49.56a2.348 2.348 0 0 1-.782 1.717c-.432.385-.98.595-1.553.595a2.377 2.377 0 0 1-1.751-.783 114.977 114.977 0 0 1-3.83-4.564 2.29 2.29 0 0 1-.513-1.448c0-.723.315-1.39.887-1.844.969-.771 2.511-.596 3.281.385a109.871 109.871 0 0 0 3.666 4.366c.397.432.595.993.595 1.577Zm-8.254-7.262a2.192 2.192 0 0 1-1.342.432 2.311 2.311 0 0 1-1.903-.981 109.154 109.154 0 0 1-3.328-4.95 2.441 2.441 0 0 1-.361-1.272 2.327 2.327 0 0 1 1.096-1.95c1.052-.677 2.558-.327 3.223.724a116.592 116.592 0 0 0 3.129 4.693c.327.456.479.922.479 1.4 0 .76-.374 1.472-.993 1.904Zm-6.444-9.737a2.249 2.249 0 0 1-1.132.304 2.366 2.366 0 0 1-2.043-1.202 120.024 120.024 0 0 1-2.756-5.3 2.359 2.359 0 0 1-.234-1.016c0-.888.514-1.716 1.308-2.101 1.145-.562 2.58-.06 3.128 1.074a99.962 99.962 0 0 0 2.64 5.066c.187.339.292.724.292 1.11a2.296 2.296 0 0 1-1.203 2.065Zm22.906 25.253c0 .584-.21 1.144-.608 1.577a2.337 2.337 0 0 1-1.727.77 2.345 2.345 0 0 1-1.564-.607 102.256 102.256 0 0 1-4.309-4.122 2.305 2.305 0 0 1-.677-1.646c0-.63.245-1.213.688-1.658.889-.876 2.429-.863 3.305.024a119.207 119.207 0 0 0 4.121 3.946c.49.433.771 1.063.771 1.716Zm-39.52-71.566c-.14-1.973-.222-3.982-.245-5.943.012-1.344 1.016-2.36 2.3-2.37 1.296 0 2.347 1.026 2.37 2.299.023 1.927.106 3.854.233 5.699v.186c0 1.213-.956 2.218-2.171 2.3l-.164.01a2.335 2.335 0 0 1-2.323-2.181Zm25.37-74.16a2.34 2.34 0 0 1-.841-1.81 2.398 2.398 0 0 1 .549-1.482 112.8 112.8 0 0 1 3.946-4.46c.84-.91 2.393-.968 3.304-.116.468.43.736 1.027.736 1.68a2.268 2.268 0 0 1-.631 1.612 107.542 107.542 0 0 0-3.77 4.284 2.344 2.344 0 0 1-1.799.829 2.345 2.345 0 0 1-1.494-.537Zm-13.73 17.572c0-.363.094-.737.257-1.063a110.843 110.843 0 0 1 2.883-5.207c.631-1.063 2.125-1.46 3.2-.83a2.35 2.35 0 0 1 1.156 2.044 2.369 2.369 0 0 1-.328 1.156c-.945 1.61-1.88 3.28-2.767 4.985a2.3 2.3 0 0 1-2.066 1.26c-.373 0-.747-.081-1.073-.256a2.315 2.315 0 0 1-1.262-2.09Zm5.919-10.006a2.252 2.252 0 0 1 .386-1.307 108.382 108.382 0 0 1 3.443-4.87c.736-.991 2.266-1.225 3.258-.478.595.444.946 1.145.946 1.868 0 .514-.164.992-.467 1.4a97.365 97.365 0 0 0-3.293 4.66 2.313 2.313 0 0 1-1.938 1.038c-.467 0-.91-.128-1.295-.385a2.308 2.308 0 0 1-1.04-1.926Zm-17.734 54.802v-.118c.082-1.996.21-4.004.397-5.953a2.327 2.327 0 0 1 2.545-2.101 2.328 2.328 0 0 1 2.114 2.299c0 .082 0 .164-.012.246a99.835 99.835 0 0 0-.374 5.697 2.338 2.338 0 0 1-2.335 2.24l-.093-.011a2.323 2.323 0 0 1-2.242-2.3Zm3.445-23.082c0-.187.023-.385.069-.584a112.205 112.205 0 0 1 1.682-5.72c.385-1.191 1.727-1.891 2.942-1.506a2.333 2.333 0 0 1 1.61 2.253c0 .234-.034.468-.105.689a100.395 100.395 0 0 0-1.61 5.476 2.335 2.335 0 0 1-2.253 1.738c-.199 0-.41-.022-.597-.07a2.333 2.333 0 0 1-1.738-2.276Zm-2.359 11.454c0-.118.011-.234.024-.351a99.149 99.149 0 0 1 1.05-5.885c.245-1.225 1.506-2.065 2.755-1.808a2.326 2.326 0 0 1 1.857 2.288c0 .15-.012.315-.047.467a116.078 116.078 0 0 0-.992 5.615 2.357 2.357 0 0 1-2.662 1.973c-1.121-.175-1.985-1.156-1.985-2.3Zm90.141 120.67c0 .153-.011.317-.046.468a2.34 2.34 0 0 1-2.289 1.904c-.14 0-.292-.012-.443-.047a107.941 107.941 0 0 1-5.813-1.273 2.318 2.318 0 0 1-1.776-2.242 1.99 1.99 0 0 1 .058-.583c.305-1.238 1.6-2.02 2.838-1.705 1.798.443 3.677.852 5.569 1.226a2.32 2.32 0 0 1 1.902 2.252Zm46.221-1.891a2.334 2.334 0 0 1-1.692 2.838c-1.915.479-3.876.923-5.814 1.296a1.977 1.977 0 0 1-.444.046h-.011a2.344 2.344 0 0 1-2.288-1.891 3.06 3.06 0 0 1-.036-.467 2.336 2.336 0 0 1 1.88-2.265c1.798-.35 3.63-.758 5.475-1.226l.105.012-.011-.035c1.237-.315 2.533.466 2.836 1.692Zm11.08-3.724c.093.257.14.527.14.794a2.322 2.322 0 0 1-1.517 2.207c-1.881.7-3.783 1.354-5.651 1.938-.222.07-.456.105-.701.105a2.305 2.305 0 0 1-2.218-1.635 2.439 2.439 0 0 1-.117-.7c0-1.028.666-1.915 1.646-2.23a104.138 104.138 0 0 0 5.405-1.856c1.18-.431 2.569.21 3.013 1.377Zm10.601-4.926c.163.327.245.7.245 1.062 0 .888-.49 1.682-1.284 2.078a104.03 104.03 0 0 1-5.405 2.545 2.307 2.307 0 0 1-.935.199 2.34 2.34 0 0 1-2.335-2.37 2.326 2.326 0 0 1 1.401-2.101v-.013a93.392 93.392 0 0 0 5.091-2.393c.408-.198.771-.292 1.132-.292.887 0 1.682.49 2.09 1.285Zm-33.075 11.125c.011.105.024.199.024.305a2.344 2.344 0 0 1-2.021 2.335c-1.972.268-3.97.49-5.931.653-.058.01-.127.01-.198.01-1.19 0-2.219-.943-2.324-2.146v-.176a2.352 2.352 0 0 1 2.137-2.347 104.45 104.45 0 0 0 5.674-.62c1.273-.173 2.464.738 2.639 1.986Zm52.327-24.272c.339.41.537.946.526 1.483 0 .7-.305 1.355-.853 1.798a111.578 111.578 0 0 1-4.717 3.655 2.32 2.32 0 0 1-1.377.455 2.385 2.385 0 0 1-1.881-.956 2.35 2.35 0 0 1-.454-1.402 2.358 2.358 0 0 1 .956-1.87 103.42 103.42 0 0 0 4.46-3.442l.071-.035-.013-.011c.958-.795 2.5-.644 3.282.325Zm-9.27 7.099c.245.374.385.806.385 1.25 0 .804-.397 1.54-1.063 1.984a108.253 108.253 0 0 1-5.089 3.117c-.351.198-.76.304-1.168.304a2.339 2.339 0 0 1-2.335-2.324c0-.84.444-1.611 1.168-2.031a105.66 105.66 0 0 0 4.88-2.99c1.038-.676 2.544-.36 3.222.69Zm-100.135 9.796a2.473 2.473 0 0 1-.199.91 2.32 2.32 0 0 1-3.07 1.214 108.251 108.251 0 0 1-5.394-2.51 2.337 2.337 0 0 1-1.297-2.067c0-.361.083-.735.246-1.062.561-1.121 2.007-1.611 3.141-1.05a95.217 95.217 0 0 0 5.16 2.404 2.352 2.352 0 0 1 1.413 2.16Zm10.927 4.015c0 .234-.034.468-.105.689a2.313 2.313 0 0 1-2.23 1.646 2.7 2.7 0 0 1-.689-.094 110.116 110.116 0 0 1-5.651-1.914 2.36 2.36 0 0 1-1.528-2.194c0-.28.058-.55.151-.807.433-1.167 1.81-1.82 3-1.377 1.74.642 3.561 1.25 5.406 1.822a2.318 2.318 0 0 1 1.646 2.229ZM201.014 309.9c.444.432.689 1.015.701 1.646a2.317 2.317 0 0 1-.665 1.658 112.124 112.124 0 0 1-4.297 4.146c-.432.385-.98.606-1.564.606-.654 0-1.285-.28-1.728-.76a2.38 2.38 0 0 1-.619-1.564c0-.664.281-1.283.759-1.727v-.011a101.046 101.046 0 0 0 4.109-3.96c.876-.898 2.417-.91 3.304-.034Zm-72.371 33.565c0 1.332-.994 2.359-2.266 2.405a261.06 261.06 0 0 1-3.21.047c-.923-.011-1.834-.011-2.756-.035-1.248-.035-2.276-1.085-2.276-2.335.034-1.32 1.074-2.335 2.335-2.335h.175c1.833.047 3.724.035 5.592-.012 1.343 0 2.37.993 2.406 2.265Zm-11.664-.221c0 .058 0 .117-.011.175a2.341 2.341 0 0 1-2.324 2.16l-.175-.011c-1.95-.152-3.947-.363-5.943-.631a2.332 2.332 0 0 1-2.019-2.324c0-.104.012-.198.023-.303a2.334 2.334 0 0 1 2.627-1.996c1.88.245 3.782.455 5.674.595a2.358 2.358 0 0 1 2.148 2.335Zm-44.237-13.613c0 .408-.105.817-.303 1.167a2.351 2.351 0 0 1-2.032 1.18c-.408 0-.805-.106-1.155-.304a110.507 110.507 0 0 1-5.09-3.095 2.314 2.314 0 0 1-1.074-1.971c0-.445.128-.876.373-1.25.678-1.05 2.171-1.377 3.223-.701a102.807 102.807 0 0 0 4.88 2.955 2.347 2.347 0 0 1 1.178 2.019Zm-9.795-6.281c-.011.49-.163.958-.443 1.343a2.345 2.345 0 0 1-1.892.968c-.501 0-.968-.152-1.365-.444a104.12 104.12 0 0 1-4.74-3.63 2.334 2.334 0 0 1-.864-1.786c0-.55.187-1.074.525-1.495.783-.956 2.323-1.121 3.281-.34a102.978 102.978 0 0 0 4.53 3.47 2.37 2.37 0 0 1 .968 1.914Zm324.807-41.376a2.398 2.398 0 0 1-.946.198 2.336 2.336 0 0 1-2.137-1.377v-.012a97.327 97.327 0 0 1-2.275-5.51 2.212 2.212 0 0 1-.165-.864 2.315 2.315 0 0 1 1.506-2.148c1.168-.456 2.57.175 3.013 1.342a103.732 103.732 0 0 0 2.16 5.219l-.117.128.14-.07c.14.316.21.63.21.97a2.358 2.358 0 0 1-1.389 2.124Zm5.581 10.262a2.355 2.355 0 0 1-1.18.327 2.351 2.351 0 0 1-2.019-1.156 113.096 113.096 0 0 1-2.872-5.23 2.316 2.316 0 0 1-.269-1.063c0-.886.49-1.681 1.273-2.09 1.109-.572 2.568-.093 3.14 1.016a109.72 109.72 0 0 0 2.756 5.009c.21.35.315.747.326 1.156 0 .829-.443 1.612-1.155 2.03Zm6.678 9.585a2.35 2.35 0 0 1-1.402.467 2.31 2.31 0 0 1-1.867-.945 101.747 101.747 0 0 1-3.444-4.87 2.301 2.301 0 0 1-.386-1.318c0-.77.398-1.494 1.039-1.926 1.04-.69 2.558-.385 3.235.653a106.29 106.29 0 0 0 3.291 4.67c.304.409.467.888.467 1.4 0 .748-.338 1.425-.933 1.869Zm8.418 7.098c0 .654-.27 1.25-.736 1.694a2.362 2.362 0 0 1-3.304-.117 100.262 100.262 0 0 1-3.946-4.471 2.311 2.311 0 0 1-.549-1.484 2.32 2.32 0 0 1 .841-1.81c.945-.792 2.487-.653 3.28.304a116.87 116.87 0 0 0 3.783 4.274c.408.443.641 1.015.631 1.61Zm-25.79-37.663a2.315 2.315 0 0 1-2.219-1.635 97.845 97.845 0 0 1-1.657-5.731 2.405 2.405 0 0 1-.071-.583c0-1.064.712-1.985 1.752-2.255 1.226-.314 2.521.456 2.836 1.67.49 1.856 1.005 3.643 1.554 5.406l-.059.105.081-.024c.082.222.118.456.118.69a2.32 2.32 0 0 1-1.623 2.24c-.234.07-.467.117-.712.117Zm203.352-44.376c-.186-1.891-.42-3.794-.7-5.662-.023-.117-.023-.245-.023-.362a2.34 2.34 0 0 1 1.985-2.3 2.348 2.348 0 0 1 2.649 1.962c.304 1.973.55 3.97.737 5.919.011.08.011.163.011.234a2.341 2.341 0 0 1-2.114 2.31c-.081.012-.151.012-.221.012a2.324 2.324 0 0 1-2.324-2.113ZM386.54 189.52c0-.373.082-.735.245-1.062a108.758 108.758 0 0 1 2.825-5.253c.607-1.074 2.102-1.483 3.188-.864a2.344 2.344 0 0 1 .863 3.187 105.68 105.68 0 0 0-2.661 4.939c-.444.875-1.238 1.366-2.125 1.366-.374 0-.724-.083-1.051-.246a2.301 2.301 0 0 1-1.284-2.066Zm21.225-26.501a2.31 2.31 0 0 1-.665-1.658 2.33 2.33 0 0 1 .7-1.646 103.487 103.487 0 0 1 4.378-4.051c.933-.818 2.475-.713 3.293.22.373.422.571.958.584 1.519 0 .677-.292 1.319-.795 1.774a102.883 102.883 0 0 0-4.192 3.877 2.31 2.31 0 0 1-1.633.665c-.63 0-1.227-.245-1.67-.7Zm18.038-14.781a2.204 2.204 0 0 1-.351-1.202 2.303 2.303 0 0 1 1.11-2.008 113.308 113.308 0 0 1 5.16-3c1.108-.596 2.568-.152 3.164.933a2.3 2.3 0 0 1 .279 1.11 2.317 2.317 0 0 1-1.213 2.066c-1.681.91-3.34 1.879-4.939 2.86-.374.234-.793.35-1.226.35a2.29 2.29 0 0 1-1.984-1.11Zm-33.461 31.138c0-.445.129-.876.374-1.25a101.64 101.64 0 0 1 3.385-4.903c.724-1.005 2.254-1.25 3.257-.514a2.29 2.29 0 0 1 .958 1.868c.011.502-.152.992-.443 1.4a108.702 108.702 0 0 0-3.246 4.694 2.333 2.333 0 0 1-1.961 1.063 2.23 2.23 0 0 1-1.262-.386 2.286 2.286 0 0 1-1.062-1.972Zm-12.62 80.579a2.334 2.334 0 0 1-2.288-1.88c-.385-1.925-.724-3.91-1.004-5.873a3.646 3.646 0 0 1-.024-.361 2.342 2.342 0 0 1 2.008-2.276c1.273-.2 2.463.723 2.639 1.973.268 1.879.594 3.782.968 5.626.024.154.047.317.047.468a2.348 2.348 0 0 1-2.346 2.323Zm36.647-104.817a2.412 2.412 0 0 1-.49-1.447c0-.724.327-1.39.898-1.833a115.198 115.198 0 0 1 4.787-3.55c1.028-.712 2.545-.443 3.258.584.281.397.419.864.419 1.354a2.36 2.36 0 0 1-1.003 1.892 107.342 107.342 0 0 0-4.588 3.397 2.278 2.278 0 0 1-1.436.49c-.724 0-1.39-.327-1.845-.887Zm-40.617 91.134c-.163-1.95-.28-3.947-.35-5.954-.011-1.33.981-2.358 2.264-2.405 1.344 0 2.371.992 2.406 2.265.058 1.902.176 3.829.339 5.697v.176a2.34 2.34 0 0 1-2.336 2.357 2.344 2.344 0 0 1-2.323-2.136Zm-.374-11.85c.047-2.043.141-4.051.292-6.013a2.34 2.34 0 0 1 4.67.176l-.012.174a96.49 96.49 0 0 0-.28 5.71 2.345 2.345 0 0 1-2.335 2.277h-.047a2.316 2.316 0 0 1-2.288-2.324Zm3.071-23.07c0-.197.024-.397.071-.582v-.013l.035-.128c.466-1.868.992-3.771 1.564-5.616.374-1.201 1.704-1.914 2.918-1.54a2.327 2.327 0 0 1 1.542 2.919 124.744 124.744 0 0 0-1.518 5.463l-.187-.012.187.047a2.346 2.346 0 0 1-2.837 1.705 2.348 2.348 0 0 1-1.775-2.242Zm-2.172 11.419c0-.094.012-.187.024-.292.258-1.985.583-3.958.946-5.885v-.011a2.342 2.342 0 0 1 2.732-1.856 2.343 2.343 0 0 1 1.903 2.323 5.042 5.042 0 0 1-.047.408 102.714 102.714 0 0 0-.911 5.616 2.33 2.33 0 0 1-2.312 2.044c-.104 0-.209 0-.315-.012a2.345 2.345 0 0 1-2.02-2.335Zm5.616-22.602c0-.27.046-.55.14-.806l.058-.128c.666-1.8 1.401-3.62 2.172-5.383.49-1.156 1.915-1.716 3.07-1.214a2.318 2.318 0 0 1 1.401 2.16c0 .315-.069.619-.198.91a114.575 114.575 0 0 0-2.078 5.185l-.128.057.081.036a2.347 2.347 0 0 1-2.183 1.529c-.28 0-.548-.047-.817-.152a2.324 2.324 0 0 1-1.518-2.194Zm18.178-28.382a2.329 2.329 0 0 1-.851-1.798c0-.537.185-1.063.536-1.483a107.486 107.486 0 0 1 3.899-4.507c.841-.91 2.382-.98 3.292-.14a2.28 2.28 0 0 1 .759 1.729 2.29 2.29 0 0 1-.606 1.564 101.298 101.298 0 0 0-3.69 4.26c-.49.597-1.156.912-1.855.912a2.317 2.317 0 0 1-1.484-.537ZM555.242 314.08c.385.433.595.993.595 1.577a2.343 2.343 0 0 1-.782 1.716 102.285 102.285 0 0 1-4.565 3.853 2.33 2.33 0 0 1-1.448.513 2.285 2.285 0 0 1-1.82-.886 2.273 2.273 0 0 1-.515-1.437 2.316 2.316 0 0 1 .876-1.844 100.107 100.107 0 0 0 4.309-3.63c1.05-.936 2.521-.784 3.35.138Zm34.219-58.361c0 .14-.023.279-.047.408l-.023.116a105.67 105.67 0 0 1-1.192 5.733 2.334 2.334 0 0 1-2.275 1.786c-.176 0-.362-.023-.537-.058a2.333 2.333 0 0 1-1.798-2.288c0-.176.022-.35.069-.526.444-1.867.829-3.725 1.168-5.592a2.33 2.33 0 0 1 2.709-1.88 2.34 2.34 0 0 1 1.926 2.3Zm-172.602 61.246c0 .56-.198 1.108-.572 1.529a2.301 2.301 0 0 1-1.774.818 2.336 2.336 0 0 1-1.518-.562 118.925 118.925 0 0 1-4.413-4.004 2.388 2.388 0 0 1-.724-1.693 2.343 2.343 0 0 1 .655-1.61c.863-.9 2.404-.934 3.302-.07a94.023 94.023 0 0 0 4.227 3.828c.514.445.806 1.087.817 1.764Zm174.284-80.113-.012 1.495a2.351 2.351 0 0 1-2.335 2.3h-.035a2.348 2.348 0 0 1-2.3-2.313c0-.525.012-1.004.012-1.482 0-1.437-.036-2.872-.094-4.284v-.12a2.315 2.315 0 0 1 2.241-2.297c1.355 0 2.37.98 2.429 2.229.057 1.46.082 2.966.094 4.472Zm-4.578-19.393a2.348 2.348 0 0 1-2.288-1.855 105.33 105.33 0 0 0-1.319-5.558 1.863 1.863 0 0 1-.082-.572 2.317 2.317 0 0 1 1.728-2.276c1.226-.34 2.534.43 2.86 1.646.515 1.914.98 3.876 1.39 5.802.023.15.046.315.046.468a2.359 2.359 0 0 1-1.855 2.298 3.26 3.26 0 0 1-.48.047Zm-15.154 80.86c-.012.49-.151.959-.443 1.355h.011a117.707 117.707 0 0 1-3.619 4.752 2.33 2.33 0 0 1-1.82.864 2.298 2.298 0 0 1-1.46-.514 2.368 2.368 0 0 1-.875-1.845 2.307 2.307 0 0 1 .524-1.435c1.167-1.46 2.324-2.99 3.445-4.543.723-1.015 2.253-1.26 3.257-.537.619.445.98 1.157.98 1.904Zm6.258-9.852c0 .397-.105.805-.303 1.155a107.416 107.416 0 0 1-3.058 5.115 2.335 2.335 0 0 1-1.974 1.085 2.27 2.27 0 0 1-1.249-.374 2.297 2.297 0 0 1-1.086-1.961c0-.444.129-.876.373-1.261a99.957 99.957 0 0 0 2.919-4.88c.606-1.087 2.09-1.518 3.187-.9a2.355 2.355 0 0 1 1.191 2.02Zm9.084-21.436c0 .246-.035.479-.107.702a102.21 102.21 0 0 1-1.855 5.66 2.341 2.341 0 0 1-2.195 1.554 2.342 2.342 0 0 1-2.335-2.324c0-.28.047-.55.14-.804a101.584 101.584 0 0 0 1.776-5.418c.349-1.203 1.691-1.94 2.905-1.577a2.33 2.33 0 0 1 1.671 2.207Zm-23.432 38.632c.491.444.771 1.063.782 1.729 0 .572-.209 1.132-.607 1.575a118.938 118.938 0 0 1-4.099 4.32 2.357 2.357 0 0 1-1.657.677 2.296 2.296 0 0 1-1.646-.688 2.316 2.316 0 0 1-.689-1.647c0-.63.245-1.214.689-1.657a101.105 101.105 0 0 0 3.934-4.134c.829-.922 2.37-1.004 3.293-.175Zm19.486-27.634c0 .316-.071.619-.187.91a114.485 114.485 0 0 1-2.475 5.418 2.332 2.332 0 0 1-3.13 1.062 2.368 2.368 0 0 1-1.307-2.113c0-.35.081-.69.245-1.004a120.284 120.284 0 0 0 2.369-5.184c.48-1.155 1.892-1.727 3.06-1.237a2.332 2.332 0 0 1 1.425 2.148Zm8.079-33.904v.175a109.86 109.86 0 0 1-.573 5.932 2.34 2.34 0 0 1-2.312 2.053 2.39 2.39 0 0 1-.292-.022 2.322 2.322 0 0 1-2.043-2.301c0-.104 0-.198.013-.303.232-1.868.42-3.783.549-5.674a2.334 2.334 0 0 1 2.323-2.183l.163.012a2.348 2.348 0 0 1 2.172 2.31ZM457.71 338.668a2.337 2.337 0 0 1-2.335 2.359c-.21 0-.421-.024-.619-.081a111.003 111.003 0 0 1-5.709-1.73 2.324 2.324 0 0 1-1.588-2.205 2.053 2.053 0 0 1 .117-.748c.398-1.19 1.752-1.88 2.953-1.482a96.158 96.158 0 0 0 5.452 1.658 2.357 2.357 0 0 1 1.729 2.229Zm11.406 2.476c0 .116-.012.233-.023.349a2.335 2.335 0 0 1-2.312 1.973c-.116 0-.245-.012-.362-.022a116.325 116.325 0 0 1-5.861-1.086h-.011a2.361 2.361 0 0 1-1.845-2.301c.013-.163.024-.315.059-.478.257-1.226 1.529-2.055 2.766-1.786 1.939.408 3.794.746 5.617 1.038a2.356 2.356 0 0 1 1.972 2.313Zm-22.474-6.142c0 .292-.059.583-.163.853a2.319 2.319 0 0 1-2.172 1.482c-.292 0-.584-.058-.864-.163a107.39 107.39 0 0 1-5.464-2.358 2.34 2.34 0 0 1-1.144-3.094c.526-1.132 1.962-1.67 3.106-1.144 1.681.783 3.444 1.54 5.23 2.253a2.305 2.305 0 0 1 1.471 2.17Zm-20.537-10.916c0 .468-.139.923-.408 1.308a2.357 2.357 0 0 1-1.926 1.016c-.479 0-.934-.14-1.32-.41a108.827 108.827 0 0 1-4.821-3.49 2.354 2.354 0 0 1-.922-1.891c.011-.503.175-.98.49-1.39.759-.991 2.277-1.19 3.269-.432a115.605 115.605 0 0 0 4.554 3.305c.712.478 1.084 1.214 1.084 1.984Zm9.971 6c0 .386-.094.772-.28 1.12a2.32 2.32 0 0 1-2.055 1.24c-.386 0-.758-.105-1.096-.281a105.897 105.897 0 0 1-5.185-2.941 2.308 2.308 0 0 1-1.12-1.996c0-.421.116-.842.338-1.215.642-1.063 2.126-1.437 3.199-.782 1.623.98 3.292 1.925 4.962 2.812a2.38 2.38 0 0 1 1.237 2.044Zm79.155 7.415a2.325 2.325 0 0 1-1.586 2.895c-1.916.56-3.853 1.074-5.768 1.518-.163.047-.351.07-.526.07a2.324 2.324 0 0 1-2.335-2.335c0-1.098.737-2.032 1.798-2.277a94.9 94.9 0 0 0 5.523-1.46c1.203-.35 2.545.386 2.894 1.589Zm10.917-4.144c.128.292.187.594.187.91 0 .934-.572 1.774-1.437 2.137a100.92 100.92 0 0 1-5.568 2.16 2.27 2.27 0 0 1-.782.139c-.992 0-1.88-.63-2.207-1.564a2.025 2.025 0 0 1-.128-.794c0-.981.631-1.856 1.552-2.184 1.798-.641 3.596-1.33 5.324-2.054 1.168-.491 2.58.093 3.059 1.25Zm10.39-5.348c.198.339.292.725.305 1.109 0 .864-.456 1.659-1.203 2.079a113.264 113.264 0 0 1-5.301 2.754 2.339 2.339 0 0 1-1.016.235 2.34 2.34 0 0 1-2.335-2.324c0-.9.515-1.73 1.308-2.114a94.763 94.763 0 0 0 5.067-2.638c1.098-.607 2.58-.187 3.175.899Zm-32.607 12.399a2.339 2.339 0 0 1-1.892 2.708c-1.961.338-3.946.63-5.907.865-.082.01-.175.023-.269.023a2.337 2.337 0 0 1-2.323-2.066c-.012-.094-.012-.2-.012-.292a2.33 2.33 0 0 1 2.055-2.3c1.903-.223 3.807-.515 5.651-.83a2.331 2.331 0 0 1 2.697 1.892Zm-11.546 1.634v.129a2.343 2.343 0 0 1-2.184 2.358c-1.949.117-3.946.198-5.955.21h-.022a2.337 2.337 0 0 1-1.669-3.97 2.369 2.369 0 0 1 1.644-.7 103.89 103.89 0 0 0 5.699-.198l.152-.012c1.225 0 2.253.958 2.335 2.183Zm53.891-20.477c.28.396.431.864.431 1.342 0 .758-.361 1.47-.98 1.915a115.547 115.547 0 0 1-4.95 3.315 2.264 2.264 0 0 1-1.25.363c-.805 0-1.541-.41-1.973-1.087a2.293 2.293 0 0 1-.362-1.26c0-.794.409-1.53 1.086-1.961 1.611-1.017 3.21-2.09 4.741-3.176 1.014-.724 2.544-.468 3.257.549Zm-65.555 20.722v.118a2.336 2.336 0 0 1-2.335 2.229h-.116a107.958 107.958 0 0 1-5.931-.432 2.323 2.323 0 0 1-2.103-2.323c0-.07 0-.151.013-.233.116-1.273 1.261-2.22 2.557-2.09 1.902.186 3.818.327 5.685.408a2.343 2.343 0 0 1 2.23 2.323Zm20.362-209.88c0 .118-.013.235-.024.363a2.355 2.355 0 0 1-2.311 1.985c-.118 0-.223 0-.339-.023a100.406 100.406 0 0 0-5.663-.666 2.34 2.34 0 0 1-2.125-2.3v-.245c.117-1.284 1.214-2.218 2.546-2.114 1.973.176 3.969.42 5.918.7a2.366 2.366 0 0 1 1.998 2.3Zm22.52 5.932c.012.292-.046.584-.152.852a2.313 2.313 0 0 1-2.183 1.495c-.28 0-.572-.06-.841-.152a91.775 91.775 0 0 0-5.369-1.915 2.319 2.319 0 0 1-1.507-2.942c.386-1.19 1.74-1.891 2.941-1.494 1.845.595 3.737 1.26 5.616 1.984a2.312 2.312 0 0 1 1.495 2.172Zm-34.137-6.958c-.047 1.33-1.074 2.31-2.335 2.31h-.07a125.49 125.49 0 0 0-3.62-.057h-.198a2.342 2.342 0 0 1 0-4.682c1.33 0 2.65.024 3.969.082a2.313 2.313 0 0 1 2.254 2.347Zm94.076 74.813a2.323 2.323 0 0 1-2.219-1.612 96.458 96.458 0 0 0-1.902-5.288c-.141-.363-.198-.655-.188-.946 0-.958.573-1.81 1.471-2.172 1.192-.455 2.569.152 3.036 1.332a110.943 110.943 0 0 1 2.02 5.614 2.348 2.348 0 0 1-1.483 2.954c-.245.082-.49.118-.735.118ZM479.74 131.323v.116a2.327 2.327 0 0 1-2.207 2.347 93.724 93.724 0 0 0-5.684.467c-.082.012-.164.012-.258.012-1.191 0-2.184-.9-2.322-2.08 0-.08-.013-.162-.013-.244 0-1.202.889-2.206 2.09-2.335 1.926-.21 3.923-.373 5.942-.49h.129a2.33 2.33 0 0 1 2.323 2.207Zm-11.616 1.015c.012.14.022.28.022.42a2.305 2.305 0 0 1-1.949 2.265 102.98 102.98 0 0 0-5.603 1.098 2.455 2.455 0 0 1-.502.058 2.369 2.369 0 0 1-2.288-1.833 2.663 2.663 0 0 1-.047-.525c0-1.097.747-2.02 1.82-2.265 1.916-.421 3.889-.806 5.851-1.132 1.295-.222 2.473.665 2.696 1.914Zm44.387 2.429c0 .198-.033.397-.08.584a2.326 2.326 0 0 1-2.254 1.739c-.199 0-.398-.023-.596-.07a99.846 99.846 0 0 0-5.557-1.296 2.347 2.347 0 0 1-1.821-2.755c.257-1.238 1.507-2.08 2.755-1.821a97.24 97.24 0 0 1 5.814 1.353 2.337 2.337 0 0 1 1.739 2.266Zm56.192 40.068a2.296 2.296 0 0 1-1.412.479 2.318 2.318 0 0 1-1.857-.923 100.463 100.463 0 0 0-3.583-4.448 2.341 2.341 0 0 1-.562-1.53c0-.676.304-1.32.817-1.762.946-.806 2.488-.677 3.293.256a106.123 106.123 0 0 1 3.748 4.659c.303.397.466.875.479 1.389 0 .747-.327 1.424-.923 1.88Zm6.34 9.807a2.34 2.34 0 0 1-1.203.338 2.36 2.36 0 0 1-2.008-1.144 109.654 109.654 0 0 0-3.023-4.74c-.304-.456-.444-.91-.444-1.378 0-.77.372-1.494 1.016-1.937 1.038-.701 2.545-.398 3.245.63h.011a120.676 120.676 0 0 1 3.199 5.032c.223.36.339.782.339 1.213a2.344 2.344 0 0 1-1.132 1.986Zm-13.719-18.855a2.328 2.328 0 0 1-3.292-.082 101.024 101.024 0 0 0-4.051-4.028 2.353 2.353 0 0 1-.736-1.681c0-.607.222-1.18.643-1.623.84-.9 2.392-.946 3.293-.093a96.258 96.258 0 0 1 4.225 4.203 2.3 2.3 0 0 1 .654 1.61 2.374 2.374 0 0 1-.736 1.694Zm17.956 29.526a2.35 2.35 0 0 1-2.125-1.366 104.662 104.662 0 0 0-2.475-5.056c-.221-.42-.315-.805-.315-1.191a2.33 2.33 0 0 1 1.25-2.031c1.108-.584 2.568-.128 3.152.969v.012a112.455 112.455 0 0 1 2.638 5.346v.013c.128.303.21.618.21.957 0 .91-.537 1.75-1.366 2.136-.303.14-.63.21-.969.21Zm-35.036-46.233c0 .467-.129.922-.396 1.308a2.333 2.333 0 0 1-1.939 1.027c-.456 0-.911-.128-1.285-.385h-.011a97.274 97.274 0 0 0-4.822-3.047 2.286 2.286 0 0 1-1.144-1.985 2.224 2.224 0 0 1 .327-1.215c.63-1.062 2.126-1.46 3.199-.816a107.866 107.866 0 0 1 5.031 3.175 2.31 2.31 0 0 1 1.04 1.938Zm9.317 7.04c0 .537-.199 1.074-.549 1.482a2.338 2.338 0 0 1-3.292.28 102.471 102.471 0 0 0-4.46-3.56 2.304 2.304 0 0 1-.935-1.868c0-.513.164-.992.479-1.401.748-.993 2.265-1.214 3.27-.456a106.883 106.883 0 0 1 4.657 3.713 2.31 2.31 0 0 1 .83 1.81Zm-19.333-12.96a2.351 2.351 0 0 1-2.347 2.323c-.362 0-.735-.093-1.074-.267a97.937 97.937 0 0 0-5.126-2.487 2.338 2.338 0 0 1-1.366-2.125 2.153 2.153 0 0 1 .199-.97c.513-1.131 1.937-1.68 3.083-1.166h.01l.117.058a107.11 107.11 0 0 1 5.242 2.545 2.34 2.34 0 0 1 1.262 2.09Zm-59.006 86.103a12.065 12.065 0 0 0-1.708 2.33l-73.797-42.61a97.013 97.013 0 0 1 41.506-38.766l33.999 79.046Zm27.953-41.11c-7.543 16.643-12.109 26.876-14.838 33.193l-32.982-76.681a95.92 95.92 0 0 1 27.888-4.131 95.751 95.751 0 0 1 38.079 7.864 9535.796 9535.796 0 0 0-18.147 39.755Zm-12.599 38.4-1.602-3.726c6.684-15.457 21.882-48.87 33.411-73.948a96.159 96.159 0 0 1 8.099 4.085c-15.662 28.643-33.59 61.548-39.908 73.59Zm4.043 4.866c-.852-1.46-2-2.723-3.361-3.716 6.471-12.274 27.847-51.496 40.237-74.156 18.799 10.93 33.571 28.028 41.537 48.514l-78.413 29.358Zm1.415 3.677c-.187-.922-.489-1.8-.873-2.634l78.3-29.316a95.513 95.513 0 0 1 2.452 7.519l-79.879 24.43Zm-.359 6.212a12.147 12.147 0 0 0 .537-5.044l80.02-24.475a95.976 95.976 0 0 1 3.329 25.063 95.78 95.78 0 0 1-7.88 38.117l-76.006-33.661Zm-1.765 3.415c.53-.72.987-1.495 1.35-2.324l75.939 33.632a95.873 95.873 0 0 1-3.688 7.402l-73.601-38.71Zm-3.64 3.289a12.227 12.227 0 0 0 2.889-2.365l73.77 38.798c-10.588 18.543-27.143 33.247-47.047 41.465l-29.612-77.898Zm-4.345 1.534a12.18 12.18 0 0 0 3.303-.987l29.567 77.78a95.02 95.02 0 0 1-8.763 3.01l-24.107-79.803Zm-5.893-12.013a4.087 4.087 0 1 1 8.174.004 4.087 4.087 0 0 1-8.174-.004Zm.226 11.525c1.215.407 2.51.637 3.861.637.209 0 .415-.021.622-.033l24.168 80.007a95.992 95.992 0 0 1-25.666 3.5 95.776 95.776 0 0 1-37.734-7.707l34.749-76.404Zm-3.575-1.916c.761.59 1.593 1.095 2.484 1.492l-34.721 76.346a95.72 95.72 0 0 1-7.852-3.901l40.089-73.937Zm-3.009-3.403a12.189 12.189 0 0 0 2.101 2.626l-40.194 74.133c-18.787-10.748-33.617-27.63-41.752-47.907l79.845-28.852Zm-1.493-3.917c.192 1.01.515 1.97.94 2.876l-79.722 28.806a95.637 95.637 0 0 1-2.722-8.1l81.504-23.582Zm-77.484-40.85a96.036 96.036 0 0 1 4.437-8.976l73.857 42.643c-.164.372-.31.753-.436 1.143l-77.858-34.81Zm77.55 35.952a12.127 12.127 0 0 0-.289 2.609c0 .379.023.752.057 1.122l-81.658 23.626a96.048 96.048 0 0 1-3.431-25.43 95.767 95.767 0 0 1 7.322-36.801l77.999 34.874Zm10.996 111.672c-60.609 0-109.744-49.135-109.744-109.744 0-43.653 25.489-81.35 62.394-99.03l.756 1.76a2.354 2.354 0 0 0-.946 1.839c0 .35.081.689.233 1.004a2.346 2.346 0 0 0 2.114 1.343c.128 0 .254-.022.381-.044l.475 1.105c-34.184 16.537-57.818 51.572-57.818 92.023 0 56.329 45.826 102.155 102.155 102.155s102.155-45.826 102.155-102.155c0-56.328-45.826-102.155-102.155-102.155a101.82 101.82 0 0 0-30.213 4.56l-.432-1.003a90.61 90.61 0 0 1 2.473-.732 2.361 2.361 0 0 0 1.612-2.884c-.35-1.214-1.67-1.961-2.883-1.611-1.01.284-2.029.592-3.056.916l-.734-1.706a109.654 109.654 0 0 1 33.233-5.13c60.61 0 109.744 49.135 109.744 109.745 0 60.609-49.134 109.744-109.744 109.744ZM126.121 219.41a18 18 0 0 0-4.174-.505 18.02 18.02 0 0 0-4.03.468l-33.861-71.575a96.695 96.695 0 0 1 39.114-8.237c18.028 0 34.921 4.934 49.412 13.514l-46.461 66.335Zm19.67-1.628L185 161.803a98.115 98.115 0 0 1 18.845 20.727l-58.054 35.253Zm-5.745 8.204 4.079-5.827 60.352-36.647a97.787 97.787 0 0 1 4.533 7.605c-26.028 13.065-54.991 27.656-68.964 34.869Zm76.617 37.81-27.33-8.696 27.694 4.423.587-3.678.928.234a96.474 96.474 0 0 1-1.879 7.718Zm-60.824 32.984c0-.008.006-.015.006-.024a1.75 1.75 0 0 0-.894-1.676l-22.711-43.423a18.111 18.111 0 0 0 2.492-2.09l28.654 46.643a1.722 1.722 0 0 0-.538 1.116 1.75 1.75 0 0 0 1.606 1.885l.815.067 11.497 18.714a97.009 97.009 0 0 1-7.478 4.5l-13.449-25.712Zm-37.83-31.707a8.744 8.744 0 0 0 6.519 8.242l-.93 2.803c-4.741.11-8.552 3.979-8.552 8.745a8.758 8.758 0 0 0 7.021 8.584 1.748 1.748 0 0 0 1.464 1.903c.358.056.758.115 1.195.176a1.751 1.751 0 0 0 1.973-1.499c.042-.305-.005-.6-.11-.868 3.469-1.164 5.97-4.435 5.97-8.296a8.728 8.728 0 0 0-3.415-6.926l1.789-5.393a8.755 8.755 0 0 0 4.568-7.691 8.755 8.755 0 0 0-8.755-8.757 8.726 8.726 0 0 0-6.346 2.734l-.729-.217.971-3.777c.434.03.864.067 1.305.067 3.41 0 6.587-.966 9.305-2.614l22.235 42.51-.407-.033c-.958-.062-1.809.638-1.889 1.6a1.752 1.752 0 0 0 1.601 1.89l1.16.098a1.723 1.723 0 0 0 1.199-.372l13.099 25.045a96.672 96.672 0 0 1-45.08 11.114c-7.663 0-15.11-.917-22.267-2.601l17.106-66.467Zm6.602-.22a2.134 2.134 0 1 1 4.268-.002 2.134 2.134 0 0 1-4.268.002Zm-.808 22.145a2.135 2.135 0 1 1-.001-4.27 2.135 2.135 0 0 1 .001 4.27Zm-10.219-24.104 3.51 1.044-17.33 67.339a96.334 96.334 0 0 1-6.896-1.993l20.716-66.39Zm-7.303-17.145a18.087 18.087 0 0 0 2.408 3.298l-6.16 10.559 9.935 2.955-20.702 66.348c-22.281-7.623-40.931-23.107-52.636-43.141l67.155-40.02Zm-1.77-4.45a17.823 17.823 0 0 0 1.237 3.41l-67.205 40.046a96.912 96.912 0 0 1-4.132-8.14l70.1-35.315Zm.622-10.78a17.923 17.923 0 0 0-1.186 6.385c0 1.1.115 2.172.304 3.219L33.93 275.552a96.709 96.709 0 0 1-8.05-38.7 97.013 97.013 0 0 1 3.632-26.268l75.621 19.937Zm2.276-4.198a17.938 17.938 0 0 0-1.822 3.11L29.831 209.46a96.662 96.662 0 0 1 2.86-8.3l74.718 25.16Zm6.747-5.624a18.034 18.034 0 0 0-5.997 4.646l-75.038-25.27c8.021-19.568 22.231-35.962 40.196-46.728l40.839 67.352Zm1.072-.484-40.899-67.451a97.243 97.243 0 0 1 8.663-4.482l33.773 71.389c-.524.157-1.035.342-1.537.544Zm1.128 33.793c1.001.327 2.042.558 3.112.706l-.918 3.568-3.228-.96 1.034-3.314Zm-3.039-1.307c.623.34 1.275.638 1.942.905l-1.056 3.383-2.887-.86 2.001-3.428Zm15.383-15.795a6.753 6.753 0 1 1-13.506-.002 6.753 6.753 0 0 1 13.506.002Zm49.043 80.447-11.208-18.246c.525-.266.916-.773.969-1.404a1.75 1.75 0 0 0-1.603-1.887l-1.169-.094c-.092-.007-.182 0-.273.008l-28.91-47.06a18.101 18.101 0 0 0 1.459-1.923l44.135 7.047 35.146 11.236c-6.53 21.534-20.332 39.935-38.546 52.323Zm42.465-87.388c.161 2.276.252 4.57.252 6.888 0 6.179-.583 12.222-1.689 18.084l-.972-.245 1.621-10.156-80.238-12.811-.108-.347c.201.08.42.128.651.128h.02l1.168-.014a1.75 1.75 0 0 0 1.73-1.772c-.011-.967-.841-1.783-1.771-1.73l-1.168.013a1.75 1.75 0 0 0-1.58 1.049c-.031-.062-.061-.128-.091-.19l.595-.85c14.104-7.275 49.031-24.868 70.914-35.855a96.619 96.619 0 0 1 10.486 35.544 1.744 1.744 0 0 0 .18 2.264Zm12.706 6.888c0 3.79-.192 7.535-.567 11.225a42.077 42.077 0 0 0-.977 2.51c.03-.23.065-.462.092-.694.012-.094.012-.198.012-.292a2.34 2.34 0 0 0-2.055-2.3 2.316 2.316 0 0 0-2.591 2.043 129.05 129.05 0 0 1-.829 5.64 1.7 1.7 0 0 0-.047.419 2.34 2.34 0 0 0 2.347 2.324c.49 0 .945-.16 1.323-.421a41.33 41.33 0 0 0-.393 2.79 2.321 2.321 0 0 0-1.572-1.26 2.35 2.35 0 0 0-2.803 1.75 108.132 108.132 0 0 1-1.447 5.51 2.337 2.337 0 0 0 1.588 2.896c.211.07.432.093.654.093a2.33 2.33 0 0 0 2.242-1.68c.417-1.426.793-2.864 1.15-4.298-.013.42-.032.84-.032 1.264 0 .48.02.957.036 1.436a109.238 109.238 0 0 1-15.815 33.76 1.739 1.739 0 0 0-.681-.21 98.587 98.587 0 0 0 3.211-4.855c.233-.362.351-.782.362-1.203a2.33 2.33 0 0 0-1.109-2.007c-1.063-.666-2.556-.316-3.211.746-1.004 1.6-2.054 3.2-3.152 4.752-.28.398-.42.865-.42 1.355 0 .747.373 1.46.992 1.89.132.095.28.152.425.216a1.783 1.783 0 0 0-.171.634 1.747 1.747 0 0 0 1.468 1.848c-20.025 26.634-51.886 43.863-87.774 43.863-60.609 0-109.744-49.135-109.744-109.744 0-60.61 49.135-109.744 109.744-109.744 20.707 0 40.073 5.738 56.599 15.707l-.389.555a118.19 118.19 0 0 0-5.101-2.882c-1.097-.596-2.568-.141-3.152.968a2.3 2.3 0 0 0-.28 1.109c.011.853.49 1.647 1.238 2.044a102.52 102.52 0 0 1 4.603 2.604l-.748 1.069c-15.448-9.24-33.499-14.558-52.77-14.558-56.865 0-103.128 46.263-103.128 103.128S66.305 339.98 123.17 339.98c32.568 0 61.652-15.18 80.566-38.83.148.433.463.793.872.998a108.89 108.89 0 0 1-3.01 3.597 2.34 2.34 0 0 0 .211 3.304 2.33 2.33 0 0 0 1.54.572c.666 0 1.308-.28 1.752-.782a111.326 111.326 0 0 0 3.818-4.59 2.28 2.28 0 0 0 .501-1.434c0-.724-.327-1.39-.898-1.845-.071-.056-.149-.096-.226-.141.001-.011.008-.02.009-.032a1.75 1.75 0 0 0-1.618-1.874l-1.151-.085c13.027-17.266 20.762-38.74 20.762-61.986 0-32.157-14.797-60.92-37.937-79.847l3.831-5.47c24.839 20.12 40.722 50.86 40.722 85.317Zm30.302 3.64-1.145 17.48-16.522 4.195c.904-10.303 8.064-18.802 17.667-21.675Zm10.767 36.357 13.684 5.459c-4.485 4.324-10.573 6.997-17.295 6.997-2.107 0-4.143-.29-6.098-.782l9.709-11.674Zm-3.611-37.411c8.672 0 16.303 4.43 20.77 11.149l-15.699 3.989-9.309-14.752a24.96 24.96 0 0 1 4.238-.386Zm24.934 24.933c0 5.369-1.714 10.327-4.599 14.397l-7.904-12.525 10.208-12.274a24.815 24.815 0 0 1 2.295 10.402Zm-35.143 22.732c-8.353-3.758-14.243-11.97-14.669-21.62l15.675 6.255-1.006 15.365Zm65.528-46.621a3.386 3.386 0 1 1 3.055 6.044 3.386 3.386 0 0 1-3.055-6.044Zm157.552-126.8c-13.47 0-26.43 2.17-38.561 6.166l-23.204-53.95-194.55 18.876-17.851-57.405-.29.09.242-.116s-3.648-2.488-9.874-2.876c.547 3.345-.92 5.958-3.155 6.969l-1.182.367c-.079.015-.156.035-.236.045l.085.002-.083.026 19.335 62.18-26.431 37.739c-18.721-11.487-40.745-18.113-64.318-18.113C55.146 113.682 0 168.827 0 236.852c0 68.024 55.146 123.17 123.17 123.17 43.715 0 82.106-22.776 103.967-57.106a1.808 1.808 0 0 0 1.533 1.12l1.088.078a1.751 1.751 0 1 0 .246-3.493l-1.077-.078-.083-.006c-.079-.006-.156.002-.232.007a122.755 122.755 0 0 0 7.108-13.598c4.902 7.509 12.175 13.329 20.761 16.39-.19.258-.314.568-.339.91a1.75 1.75 0 0 0 1.62 1.874l1.167.083a1.748 1.748 0 0 0 1.864-1.597c.398.094.793.194 1.195.276.045.87.724 1.593 1.615 1.656l1.166.085a1.736 1.736 0 0 0 1.726-1.076c.462.043.925.078 1.391.106a1.747 1.747 0 0 0 1.562 1.31l1.159.085c.046.005.092.006.136.006.82 0 1.498-.583 1.678-1.371 21.892-1.07 39.313-19.155 39.313-41.312 0-3.007-.33-5.935-.938-8.76l20.631-8.056a5.542 5.542 0 0 0-4.03-10.322l-20.38 7.958c-6.915-13.184-20.726-22.183-36.645-22.183a41.163 41.163 0 0 0-24.18 7.814c-1.763-36.546-19.454-68.91-46.281-90.308l19.707-28.136 34.264 110.187c4.362-2.452 9.295-3.754 14.493-4.506L231.531 99.576l180.384-17.501 2.155 5.012-119.653 137.585c4.91 2.23 8.579 5.698 11.451 9.96L420.726 102.56l9.858 22.92c-41.68 19.744-70.511 62.188-70.511 111.37 0 68.025 55.146 123.17 123.17 123.17 68.025 0 123.17-55.145 123.17-123.17 0-68.024-55.145-123.17-123.17-123.17Z" fill="#000105" mask="url(#b)"/></g><path d="m270.46 234.006-.003 1.168c.376.001.751.009 1.124.023l.047-1.166-.018-.001h-.002l-.125-.005h-.001l-.035-.001h-.002l-.035-.001h-.001l-.035-.002H271.335l-.016-.001H271.281l-.016-.001h-.02l-.016-.001H271.207l-.015-.001H271.156l-.006-.002H271.113l-.009-.001H271.059l-.007-.001H271l-.006-.001h-.053l-.008-.001H270.875l-.007-.001h-.063l-.013-.002H270.716l-.256-.002Zm3.495.206-.135 1.16c.374.043.745.093 1.114.149l.178-1.154-.144-.021h-.001l-.034-.005-.002-.001a.07.07 0 0 1-.016-.002h-.002c-.005-.001-.01-.001-.014-.003h-.006a.06.06 0 0 0-.015-.002l-.003-.001-.011-.001-.007-.001c-.003-.002-.008-.002-.013-.003l-.007-.001-.009-.001-.008-.001-.01-.001-.009-.002-.009-.001-.007-.001-.012-.002-.008-.001-.009-.002-.007-.001h-.011l-.01-.001-.008-.001-.008-.001-.009-.003-.011-.001-.007-.001-.008-.001-.01-.001-.011-.002-.008-.001-.008-.001-.01-.001-.01-.002c-.003 0-.005 0-.008-.002l-.008-.001-.012-.001-.008-.001-.009-.001-.007-.001-.011-.002-.009-.001-.008-.001-.008-.001-.014-.002h-.006c-.003-.002-.007-.002-.01-.003h-.005l-.016-.002-.004-.001-.011-.001h-.006a.033.033 0 0 0-.015-.003l-.003-.001h-.013l-.004-.001-.016-.001c-.001-.002-.001-.002-.003-.002l-.013-.001a.023.023 0 0 1-.004-.001.111.111 0 0 1-.017-.002h-.001l-.015-.001c-.001-.002-.002-.002-.003-.002a.088.088 0 0 1-.017-.002l-.018-.002h-.001a.368.368 0 0 1-.035-.005h-.001c-.011-.001-.024-.002-.035-.005l-.291-.034Zm3.449.599-.265 1.136c.365.086.728.178 1.088.277l.308-1.127c-.24-.065-.48-.127-.722-.188h-.002l-.016-.005c-.001 0 .001 0 0 0a.238.238 0 0 1-.02-.005l-.014-.003h-.003c-.004 0-.009-.003-.014-.004l-.005-.001-.014-.003-.004-.002-.012-.002-.006-.001a.049.049 0 0 1-.011-.004l-.009-.002-.008-.001-.008-.002c-.002-.002-.005-.002-.009-.003a.043.043 0 0 0-.012-.002l-.006-.002-.008-.003-.008-.001-.013-.003-.006-.002a1.442 1.442 0 0 1-.029-.006l-.006-.002-.03-.007-.004-.001-.032-.007-.004-.001a.117.117 0 0 0-.02-.005l-.011-.003h-.003l-.02-.005-.001-.001c-.005 0-.007-.002-.011-.003h-.003a.162.162 0 0 0-.019-.004l-.002-.001-.006-.001Zm3.358.989-.393 1.098c.353.127.703.259 1.05.398l.435-1.083a.843.843 0 0 1-.05-.021h-.002l-.015-.006h-.002l-.014-.006-.004-.001-.014-.006-.002-.001-.014-.006-.004-.001-.013-.006-.004-.001a.084.084 0 0 0-.012-.004c-.002-.002-.003-.003-.005-.003l-.014-.005-.005-.001c-.002-.002-.005-.003-.009-.004l-.006-.003-.012-.004-.007-.004-.008-.002-.007-.004a.084.084 0 0 1-.012-.004c-.002-.002-.005-.002-.007-.003a.069.069 0 0 0-.008-.003l-.009-.004-.009-.003c-.003-.001-.005-.003-.008-.003a.019.019 0 0 1-.007-.002l-.011-.005a.049.049 0 0 1-.007-.003.011.011 0 0 1-.008-.003l-.008-.003a.049.049 0 0 1-.011-.004l-.007-.003-.007-.002-.013-.006-.006-.003-.009-.003-.005-.002a.093.093 0 0 0-.013-.004l-.007-.002-.008-.004-.007-.002a.026.026 0 0 0-.012-.005.014.014 0 0 0-.006-.002l-.01-.005-.005-.001-.014-.006-.004-.001-.014-.006-.002-.001-.014-.005-.003-.001c-.006-.001-.01-.004-.016-.006h-.001l-.014-.006-.003-.001c-.005-.002-.011-.003-.015-.006h-.002l-.015-.007h-.001a.138.138 0 0 1-.016-.006l-.001-.001c-.012-.003-.023-.008-.033-.012-.002 0 0 .002-.002 0a27.078 27.078 0 0 0-.376-.139h-.001l-.032-.012-.002-.001c-.006-.002-.012-.003-.016-.006h-.001l-.014-.005-.005-.001-.013-.004-.006-.003-.009-.003-.004-.001Zm3.224 1.364-.517 1.048c.337.165.67.336.999.514l.555-1.026-.004-.003-.006-.003-.012-.006-.006-.004-.007-.003-.011-.006-.005-.003a.047.047 0 0 0-.01-.005l-.005-.002c-.004-.003-.009-.005-.013-.009l-.003-.001c-.004-.002-.009-.004-.012-.007l-.003-.001a.046.046 0 0 1-.014-.007l-.003-.001a.1.1 0 0 0-.014-.008c-.005-.003-.011-.005-.016-.009l-.002-.001-.015-.008h-.001l-.013-.008-.003-.001c-.004-.002-.01-.004-.014-.008l-.001-.001a.077.077 0 0 1-.016-.007l-.001-.001-.014-.007-.003-.002a.061.061 0 0 0-.014-.007c-.005-.004-.01-.006-.015-.008l-.002-.002c-.011-.004-.02-.01-.03-.015l-.003-.001c-.004-.004-.01-.006-.014-.008l-.003-.001a.035.035 0 0 0-.012-.007l-.004-.002c-.004-.002-.009-.004-.012-.007l-.003-.001a.076.076 0 0 1-.013-.007l-.004-.001-.012-.007-.005-.002c-.003-.003-.006-.004-.011-.006l-.006-.004-.01-.004c-.001-.002-.003-.003-.006-.004-.003-.002-.008-.005-.011-.005l-.006-.003c-.003-.001-.005-.004-.009-.005l-.006-.003-.011-.006-.007-.004-.006-.003-.011-.006-.008-.004-.008-.004-.004-.003a.05.05 0 0 1-.015-.007l-.004-.001-.009-.005-.002-.002-.017-.008-.003-.002a.418.418 0 0 1-.029-.016h-.001a.148.148 0 0 1-.031-.015h-.001c-.144-.074-.288-.146-.432-.218Zm3.047 1.723-.631.981c.314.203.625.412.933.626l.667-.957a27.33 27.33 0 0 0-.8-.541l-.001-.001-.015-.009v-.002l-.014-.007-.002-.001-.014-.009c-.001-.001-.002-.001-.002-.003a.047.047 0 0 1-.012-.007l-.003-.002-.012-.008c-.002-.001-.002-.002-.005-.002a.07.07 0 0 0-.01-.008l-.006-.002-.009-.007a.016.016 0 0 0-.006-.003l-.011-.007c-.002-.003-.003-.003-.006-.005l-.005-.004a.03.03 0 0 0-.008-.004c-.002-.003-.006-.005-.009-.007l-.009-.004-.004-.003-.006-.004Zm2.832 2.056-.737.905c.29.237.576.478.857.726l.771-.876c-.292-.258-.589-.51-.891-.755Zm2.584 2.363-.836.815a33 33 0 0 1 .771.818l.865-.783a27.981 27.981 0 0 0-.284-.308l-.025-.027v-.001l-.025-.026-.012-.013v-.001l-.024-.026-.002-.001c-.007-.008-.015-.018-.023-.025l-.001-.001-.013-.013a.615.615 0 0 0-.024-.026l-.001-.001-.025-.027a55.91 55.91 0 0 0-.341-.354Zm2.301 2.638-.923.716c.231.297.454.597.673.901l.949-.682-.002-.001-.009-.012a.008.008 0 0 0-.002-.004.022.022 0 0 0-.007-.009l-.002-.003a.101.101 0 0 1-.009-.013l-.003-.005-.007-.009-.005-.007-.006-.007-.003-.006-.008-.011-.005-.005-.004-.007c-.002-.003-.002-.004-.005-.006a.2.2 0 0 0-.007-.01l-.006-.007-.003-.006-.006-.01-.006-.007-.005-.005-.006-.008-.005-.008-.005-.007-.005-.007a.067.067 0 0 1-.007-.011l-.005-.005a.012.012 0 0 0-.005-.005c-.001-.004-.003-.005-.004-.007a.067.067 0 0 1-.007-.011l-.006-.006-.003-.007-.008-.008-.004-.007-.005-.006-.006-.008-.006-.008-.005-.008a.018.018 0 0 0-.004-.005l-.008-.011a.015.015 0 0 1-.004-.006l-.006-.008a.01.01 0 0 1-.003-.005.04.04 0 0 1-.008-.01l-.004-.004c-.002-.003-.004-.007-.008-.01l-.001-.004a.087.087 0 0 1-.009-.011c-.001-.003-.002-.004-.004-.005l-.008-.012-.002-.001a.083.083 0 0 0-.01-.015l-.01-.013-.001-.002c-.004-.003-.006-.008-.01-.012l-.001-.001-.01-.014-.001-.002-.021-.028c-.12-.16-.241-.32-.364-.479Zm1.988 2.881-.998.608c.196.319.385.643.567.97l1.019-.57a43.97 43.97 0 0 0-.418-.727l-.001-.001-.017-.028-.003-.003c-.002-.005-.004-.01-.008-.012l-.002-.006-.004-.008-.005-.006a.03.03 0 0 0-.006-.011.068.068 0 0 0-.006-.009l-.001-.002-.117-.195Zm1.649 3.089-1.059.49c.157.339.307.682.452 1.028l1.077-.45c-.048-.116-.098-.231-.147-.346h-.001l-.012-.032-.001-.001a1.014 1.014 0 0 0-.014-.032l-.001-.002-.008-.019v-.001l-.005-.009-.001-.005a.1.1 0 0 0-.007-.015l-.002-.004-.003-.009c-.002-.001-.002-.002-.003-.005a.116.116 0 0 1-.006-.015l-.001-.005a.018.018 0 0 1-.005-.007l-.001-.004c-.004-.006-.005-.011-.007-.016l-.003-.004a.126.126 0 0 0-.003-.01h-.001a.132.132 0 0 0-.008-.019l-.002-.005c-.003-.004-.004-.009-.006-.013l-.003-.006-.002-.007a.057.057 0 0 1-.004-.007l-.005-.011-.003-.008c-.001-.002-.002-.006-.004-.007l-.003-.008-.004-.01c-.002-.002-.003-.005-.004-.009a.016.016 0 0 1-.003-.006.061.061 0 0 1-.005-.012l-.004-.005-.003-.01a.014.014 0 0 1-.002-.004l-.006-.014-.002-.005-.006-.011-.001-.003-.007-.014a.023.023 0 0 0-.001-.004l-.006-.014h-.001l-.007-.016-.001-.003-.013-.03-.002-.001a12.625 12.625 0 0 0-.12-.265Zm1.287 3.255-1.109.366c.118.355.228.712.332 1.072l1.123-.323-.097-.324-.001-.003a.181.181 0 0 0-.009-.031l-.001-.003c-.002-.011-.006-.021-.009-.03l-.001-.006-.004-.011-.003-.01-.002-.008-.002-.006-.003-.01-.003-.011-.003-.007a.024.024 0 0 1-.002-.009l-.002-.006-.003-.012c-.001-.002-.003-.004-.003-.007l-.004-.013v-.003a.026.026 0 0 1-.005-.012l-.001-.005-.005-.015-.001-.002a.05.05 0 0 0-.004-.013v-.004l-.006-.016v-.001l-.005-.016-.001-.002-.004-.016-.006-.018-.006-.016v-.001a15.8 15.8 0 0 0-.082-.259l-.001-.003-.01-.031c0-.002 0-.003-.002-.003-.003-.011-.006-.022-.01-.031l-.001-.005-.004-.014-.002-.004a.164.164 0 0 0-.003-.011l-.002-.006a.043.043 0 0 0-.005-.013l-.002-.007a.019.019 0 0 0-.002-.007.013.013 0 0 0-.003-.008l-.001-.004a.076.076 0 0 0-.006-.018v-.002l-.014-.042Zm.908 3.381-1.144.238c.076.364.145.733.208 1.104l1.151-.195c-.025-.146-.05-.294-.078-.439v-.002c-.002-.01-.004-.023-.007-.032v-.005l-.003-.015-.001-.007-.001-.008-.001-.008-.002-.01-.003-.011-.001-.007a.036.036 0 0 0-.002-.01v-.003a.185.185 0 0 1-.004-.016l-.001-.005-.005-.033v-.001l-.106-.535Zm.515 3.462-1.162.106c.033.371.06.745.081 1.12l1.166-.062c-.021-.39-.05-.778-.085-1.164Zm-1.043 3.475c-.009.376-.023.75-.045 1.123l1.165.068c.023-.387.038-.776.046-1.167l-1.166-.024Zm-.259 3.36c-.05.372-.107.741-.171 1.109l1.15.198.001-.004.001-.009.001-.007.004-.014v-.004l.002-.012.001-.004c.002-.005.002-.011.003-.016v-.001l.003-.018c.041-.245.08-.491.116-.737v-.001c.001-.006.001-.012.003-.017v-.001l.002-.015.001-.006.001-.012.001-.004.002-.013.001-.008.001-.007.003-.019.031-.223-1.157-.155Zm-.638 3.306c-.091.364-.19.726-.295 1.083l1.119.328c.011-.031.02-.063.029-.096l.011-.033v-.002l.009-.032.001-.004.009-.031.001-.002.004-.018.002-.004.002-.01.002-.006.004-.013.002-.007.002-.008.003-.006.003-.014.002-.007a.04.04 0 0 1 .002-.007l.003-.008a.05.05 0 0 1 .002-.012l.002-.008c.002-.002.002-.004.003-.007a.164.164 0 0 1 .005-.019l.002-.008.003-.008.002-.01a.037.037 0 0 0 .002-.009.013.013 0 0 0 .003-.008l.002-.007a.05.05 0 0 1 .004-.013l.002-.006.002-.009.002-.007a.093.093 0 0 1 .004-.013l.001-.007.002-.008a.02.02 0 0 0 .002-.006l.004-.013.002-.008.002-.007.002-.011a.016.016 0 0 0 .003-.009l.002-.007.002-.01a.036.036 0 0 0 .004-.009l.002-.008c0-.003.001-.007.003-.009l.002-.008.002-.011a.019.019 0 0 0 .002-.008.019.019 0 0 0 .002-.008c.002-.002.002-.006.003-.008l.003-.012.001-.007c.002-.002.003-.004.003-.008a.024.024 0 0 0 .002-.008.042.042 0 0 1 .004-.012l.001-.007.003-.007.002-.009a.056.056 0 0 1 .004-.012l.001-.006.008-.029.001-.005a.263.263 0 0 1 .008-.03l.001-.004.008-.033.086-.33-1.133-.285Zm-1.009 3.212a30.61 30.61 0 0 1-.417 1.043l1.075.454c.029-.066.056-.133.085-.201v-.001l.012-.03.002-.005.006-.014.001-.005a.035.035 0 0 0 .005-.008l.002-.007.005-.011.003-.009a.019.019 0 0 0 .002-.007c.005-.008.009-.019.013-.028l.001-.004a.185.185 0 0 1 .013-.029v-.001c.045-.113.091-.225.135-.338v-.001a.084.084 0 0 0 .008-.02l.002-.001.003-.011.001-.002.007-.017.001-.005a.069.069 0 0 0 .003-.008l.003-.006.006-.013.001-.007.004-.007a.03.03 0 0 1 .005-.012.01.01 0 0 1 .002-.006l.003-.01.003-.005a.058.058 0 0 1 .005-.014l.001-.004.012-.031.001-.003a9.46 9.46 0 0 0 .077-.202l-1.091-.414Zm-1.37 3.076c-.171.334-.349.663-.532.989l1.015.574c.103-.182.203-.364.302-.548l.001-.001.01-.017.002-.003a.024.024 0 0 1 .005-.01l.002-.006.007-.011a.049.049 0 0 1 .003-.007c.001-.004.002-.005.004-.006l.007-.012.001-.006.006-.009c0-.002.001-.004.003-.005l.007-.013.001-.002.007-.015.009-.017.001-.001c.06-.112.118-.225.177-.338l-1.038-.536Zm-1.71 2.902c-.209.311-.422.619-.642.923l.945.684c.228-.315.45-.635.667-.959l-.97-.648Zm-2.028 2.689c-.242.286-.49.568-.743.844l.863.788.17-.188.002-.002.022-.025.002-.003.011-.011.003-.003.007-.009.004-.004.01-.011a.008.008 0 0 1 .004-.004.013.013 0 0 1 .006-.007.044.044 0 0 0 .008-.01l.005-.005.005-.007.003-.002.013-.015.001-.001.023-.025c.16-.18.317-.361.472-.545l-.891-.755Zm-2.318 2.445c-.273.257-.551.508-.833.754l.768.88c.174-.152.346-.304.516-.461l.001-.002c.01-.006.017-.014.025-.022l.003-.002.011-.011.002-.002.011-.009.003-.002.01-.01.005-.004.008-.008c.002-.001.004-.005.007-.006l.005-.006.007-.005.005-.004.011-.011.004-.003.023-.022v-.001c.07-.064.139-.127.208-.193l-.8-.85Zm-2.579 2.169c-.3.223-.604.442-.913.655l.664.96c.063-.043.125-.085.187-.13l.002-.001.026-.019.004-.002c.003-.004.008-.005.012-.009l.005-.003a.03.03 0 0 1 .007-.005c.002-.002.006-.003.008-.006a.016.016 0 0 1 .007-.004.031.031 0 0 1 .009-.007l.005-.004c.004-.002.007-.006.012-.008l.002-.001.011-.008.003-.003.014-.009.001-.001.028-.02h.001c.203-.146.405-.292.603-.442l-.698-.933Zm-2.808 1.861c-.322.189-.649.372-.979.549l.551 1.029c.155-.083.31-.168.464-.253l.032-.019c.006-.001.01-.005.015-.007l.001-.001a.074.074 0 0 1 .015-.008l.001-.001.015-.009.003-.001.013-.008h.001c.004-.002.009-.006.013-.007l.005-.003a.081.081 0 0 1 .013-.006l.003-.003.01-.006.006-.003.011-.007c.003-.001.004-.001.006-.004l.007-.003.008-.005c.003-.001.007-.002.01-.005l.007-.003.007-.005.011-.007.006-.002c.003-.003.004-.004.008-.005l.003-.002.016-.01.003-.001a.712.712 0 0 0 .028-.015l.002-.002a.804.804 0 0 0 .03-.017l.221-.129.024-.013-.59-1.008Zm-2.998 1.532c-.342.15-.688.296-1.036.434l.429 1.085c.363-.144.722-.294 1.078-.451l-.471-1.068Zm-3.153 1.181c-.357.11-.718.215-1.079.312l.303 1.127.105-.028c.001 0 0 0 0 0l.034-.009.004-.001.031-.01.004-.001.014-.003.005-.002.011-.002.007-.001.012-.004a.019.019 0 0 1 .007-.002l.008-.002c.002-.002.006-.002.008-.003l.006-.001.015-.005.004-.001.032-.009.002-.001a.3.3 0 0 0 .032-.01h.001c.153-.043.305-.085.457-.131h.001l.033-.011c.011-.003.022-.005.034-.01h.001a.252.252 0 0 0 .02-.006l.001-.001.012-.004h.001a.146.146 0 0 1 .02-.005l.003-.001.01-.003h.002a.325.325 0 0 0 .017-.006l.005-.001c.004-.001.007-.002.009-.004l.004-.001.016-.004.006-.002.008-.003.007-.002a.074.074 0 0 1 .014-.004l.006-.002.008-.003.012-.003a.019.019 0 0 1 .008-.002.019.019 0 0 1 .007-.002l.009-.003.01-.004.009-.002a.02.02 0 0 0 .006-.002.056.056 0 0 1 .012-.004l.007-.002.004-.001-.345-1.115Zm-3.268.812c-.367.07-.737.133-1.108.188l.173 1.154.289-.044h.001c.011-.003.022-.004.034-.006h.002a.105.105 0 0 0 .017-.004h.001l.015-.002.004-.001.015-.002h.003c.004-.002.009-.002.013-.002l.005-.001.015-.002.004-.001.012-.002.006-.001.013-.002.006-.001.01-.001c.002-.002.005-.002.006-.002l.014-.002.007-.001.008-.001.007-.001a.04.04 0 0 1 .013-.003l.009-.002.007-.001.012-.001.009-.003.007-.001.007-.001.015-.002.006-.002.009-.001.005-.001.014-.002.008-.001c.002-.002.005-.002.008-.003h.007l.011-.001.011-.002c.001 0 .004 0 .006-.002l.009-.001.01-.002.01-.001.007-.001.009-.003.01-.001.011-.002.005-.001.012-.002.004-.001a.077.077 0 0 1 .015-.002l.005-.001c.004-.001.009-.001.013-.003l.002-.001.017-.002h.003l.033-.007h.001l.304-.055-.216-1.148Zm-3.341.436c-.371.027-.745.048-1.121.061l.042 1.166c.112-.003.227-.007.34-.013h.013l.023-.001.002-.001H271.887l.019-.001h.006l.009-.001h.019l.008-.001h.017l.007-.001h.014l.007-.002h.015l.015-.001h.005l.013-.001h.003l.016-.001h.003l.015-.001h.003c.005 0 .011 0 .017-.002H272.116v-.001c.182-.009.363-.021.545-.034l-.086-1.165Zm-4.492-.006-.089 1.164c.387.03.776.052 1.166.067l.045-1.167c-.376-.013-.75-.036-1.122-.064Zm-3.338-.445-.22 1.146c.381.073.765.14 1.15.197l.177-1.153c-.372-.058-.741-.12-1.107-.19Zm-3.266-.823-.349 1.115h.001l.015.004.003.001a.066.066 0 0 0 .015.004l.004.003.011.002.006.002.012.004.008.003.005.001a.548.548 0 0 0 .033.011 26.02 26.02 0 0 0 .82.24v.001l.019.005.005.001.008.003a.263.263 0 0 1 .013.003l.004.002a.035.035 0 0 0 .013.003l.003.001.017.004.001.001c.035.009.069.018.104.029l.307-1.127a30.305 30.305 0 0 1-1.078-.316Zm-3.149-1.189-.475 1.067c.176.078.352.155.527.229h.001l.032.013.001.001.031.013.003.001.019.008h.001c.004.002.007.002.01.005l.002.001.018.007.004.001.008.004.005.001.015.007.005.002.008.004.002.001.018.007.005.002.029.012.003.001a.147.147 0 0 1 .017.007l.004.001a.025.025 0 0 0 .009.004l.002.001.019.008h.001c.012.005.021.01.033.014h.001l.242.099.434-1.085a26.224 26.224 0 0 1-1.034-.436Zm-2.996-1.54-.591 1.006.32.186h.002l.015.01.006.003.007.004.009.005a.02.02 0 0 0 .006.004l.01.005.006.002a.025.025 0 0 0 .012.008l.002.001.014.009h.001c.201.113.403.226.607.336l.553-1.028c-.33-.178-.656-.362-.979-.551Zm-2.801-1.871-.702.932c.279.211.563.416.849.618v.001c.01.005.02.012.028.019h.002l.027.02.001.001.039.026.666-.958a32.899 32.899 0 0 1-.91-.659Zm-2.572-2.175-.804.848.293.273h.001a.195.195 0 0 0 .026.024l.001.001.013.012.001.001.012.012.001.001.011.01.004.003.009.008.004.005c.004.002.006.006.009.008a.012.012 0 0 1 .005.005.044.044 0 0 1 .011.009l.004.005.005.004.006.005.01.008a.043.043 0 0 0 .006.007l.005.004c.005.003.008.008.012.011l.003.003.008.006.002.002.015.014c.128.116.256.231.387.346l.77-.878c-.282-.246-.559-.5-.83-.757Zm-2.312-2.45-.893.751c.153.181.307.36.463.538l.002.002.01.011a.019.019 0 0 1 .003.004l.008.009.003.003.01.011a.02.02 0 0 1 .004.006.019.019 0 0 1 .007.006c.002.003.005.005.006.008.003.001.004.004.006.006l.006.007.004.003c.004.005.007.01.011.013l.002.004.223.248.865-.786a31.222 31.222 0 0 1-.74-.844Zm-2.021-2.697-.972.647.002.002c.003.003.004.007.006.01a.031.031 0 0 0 .004.006l.005.006a.083.083 0 0 0 .008.012l.003.005.018.027c.201.301.408.599.619.892l.947-.684a28.536 28.536 0 0 1-.64-.923Zm-1.702-2.906-1.038.532a8.164 8.164 0 0 0 .112.216v.003l.008.016.003.004a.036.036 0 0 0 .004.009c.002 0 .002.002.003.004l.006.014.004.005.003.008a.03.03 0 0 1 .006.011.018.018 0 0 0 .004.005l.004.008a.016.016 0 0 0 .003.006l.006.013.004.006.004.009.002.004.007.013.002.006.007.011.002.003.006.012.003.004.007.014.001.004.006.01.001.004.009.014.001.003c.002.004.004.009.008.013v.003l.008.013a.003.003 0 0 1 .001.002l.016.03.001.002.008.016a.11.11 0 0 1 .008.015h.001c.002.007.006.011.008.017h.001l.008.016.008.015h.001l.017.033v.001l.018.031v.001l.025.047a.853.853 0 0 0 .018.031l.001.002c.004.01.01.021.016.03l.001.001c.002.006.006.011.008.015l.001.002.007.014.001.001c.004.005.006.01.008.015l.001.002.008.014.001.002a.054.054 0 0 1 .007.013.004.004 0 0 1 .002.003l.007.014.001.001.007.014.003.004a.054.054 0 0 1 .007.013l.003.003.004.011c.002.001.003.003.004.006a.131.131 0 0 1 .006.01l.004.006c.001.003.002.006.005.008l.002.006.007.012.003.007.003.006c.003.003.005.008.007.013l.004.004.005.009.002.004c.003.005.005.01.009.014l.001.004a.106.106 0 0 1 .011.021l1.019-.571c-.183-.327-.36-.656-.531-.99Zm-1.36-3.08-1.093.409a26.843 26.843 0 0 0 .254.656l.008.021a.047.047 0 0 0 .005.01l.001.003c.002.004.004.011.007.015l.001.006.003.008.003.008.005.011.004.007.002.007.005.013.001.004.005.012.001.003a.04.04 0 0 1 .006.015l.002.003.006.014v.001l.007.016v.001l.105.252 1.076-.451a26.964 26.964 0 0 1-.414-1.044Zm-1.001-3.215-1.132.282.012.051c0 .001 0 .002.002.003l.003.016.001.005c.001.004.001.007.003.01l.002.006a.059.059 0 0 1 .002.013l.002.009.001.005c.087.338.178.675.275 1.009l1.122-.325c-.105-.358-.202-.72-.293-1.084Zm-.627-3.308-1.157.151c.047.362.101.723.16 1.082l.002.001a.11.11 0 0 0 .002.018v.001l.002.014.001.005.003.015.001.006a.022.022 0 0 1 .001.008l.001.004 1.151-.195a31.228 31.228 0 0 1-.167-1.11Zm-.25-3.361-1.166.021c.004.299.015.597.028.894v.001c0 .006 0 .01.002.016v.023l.001.01v.007l.001.014V266.401l.01.189 1.165-.065c-.02-.372-.034-.746-.041-1.123Zm-1.034-3.478c-.026.284-.049.568-.068.853v.001l-.001.017v.003l-.002.015V262.835c-.002.005-.002.008-.002.013v.006l-.001.013-.001.007v.017l-.001.008-.001.015v.004l-.011.17 1.167.066c.02-.375.049-.749.084-1.121l-1.163-.109Zm.527-3.46-.049.238-.005.022-.001.003-.002.009v.004l-.003.017-.001.006c-.002.001-.002.006-.003.008l-.001.008-.002.01a.02.02 0 0 1-.003.01l-.001.006-.002.014-.001.003a.04.04 0 0 1-.003.014v.004l-.003.016h-.001l-.002.017-.001.001c-.048.244-.093.49-.135.737l1.15.198c.063-.371.134-.74.211-1.105l-1.142-.24Zm.917-3.379-.001.003-.005.013-.001.005-.004.01-.002.005-.004.015-.001.002-.005.016a29.37 29.37 0 0 0-.326 1.045l1.121.327c.105-.359.216-.717.335-1.071l-1.107-.37Zm1.296-3.252-.004.012h-.002l-.013.031h-.001l-.014.031-.002.001c-.151.327-.297.659-.437.992l1.076.454c.145-.345.296-.689.455-1.028l-1.058-.493Zm1.658-3.083a31.59 31.59 0 0 0-.592 1.007l1.018.572c.184-.327.373-.649.569-.968l-.995-.611Zm1.996-2.875a.071.071 0 0 0-.01.014l-.001.001c-.008.008-.015.019-.022.028-.169.216-.334.434-.496.653l-.001.001-.019.028c-.001.001-.003.002-.003.004-.003.002-.005.007-.009.011l-.002.003-.007.01-.003.005a.058.058 0 0 0-.008.01l-.005.007c-.001.001-.004.003-.004.005l-.008.012c-.002.001-.003.002-.004.005l-.006.008-.002.002-.012.017a3.09 3.09 0 0 0-.079.11l.946.682c.219-.303.445-.602.675-.897l-.92-.719Zm2.307-2.632-.003.004-.004.004-.011.011-.003.004a.013.013 0 0 1-.007.006l-.003.004c-.005.003-.008.008-.013.013l-.002.002-.023.024h-.001c-.148.152-.294.304-.439.459l-.001.001-.015.017a.03.03 0 0 1-.008.008v.001l-.013.014-.004.002-.006.009a.008.008 0 0 0-.004.004c-.003.004-.007.006-.009.01l-.006.006-.007.008-.007.006-.005.005-.006.008-.007.006-.007.009-.004.004-.009.01-.004.003a.032.032 0 0 1-.008.009l-.003.004-.009.011-.004.003-.009.01-.003.001c-.002.005-.006.008-.009.013l-.003.002-.023.025-.001.001c-.033.036-.066.071-.098.108l.863.785c.252-.277.51-.549.772-.816l-.834-.818Zm2.591-2.355c-.179.144-.357.292-.532.441l-.003.002-.012.011c-.002.001 0 .001 0 .001l-.012.009a.014.014 0 0 0-.004.003l-.01.009c-.003.001-.004.004-.005.005-.003.002-.006.003-.008.006l-.005.004-.01.008-.006.006-.004.003-.013.011-.003.003c-.004.002-.005.004-.008.007l-.001.001-.016.014h-.001c-.08.069-.16.137-.24.209l.77.878c.281-.248.568-.489.859-.725l-.736-.906Zm2.839-2.049a.32.32 0 0 1-.031.019v.001l-.015.009h-.001l-.013.01-.003.001-.012.009-.004.001-.011.008-.004.002-.011.007-.006.003-.01.007c-.002.002-.004.004-.006.004-.003.002-.005.005-.008.006l-.005.003-.012.007-.006.004a.027.027 0 0 0-.006.005.073.073 0 0 0-.009.005.092.092 0 0 1-.008.005.03.03 0 0 1-.007.005l-.007.004a.2.2 0 0 1-.01.007l-.006.004-.008.005-.004.003a.101.101 0 0 0-.013.009l-.005.002-.007.006-.011.006-.006.005-.006.004c-.004.001-.006.003-.01.006-.002.001-.005.002-.007.005a.016.016 0 0 0-.007.004l-.006.004a.036.036 0 0 0-.01.007l-.008.004-.006.005-.009.006a.03.03 0 0 0-.007.005.015.015 0 0 0-.008.004l-.006.004-.011.007a.016.016 0 0 1-.006.003.012.012 0 0 1-.008.006l-.004.004a.042.042 0 0 0-.012.008l-.004.002-.011.007c-.002 0-.002.002-.003.002l-.013.008-.003.003a.064.064 0 0 1-.014.008l-.001.002-.012.008-.002.002-.014.008-.002.002a.042.042 0 0 0-.014.009l-.015.01h-.001c-.156.105-.313.21-.467.318l.666.959c.307-.213.618-.421.934-.622l-.628-.984Zm3.052-1.714-.188.094h-.001l-.03.014-.003.001-.018.01-.002.001a.028.028 0 0 0-.009.005l-.003.001a.074.074 0 0 0-.015.008.01.01 0 0 0-.005.002l-.007.004a.016.016 0 0 0-.006.003l-.013.005-.007.004a.049.049 0 0 1-.007.003c-.003.002-.007.005-.011.006l-.007.003a.016.016 0 0 1-.008.005l-.005.002-.012.007-.005.003a.049.049 0 0 1-.011.004c-.001.002-.002.003-.005.003a.066.066 0 0 0-.012.006.008.008 0 0 1-.005.002l-.012.007-.002.001-.013.007-.004.001c-.005.003-.01.005-.014.009l-.002.001-.013.006-.003.001-.014.007-.002.001-.014.007-.002.001-.015.007c0 .002-.001.002-.002.003l-.015.007a.071.071 0 0 1-.015.008l-.003.001c-.005.001-.009.005-.014.007h-.001l-.014.007-.003.003a.091.091 0 0 0-.014.007l-.002.001a.091.091 0 0 0-.014.007l-.002.001-.014.008-.003.001-.013.006-.002.001a.091.091 0 0 1-.014.007l-.004.003-.013.007-.002.001-.013.007-.004.002-.013.007c-.002 0-.003 0-.004.002-.004.001-.007.002-.009.004l-.006.003-.013.007-.005.003a.015.015 0 0 0-.008.004l-.009.004-.008.005c-.004.001-.006.003-.009.005a.008.008 0 0 0-.004.002l-.016.007-.002.001-.009.006-.003.001a.104.104 0 0 0-.018.01l-.001.001a8.895 8.895 0 0 0-.216.114l.552 1.029c.33-.177.663-.348 1-.513l-.513-1.049Zm3.228-1.355c-.369.129-.731.266-1.094.41l.432 1.086c.347-.14.698-.271 1.052-.396l-.39-1.1Zm3.361-.979c-.195.045-.386.091-.579.14h-.001l-.012.002-.001.001a.071.071 0 0 1-.02.004l-.003.001-.01.003-.005.001-.016.003-.005.003-.008.001-.013.003-.007.003-.009.002-.006.001a.093.093 0 0 0-.013.004l-.006.001-.011.003-.005.001a.066.066 0 0 1-.015.004l-.003.001a.074.074 0 0 0-.014.004l-.002.001-.016.002-.002.001-.016.004v.001l-.017.004-.003.001-.033.008-.001.001-.034.009h-.001l-.247.065.306 1.128c.36-.098.724-.189 1.089-.274l-.261-1.137Zm3.45-.589-.047.005-.001.001c-.372.042-.741.091-1.109.146l.174 1.155c.37-.056.741-.106 1.114-.148l-.131-1.159Zm3.496-.196H270.187l-.016.001H270.06l-.016.001H269.951c-.006.002-.012.002-.017.002H269.876l-.017.001c-.001 0 .002 0 0 0H269.804l-.034.001h-.003l-.035.001h-.037c-.164.004-.328.008-.491.014l.044 1.167c.372-.013.747-.02 1.124-.02v-1.168Z" fill="#FFFFFE"/></g></svg>